<?xml version="1.0" encoding="UTF-8" standalone="no"?>
<!DOCTYPE svg PUBLIC "-//W3C//DTD SVG 1.1//EN"
 "http://www.w3.org/Graphics/SVG/1.1/DTD/svg11.dtd">
<!-- Generated by graphviz version 14.0.2 (20251019.1705)
 -->
<!-- Title: AdminCompromise Pages: 1 -->
<svg width="2039pt" height="842pt"
 viewBox="0.00 0.00 2039.00 842.00" xmlns="http://www.w3.org/2000/svg" xmlns:xlink="http://www.w3.org/1999/xlink">
<g id="graph0" class="graph" transform="scale(1 1) rotate(0) translate(4 837.5)">
<title>AdminCompromise</title>
<polygon fill="white" stroke="none" points="-4,4 -4,-837.5 2034.5,-837.5 2034.5,4 -4,4"/>
<g id="clust1" class="cluster">
<title>cluster_legend</title>
<polygon fill="#f0f0f0" stroke="black" points="1695.75,-438 1695.75,-825.5 1861.75,-825.5 1861.75,-438 1695.75,-438"/>
<text xml:space="preserve" text-anchor="middle" x="1778.75" y="-812" font-family="Times,serif" font-size="10.00">Legend</text>
</g>
<!-- root -->
<g id="node1" class="node">
<title>root</title>
<path fill="#ff6b6b" stroke="black" stroke-width="3" d="M1218.5,-819.75C1218.5,-819.75 1033,-819.75 1033,-819.75 1027,-819.75 1021,-813.75 1021,-807.75 1021,-807.75 1021,-752.75 1021,-752.75 1021,-746.75 1027,-740.75 1033,-740.75 1033,-740.75 1218.5,-740.75 1218.5,-740.75 1224.5,-740.75 1230.5,-746.75 1230.5,-752.75 1230.5,-752.75 1230.5,-807.75 1230.5,-807.75 1230.5,-813.75 1224.5,-819.75 1218.5,-819.75"/>
<text xml:space="preserve" text-anchor="middle" x="1125.75" y="-804.35" font-family="Arial" font-size="12.00" fill="white">ROOT:</text>
<text xml:space="preserve" text-anchor="middle" x="1125.75" y="-790.1" font-family="Arial" font-size="12.00" fill="white">Compromise Administrative Account</text>
<text xml:space="preserve" text-anchor="middle" x="1125.75" y="-761.85" font-family="Arial" font-size="12.00" fill="white">Impact: CRITICAL</text>
<text xml:space="preserve" text-anchor="middle" x="1125.75" y="-747.6" font-family="Arial" font-size="12.00" fill="white">Threat Actor: TA&#45;01</text>
</g>
<!-- or1 -->
<g id="node2" class="node">
<title>or1</title>
<polygon fill="#ffd93d" stroke="black" points="1125.75,-703.75 1016.75,-671.75 1125.75,-639.75 1234.75,-671.75 1125.75,-703.75"/>
<text xml:space="preserve" text-anchor="middle" x="1125.75" y="-674.25" font-family="Arial" font-size="10.00">OR</text>
<text xml:space="preserve" text-anchor="middle" x="1125.75" y="-662.25" font-family="Arial" font-size="10.00">(Any Path Succeeds)</text>
</g>
<!-- root&#45;&gt;or1 -->
<g id="edge1" class="edge">
<title>root&#45;&gt;or1</title>
<path fill="none" stroke="black" d="M1125.75,-739.29C1125.75,-731.44 1125.75,-723.17 1125.75,-715.24"/>
<polygon fill="black" stroke="black" points="1129.25,-715.46 1125.75,-705.46 1122.25,-715.46 1129.25,-715.46"/>
</g>
<!-- path1 -->
<g id="node3" class="node">
<title>path1</title>
<path fill="#ffa500" stroke="black" d="M1032.38,-588.75C1032.38,-588.75 951.12,-588.75 951.12,-588.75 945.12,-588.75 939.12,-582.75 939.12,-576.75 939.12,-576.75 939.12,-564.75 939.12,-564.75 939.12,-558.75 945.12,-552.75 951.12,-552.75 951.12,-552.75 1032.38,-552.75 1032.38,-552.75 1038.38,-552.75 1044.38,-558.75 1044.38,-564.75 1044.38,-564.75 1044.38,-576.75 1044.38,-576.75 1044.38,-582.75 1038.38,-588.75 1032.38,-588.75"/>
<text xml:space="preserve" text-anchor="middle" x="991.75" y="-573.8" font-family="Arial" font-size="11.00">Path 1:</text>
<text xml:space="preserve" text-anchor="middle" x="991.75" y="-560.3" font-family="Arial" font-size="11.00">Brute Force Attack</text>
</g>
<!-- or1&#45;&gt;path1 -->
<g id="edge2" class="edge">
<title>or1&#45;&gt;path1</title>
<path fill="none" stroke="black" d="M1095.34,-648.29C1074.22,-632.68 1046.1,-611.91 1024.49,-595.94"/>
<polygon fill="black" stroke="black" points="1026.71,-593.22 1016.58,-590.1 1022.55,-598.85 1026.71,-593.22"/>
</g>
<!-- path2 -->
<g id="node17" class="node">
<title>path2</title>
<path fill="#ffa500" stroke="black" d="M1177.25,-588.75C1177.25,-588.75 1074.25,-588.75 1074.25,-588.75 1068.25,-588.75 1062.25,-582.75 1062.25,-576.75 1062.25,-576.75 1062.25,-564.75 1062.25,-564.75 1062.25,-558.75 1068.25,-552.75 1074.25,-552.75 1074.25,-552.75 1177.25,-552.75 1177.25,-552.75 1183.25,-552.75 1189.25,-558.75 1189.25,-564.75 1189.25,-564.75 1189.25,-576.75 1189.25,-576.75 1189.25,-582.75 1183.25,-588.75 1177.25,-588.75"/>
<text xml:space="preserve" text-anchor="middle" x="1125.75" y="-573.8" font-family="Arial" font-size="11.00">Path 2:</text>
<text xml:space="preserve" text-anchor="middle" x="1125.75" y="-560.3" font-family="Arial" font-size="11.00">Session Fixation Attack</text>
</g>
<!-- or1&#45;&gt;path2 -->
<g id="edge3" class="edge">
<title>or1&#45;&gt;path2</title>
<path fill="none" stroke="black" d="M1125.75,-639.43C1125.75,-626.93 1125.75,-612.65 1125.75,-600.43"/>
<polygon fill="black" stroke="black" points="1129.25,-600.56 1125.75,-590.56 1122.25,-600.56 1129.25,-600.56"/>
</g>
<!-- path3 -->
<g id="node22" class="node">
<title>path3</title>
<path fill="#ffa500" stroke="black" d="M1318.38,-595C1318.38,-595 1219.12,-595 1219.12,-595 1213.12,-595 1207.12,-589 1207.12,-583 1207.12,-583 1207.12,-558.5 1207.12,-558.5 1207.12,-552.5 1213.12,-546.5 1219.12,-546.5 1219.12,-546.5 1318.38,-546.5 1318.38,-546.5 1324.38,-546.5 1330.38,-552.5 1330.38,-558.5 1330.38,-558.5 1330.38,-583 1330.38,-583 1330.38,-589 1324.38,-595 1318.38,-595"/>
<text xml:space="preserve" text-anchor="middle" x="1268.75" y="-580.55" font-family="Arial" font-size="11.00">Path 3:</text>
<text xml:space="preserve" text-anchor="middle" x="1268.75" y="-567.05" font-family="Arial" font-size="11.00">SQL Injection to</text>
<text xml:space="preserve" text-anchor="middle" x="1268.75" y="-553.55" font-family="Arial" font-size="11.00">Create Admin Account</text>
</g>
<!-- or1&#45;&gt;path3 -->
<g id="edge4" class="edge">
<title>or1&#45;&gt;path3</title>
<path fill="none" stroke="black" d="M1157.49,-648.78C1177.41,-634.98 1203.38,-617.01 1225.22,-601.89"/>
<polygon fill="black" stroke="black" points="1227.13,-604.82 1233.36,-596.25 1223.15,-599.06 1227.13,-604.82"/>
</g>
<!-- and1_1 -->
<g id="node4" class="node">
<title>and1_1</title>
<polygon fill="#ffa500" stroke="black" points="467.75,-493 394.75,-464 467.75,-435 540.75,-464 467.75,-493"/>
<text xml:space="preserve" text-anchor="middle" x="467.75" y="-465.95" font-family="Arial" font-size="9.00">AND</text>
<text xml:space="preserve" text-anchor="middle" x="467.75" y="-455.45" font-family="Arial" font-size="9.00">(All Required)</text>
</g>
<!-- path1&#45;&gt;and1_1 -->
<g id="edge5" class="edge">
<title>path1&#45;&gt;and1_1</title>
<path fill="none" stroke="black" d="M939.11,-559.23C840.67,-539.55 629.41,-497.32 526.5,-476.75"/>
<polygon fill="black" stroke="black" points="527.37,-473.35 516.88,-474.82 526,-480.21 527.37,-473.35"/>
</g>
<!-- post -->
<g id="node28" class="node">
<title>post</title>
<path fill="none" stroke="black" d="M1227.12,-482C1227.12,-482 1156.38,-482 1156.38,-482 1150.38,-482 1144.38,-476 1144.38,-470 1144.38,-470 1144.38,-458 1144.38,-458 1144.38,-452 1150.38,-446 1156.38,-446 1156.38,-446 1227.12,-446 1227.12,-446 1233.12,-446 1239.12,-452 1239.12,-458 1239.12,-458 1239.12,-470 1239.12,-470 1239.12,-476 1233.12,-482 1227.12,-482"/>
<text xml:space="preserve" text-anchor="middle" x="1191.75" y="-466.5" font-family="Arial" font-size="10.00">Post&#45;Compromise</text>
<text xml:space="preserve" text-anchor="middle" x="1191.75" y="-454.5" font-family="Arial" font-size="10.00">Actions</text>
</g>
<!-- path1&#45;&gt;post -->
<g id="edge27" class="edge">
<title>path1&#45;&gt;post</title>
<path fill="none" stroke="black" stroke-dasharray="5,2" d="M1024.78,-552.45C1058.55,-534.77 1111.18,-507.2 1148.31,-487.75"/>
<polygon fill="black" stroke="black" points="1149.77,-490.94 1157,-483.2 1146.52,-484.74 1149.77,-490.94"/>
<text xml:space="preserve" text-anchor="middle" x="1124.72" y="-513.15" font-family="Arial" font-size="8.00">if successful</text>
</g>
<!-- subgoal1_1 -->
<g id="node5" class="node">
<title>subgoal1_1</title>
<path fill="none" stroke="black" d="M643.88,-364C643.88,-364 517.62,-364 517.62,-364 511.62,-364 505.62,-358 505.62,-352 505.62,-352 505.62,-340 505.62,-340 505.62,-334 511.62,-328 517.62,-328 517.62,-328 643.88,-328 643.88,-328 649.88,-328 655.88,-334 655.88,-340 655.88,-340 655.88,-352 655.88,-352 655.88,-358 649.88,-364 643.88,-364"/>
<text xml:space="preserve" text-anchor="middle" x="580.75" y="-348.5" font-family="Arial" font-size="10.00">Subgoal 1.1:</text>
<text xml:space="preserve" text-anchor="middle" x="580.75" y="-336.5" font-family="Arial" font-size="10.00">Identify Valid Admin Username</text>
</g>
<!-- and1_1&#45;&gt;subgoal1_1 -->
<g id="edge6" class="edge">
<title>and1_1&#45;&gt;subgoal1_1</title>
<path fill="none" stroke="black" d="M487.69,-442.53C506.74,-422.98 535.49,-393.46 556,-372.41"/>
<polygon fill="black" stroke="black" points="558.43,-374.93 562.9,-365.33 553.41,-370.05 558.43,-374.93"/>
</g>
<!-- subgoal1_2 -->
<g id="node10" class="node">
<title>subgoal1_2</title>
<path fill="none" stroke="black" d="M307.5,-364C307.5,-364 218,-364 218,-364 212,-364 206,-358 206,-352 206,-352 206,-340 206,-340 206,-334 212,-328 218,-328 218,-328 307.5,-328 307.5,-328 313.5,-328 319.5,-334 319.5,-340 319.5,-340 319.5,-352 319.5,-352 319.5,-358 313.5,-364 307.5,-364"/>
<text xml:space="preserve" text-anchor="middle" x="262.75" y="-348.5" font-family="Arial" font-size="10.00">Subgoal 1.2:</text>
<text xml:space="preserve" text-anchor="middle" x="262.75" y="-336.5" font-family="Arial" font-size="10.00">Brute Force Password</text>
</g>
<!-- and1_1&#45;&gt;subgoal1_2 -->
<g id="edge7" class="edge">
<title>and1_1&#45;&gt;subgoal1_2</title>
<path fill="none" stroke="black" d="M438.38,-446.38C402.94,-426.32 343.15,-392.5 303.32,-369.96"/>
<polygon fill="black" stroke="black" points="305.15,-366.97 294.72,-365.09 301.7,-373.06 305.15,-366.97"/>
</g>
<!-- subgoal1_3 -->
<g id="node15" class="node">
<title>subgoal1_3</title>
<path fill="none" stroke="black" d="M475.62,-364C475.62,-364 383.88,-364 383.88,-364 377.88,-364 371.88,-358 371.88,-352 371.88,-352 371.88,-340 371.88,-340 371.88,-334 377.88,-328 383.88,-328 383.88,-328 475.62,-328 475.62,-328 481.62,-328 487.62,-334 487.62,-340 487.62,-340 487.62,-352 487.62,-352 487.62,-358 481.62,-364 475.62,-364"/>
<text xml:space="preserve" text-anchor="middle" x="429.75" y="-348.5" font-family="Arial" font-size="10.00">Subgoal 1.3:</text>
<text xml:space="preserve" text-anchor="middle" x="429.75" y="-336.5" font-family="Arial" font-size="10.00">Bypass Weak Hashing</text>
</g>
<!-- and1_1&#45;&gt;subgoal1_3 -->
<g id="edge8" class="edge">
<title>and1_1&#45;&gt;subgoal1_3</title>
<path fill="none" stroke="black" d="M459.5,-437.83C453.44,-419.31 445.19,-394.14 438.92,-374.99"/>
<polygon fill="black" stroke="black" points="442.31,-374.08 435.87,-365.67 435.65,-376.26 442.31,-374.08"/>
</g>
<!-- or1_1 -->
<g id="node6" class="node">
<title>or1_1</title>
<polygon fill="#ffd93d" stroke="black" points="606.75,-217 579.75,-199 606.75,-181 633.75,-199 606.75,-217"/>
<text xml:space="preserve" text-anchor="middle" x="606.75" y="-196.28" font-family="Arial" font-size="8.00">OR</text>
</g>
<!-- subgoal1_1&#45;&gt;or1_1 -->
<g id="edge9" class="edge">
<title>subgoal1_1&#45;&gt;or1_1</title>
<path fill="none" stroke="black" d="M583.89,-327.51C588.4,-302.35 596.75,-255.76 602.02,-226.4"/>
<polygon fill="black" stroke="black" points="605.41,-227.3 603.73,-216.84 598.52,-226.06 605.41,-227.3"/>
</g>
<!-- leaf1_1_1 -->
<g id="node7" class="node">
<title>leaf1_1_1</title>
<path fill="#90ee90" stroke="#ff0000" stroke-width="2" d="M521.5,-104C521.5,-104 396,-104 396,-104 390,-104 384,-98 384,-92 384,-92 384,-12 384,-12 384,-6 390,0 396,0 396,0 521.5,0 521.5,0 527.5,0 533.5,-6 533.5,-12 533.5,-12 533.5,-92 533.5,-92 533.5,-98 527.5,-104 521.5,-104"/>
<text xml:space="preserve" text-anchor="middle" x="458.75" y="-90.5" font-family="Arial" font-size="10.00">LEAF: Username Enumeration</text>
<text xml:space="preserve" text-anchor="middle" x="458.75" y="-78.5" font-family="Arial" font-size="10.00">via Login Error Messages</text>
<text xml:space="preserve" text-anchor="middle" x="458.75" y="-66.5" font-family="Arial" font-size="10.00">&#45;&#45;&#45;</text>
<text xml:space="preserve" text-anchor="middle" x="458.75" y="-54.5" font-family="Arial" font-size="10.00">Vuln: app.py:111&#45;113</text>
<text xml:space="preserve" text-anchor="middle" x="458.75" y="-42.5" font-family="Arial" font-size="10.00">Feasibility: HIGH</text>
<text xml:space="preserve" text-anchor="middle" x="458.75" y="-30.5" font-family="Arial" font-size="10.00">Complexity: LOW</text>
<text xml:space="preserve" text-anchor="middle" x="458.75" y="-18.5" font-family="Arial" font-size="10.00">Cost: FREE</text>
<text xml:space="preserve" text-anchor="middle" x="458.75" y="-6.5" font-family="Arial" font-size="10.00">Detection: LOW</text>
</g>
<!-- or1_1&#45;&gt;leaf1_1_1 -->
<g id="edge10" class="edge">
<title>or1_1&#45;&gt;leaf1_1_1</title>
<path fill="none" stroke="black" d="M596.11,-187.57C580.05,-171.84 548.44,-140.88 519.59,-112.61"/>
<polygon fill="black" stroke="black" points="522.22,-110.28 512.63,-105.78 517.32,-115.28 522.22,-110.28"/>
</g>
<!-- leaf1_1_2 -->
<g id="node8" class="node">
<title>leaf1_1_2</title>
<path fill="#90ee90" stroke="#ff0000" stroke-width="2" d="M665.5,-98C665.5,-98 564,-98 564,-98 558,-98 552,-92 552,-86 552,-86 552,-18 552,-18 552,-12 558,-6 564,-6 564,-6 665.5,-6 665.5,-6 671.5,-6 677.5,-12 677.5,-18 677.5,-18 677.5,-86 677.5,-86 677.5,-92 671.5,-98 665.5,-98"/>
<text xml:space="preserve" text-anchor="middle" x="614.75" y="-84.5" font-family="Arial" font-size="10.00">LEAF: Default Credential</text>
<text xml:space="preserve" text-anchor="middle" x="614.75" y="-72.5" font-family="Arial" font-size="10.00">Testing (admin, root)</text>
<text xml:space="preserve" text-anchor="middle" x="614.75" y="-60.5" font-family="Arial" font-size="10.00">&#45;&#45;&#45;</text>
<text xml:space="preserve" text-anchor="middle" x="614.75" y="-48.5" font-family="Arial" font-size="10.00">Feasibility: HIGH</text>
<text xml:space="preserve" text-anchor="middle" x="614.75" y="-36.5" font-family="Arial" font-size="10.00">Complexity: LOW</text>
<text xml:space="preserve" text-anchor="middle" x="614.75" y="-24.5" font-family="Arial" font-size="10.00">Cost: FREE</text>
<text xml:space="preserve" text-anchor="middle" x="614.75" y="-12.5" font-family="Arial" font-size="10.00">Detection: LOW</text>
</g>
<!-- or1_1&#45;&gt;leaf1_1_2 -->
<g id="edge11" class="edge">
<title>or1_1&#45;&gt;leaf1_1_2</title>
<path fill="none" stroke="black" d="M607.68,-181.08C608.64,-163.72 610.19,-135.73 611.59,-110.34"/>
<polygon fill="black" stroke="black" points="615.08,-110.59 612.13,-100.41 608.09,-110.2 615.08,-110.59"/>
</g>
<!-- leaf1_1_3 -->
<g id="node9" class="node">
<title>leaf1_1_3</title>
<path fill="#90ee90" stroke="#ffa500" stroke-width="2" d="M791.5,-98C791.5,-98 708,-98 708,-98 702,-98 696,-92 696,-86 696,-86 696,-18 696,-18 696,-12 702,-6 708,-6 708,-6 791.5,-6 791.5,-6 797.5,-6 803.5,-12 803.5,-18 803.5,-18 803.5,-86 803.5,-86 803.5,-92 797.5,-98 791.5,-98"/>
<text xml:space="preserve" text-anchor="middle" x="749.75" y="-84.5" font-family="Arial" font-size="10.00">LEAF: Leaderboard</text>
<text xml:space="preserve" text-anchor="middle" x="749.75" y="-72.5" font-family="Arial" font-size="10.00">Data Scraping</text>
<text xml:space="preserve" text-anchor="middle" x="749.75" y="-60.5" font-family="Arial" font-size="10.00">&#45;&#45;&#45;</text>
<text xml:space="preserve" text-anchor="middle" x="749.75" y="-48.5" font-family="Arial" font-size="10.00">Feasibility: MEDIUM</text>
<text xml:space="preserve" text-anchor="middle" x="749.75" y="-36.5" font-family="Arial" font-size="10.00">Complexity: LOW</text>
<text xml:space="preserve" text-anchor="middle" x="749.75" y="-24.5" font-family="Arial" font-size="10.00">Cost: FREE</text>
<text xml:space="preserve" text-anchor="middle" x="749.75" y="-12.5" font-family="Arial" font-size="10.00">Detection: LOW</text>
</g>
<!-- or1_1&#45;&gt;leaf1_1_3 -->
<g id="edge12" class="edge">
<title>or1_1&#45;&gt;leaf1_1_3</title>
<path fill="none" stroke="black" d="M617.03,-187.57C633.61,-170.76 667.35,-136.55 696.66,-106.83"/>
<polygon fill="black" stroke="black" points="698.81,-109.64 703.34,-100.06 693.82,-104.72 698.81,-109.64"/>
</g>
<!-- and1_2 -->
<g id="node11" class="node">
<title>and1_2</title>
<polygon fill="#ffa500" stroke="black" points="248.75,-217 221.73,-199 248.75,-181 275.77,-199 248.75,-217"/>
<text xml:space="preserve" text-anchor="middle" x="248.75" y="-196.28" font-family="Arial" font-size="8.00">AND</text>
</g>
<!-- subgoal1_2&#45;&gt;and1_2 -->
<g id="edge13" class="edge">
<title>subgoal1_2&#45;&gt;and1_2</title>
<path fill="none" stroke="black" d="M261.06,-327.51C258.66,-302.62 254.23,-256.74 251.39,-227.33"/>
<polygon fill="black" stroke="black" points="254.91,-227.34 250.46,-217.72 247.94,-228.01 254.91,-227.34"/>
</g>
<!-- leaf1_2_1 -->
<g id="node12" class="node">
<title>leaf1_2_1</title>
<path fill="#90ee90" stroke="#ff0000" stroke-width="2" d="M101.5,-104C101.5,-104 12,-104 12,-104 6,-104 0,-98 0,-92 0,-92 0,-12 0,-12 0,-6 6,0 12,0 12,0 101.5,0 101.5,0 107.5,0 113.5,-6 113.5,-12 113.5,-12 113.5,-92 113.5,-92 113.5,-98 107.5,-104 101.5,-104"/>
<text xml:space="preserve" text-anchor="middle" x="56.75" y="-90.5" font-family="Arial" font-size="10.00">LEAF: Exploit Missing</text>
<text xml:space="preserve" text-anchor="middle" x="56.75" y="-78.5" font-family="Arial" font-size="10.00">Rate Limiting</text>
<text xml:space="preserve" text-anchor="middle" x="56.75" y="-66.5" font-family="Arial" font-size="10.00">&#45;&#45;&#45;</text>
<text xml:space="preserve" text-anchor="middle" x="56.75" y="-54.5" font-family="Arial" font-size="10.00">Vuln: app.py:86&#45;116</text>
<text xml:space="preserve" text-anchor="middle" x="56.75" y="-42.5" font-family="Arial" font-size="10.00">Feasibility: HIGH</text>
<text xml:space="preserve" text-anchor="middle" x="56.75" y="-30.5" font-family="Arial" font-size="10.00">Complexity: LOW</text>
<text xml:space="preserve" text-anchor="middle" x="56.75" y="-18.5" font-family="Arial" font-size="10.00">Cost: FREE</text>
<text xml:space="preserve" text-anchor="middle" x="56.75" y="-6.5" font-family="Arial" font-size="10.00">Detection: MEDIUM</text>
</g>
<!-- and1_2&#45;&gt;leaf1_2_1 -->
<g id="edge14" class="edge">
<title>and1_2&#45;&gt;leaf1_2_1</title>
<path fill="none" stroke="black" d="M236.54,-188.99C215.34,-173.34 170.19,-139.91 123.37,-104.44"/>
<polygon fill="black" stroke="black" points="125.59,-101.73 115.5,-98.48 121.36,-107.31 125.59,-101.73"/>
</g>
<!-- leaf1_2_2 -->
<g id="node13" class="node">
<title>leaf1_2_2</title>
<path fill="#90ee90" stroke="#ff0000" stroke-width="2" d="M227.5,-104C227.5,-104 144,-104 144,-104 138,-104 132,-98 132,-92 132,-92 132,-12 132,-12 132,-6 138,0 144,0 144,0 227.5,0 227.5,0 233.5,0 239.5,-6 239.5,-12 239.5,-12 239.5,-92 239.5,-92 239.5,-98 233.5,-104 227.5,-104"/>
<text xml:space="preserve" text-anchor="middle" x="185.75" y="-90.5" font-family="Arial" font-size="10.00">LEAF: Use Common</text>
<text xml:space="preserve" text-anchor="middle" x="185.75" y="-78.5" font-family="Arial" font-size="10.00">Password Wordlist</text>
<text xml:space="preserve" text-anchor="middle" x="185.75" y="-66.5" font-family="Arial" font-size="10.00">&#45;&#45;&#45;</text>
<text xml:space="preserve" text-anchor="middle" x="185.75" y="-54.5" font-family="Arial" font-size="10.00">Tool: rockyou.txt</text>
<text xml:space="preserve" text-anchor="middle" x="185.75" y="-42.5" font-family="Arial" font-size="10.00">Feasibility: HIGH</text>
<text xml:space="preserve" text-anchor="middle" x="185.75" y="-30.5" font-family="Arial" font-size="10.00">Complexity: LOW</text>
<text xml:space="preserve" text-anchor="middle" x="185.75" y="-18.5" font-family="Arial" font-size="10.00">Cost: FREE</text>
<text xml:space="preserve" text-anchor="middle" x="185.75" y="-6.5" font-family="Arial" font-size="10.00">Detection: MEDIUM</text>
</g>
<!-- and1_2&#45;&gt;leaf1_2_2 -->
<g id="edge15" class="edge">
<title>and1_2&#45;&gt;leaf1_2_2</title>
<path fill="none" stroke="black" d="M242.82,-184.36C235.9,-168.43 223.98,-140.99 212.82,-115.3"/>
<polygon fill="black" stroke="black" points="216.06,-113.98 208.86,-106.2 209.64,-116.77 216.06,-113.98"/>
</g>
<!-- leaf1_2_3 -->
<g id="node14" class="node">
<title>leaf1_2_3</title>
<path fill="#90ee90" stroke="#ffa500" stroke-width="2" d="M353.5,-98C353.5,-98 270,-98 270,-98 264,-98 258,-92 258,-86 258,-86 258,-18 258,-18 258,-12 264,-6 270,-6 270,-6 353.5,-6 353.5,-6 359.5,-6 365.5,-12 365.5,-18 365.5,-18 365.5,-86 365.5,-86 365.5,-92 359.5,-98 353.5,-98"/>
<text xml:space="preserve" text-anchor="middle" x="311.75" y="-84.5" font-family="Arial" font-size="10.00">LEAF: Credential</text>
<text xml:space="preserve" text-anchor="middle" x="311.75" y="-72.5" font-family="Arial" font-size="10.00">Stuffing Attack</text>
<text xml:space="preserve" text-anchor="middle" x="311.75" y="-60.5" font-family="Arial" font-size="10.00">&#45;&#45;&#45;</text>
<text xml:space="preserve" text-anchor="middle" x="311.75" y="-48.5" font-family="Arial" font-size="10.00">Feasibility: MEDIUM</text>
<text xml:space="preserve" text-anchor="middle" x="311.75" y="-36.5" font-family="Arial" font-size="10.00">Complexity: LOW</text>
<text xml:space="preserve" text-anchor="middle" x="311.75" y="-24.5" font-family="Arial" font-size="10.00">Cost: FREE</text>
<text xml:space="preserve" text-anchor="middle" x="311.75" y="-12.5" font-family="Arial" font-size="10.00">Detection: MEDIUM</text>
</g>
<!-- and1_2&#45;&gt;leaf1_2_3 -->
<g id="edge16" class="edge">
<title>and1_2&#45;&gt;leaf1_2_3</title>
<path fill="none" stroke="black" d="M254.68,-184.36C262.15,-167.17 275.45,-136.56 287.33,-109.21"/>
<polygon fill="black" stroke="black" points="290.42,-110.87 291.2,-100.31 284,-108.08 290.42,-110.87"/>
</g>
<!-- leaf1_3_1 -->
<g id="node16" class="node">
<title>leaf1_3_1</title>
<path fill="#90ee90" stroke="#ffa500" stroke-width="3" d="M475.25,-257C475.25,-257 384.25,-257 384.25,-257 378.25,-257 372.25,-251 372.25,-245 372.25,-245 372.25,-153 372.25,-153 372.25,-147 378.25,-141 384.25,-141 384.25,-141 475.25,-141 475.25,-141 481.25,-141 487.25,-147 487.25,-153 487.25,-153 487.25,-245 487.25,-245 487.25,-251 481.25,-257 475.25,-257"/>
<text xml:space="preserve" text-anchor="middle" x="429.75" y="-243.5" font-family="Arial" font-size="10.00">LEAF: Offline SHA256</text>
<text xml:space="preserve" text-anchor="middle" x="429.75" y="-231.5" font-family="Arial" font-size="10.00">Hash Cracking</text>
<text xml:space="preserve" text-anchor="middle" x="429.75" y="-219.5" font-family="Arial" font-size="10.00">&#45;&#45;&#45;</text>
<text xml:space="preserve" text-anchor="middle" x="429.75" y="-207.5" font-family="Arial" font-size="10.00">Vuln: models.py:30</text>
<text xml:space="preserve" text-anchor="middle" x="429.75" y="-195.5" font-family="Arial" font-size="10.00">Prereq: DB Access</text>
<text xml:space="preserve" text-anchor="middle" x="429.75" y="-183.5" font-family="Arial" font-size="10.00">Feasibility: HIGH</text>
<text xml:space="preserve" text-anchor="middle" x="429.75" y="-171.5" font-family="Arial" font-size="10.00">Complexity: MEDIUM</text>
<text xml:space="preserve" text-anchor="middle" x="429.75" y="-159.5" font-family="Arial" font-size="10.00">Cost: MEDIUM (GPU)</text>
<text xml:space="preserve" text-anchor="middle" x="429.75" y="-147.5" font-family="Arial" font-size="10.00">Detection: LOW</text>
</g>
<!-- subgoal1_3&#45;&gt;leaf1_3_1 -->
<g id="edge17" class="edge">
<title>subgoal1_3&#45;&gt;leaf1_3_1</title>
<path fill="none" stroke="black" d="M429.75,-327.51C429.75,-312.95 429.75,-291.22 429.75,-269.8"/>
<polygon fill="black" stroke="black" points="433.25,-269.83 429.75,-259.83 426.25,-269.83 433.25,-269.83"/>
</g>
<!-- and2 -->
<g id="node18" class="node">
<title>and2</title>
<polygon fill="#ffa500" stroke="black" points="932.75,-482 903.49,-464 932.75,-446 962.01,-464 932.75,-482"/>
<text xml:space="preserve" text-anchor="middle" x="932.75" y="-460.7" font-family="Arial" font-size="9.00">AND</text>
</g>
<!-- path2&#45;&gt;and2 -->
<g id="edge18" class="edge">
<title>path2&#45;&gt;and2</title>
<path fill="none" stroke="black" d="M1110.7,-552.27C1098.79,-539.36 1081.16,-522.17 1062.75,-511 1031.77,-492.2 991.97,-479.55 964.62,-472.35"/>
<polygon fill="black" stroke="black" points="965.74,-469.02 955.19,-469.97 964.02,-475.81 965.74,-469.02"/>
</g>
<!-- path2&#45;&gt;post -->
<g id="edge28" class="edge">
<title>path2&#45;&gt;post</title>
<path fill="none" stroke="black" stroke-dasharray="5,2" d="M1136.65,-552.45C1147.01,-536 1162.76,-511 1174.77,-491.94"/>
<polygon fill="black" stroke="black" points="1177.66,-493.93 1180.03,-483.6 1171.74,-490.2 1177.66,-493.93"/>
<text xml:space="preserve" text-anchor="middle" x="1183.7" y="-513.15" font-family="Arial" font-size="8.00">if successful</text>
</g>
<!-- leaf2_1 -->
<g id="node19" class="node">
<title>leaf2_1</title>
<path fill="#90ee90" stroke="#ff0000" stroke-width="2" d="M1043.12,-398C1043.12,-398 954.38,-398 954.38,-398 948.38,-398 942.38,-392 942.38,-386 942.38,-386 942.38,-306 942.38,-306 942.38,-300 948.38,-294 954.38,-294 954.38,-294 1043.12,-294 1043.12,-294 1049.12,-294 1055.12,-300 1055.12,-306 1055.12,-306 1055.12,-386 1055.12,-386 1055.12,-392 1049.12,-398 1043.12,-398"/>
<text xml:space="preserve" text-anchor="middle" x="998.75" y="-384.5" font-family="Arial" font-size="10.00">LEAF: Obtain Valid</text>
<text xml:space="preserve" text-anchor="middle" x="998.75" y="-372.5" font-family="Arial" font-size="10.00">Session ID</text>
<text xml:space="preserve" text-anchor="middle" x="998.75" y="-360.5" font-family="Arial" font-size="10.00">&#45;&#45;&#45;</text>
<text xml:space="preserve" text-anchor="middle" x="998.75" y="-348.5" font-family="Arial" font-size="10.00">Vuln: app.py:102</text>
<text xml:space="preserve" text-anchor="middle" x="998.75" y="-336.5" font-family="Arial" font-size="10.00">Feasibility: HIGH</text>
<text xml:space="preserve" text-anchor="middle" x="998.75" y="-324.5" font-family="Arial" font-size="10.00">Complexity: MEDIUM</text>
<text xml:space="preserve" text-anchor="middle" x="998.75" y="-312.5" font-family="Arial" font-size="10.00">Cost: FREE</text>
<text xml:space="preserve" text-anchor="middle" x="998.75" y="-300.5" font-family="Arial" font-size="10.00">Detection: LOW</text>
</g>
<!-- and2&#45;&gt;leaf2_1 -->
<g id="edge19" class="edge">
<title>and2&#45;&gt;leaf2_1</title>
<path fill="none" stroke="black" d="M940.07,-450.14C945.96,-439.79 954.71,-424.41 963.67,-408.66"/>
<polygon fill="black" stroke="black" points="966.59,-410.59 968.5,-400.17 960.51,-407.13 966.59,-410.59"/>
</g>
<!-- leaf2_2 -->
<g id="node20" class="node">
<title>leaf2_2</title>
<path fill="#90ee90" stroke="#ffa500" stroke-width="3" d="M781.12,-398C781.12,-398 686.38,-398 686.38,-398 680.38,-398 674.38,-392 674.38,-386 674.38,-386 674.38,-306 674.38,-306 674.38,-300 680.38,-294 686.38,-294 686.38,-294 781.12,-294 781.12,-294 787.12,-294 793.12,-300 793.12,-306 793.12,-306 793.12,-386 793.12,-386 793.12,-392 787.12,-398 781.12,-398"/>
<text xml:space="preserve" text-anchor="middle" x="733.75" y="-384.5" font-family="Arial" font-size="10.00">LEAF: Trick Admin into</text>
<text xml:space="preserve" text-anchor="middle" x="733.75" y="-372.5" font-family="Arial" font-size="10.00">Using Attacker Session</text>
<text xml:space="preserve" text-anchor="middle" x="733.75" y="-360.5" font-family="Arial" font-size="10.00">&#45;&#45;&#45;</text>
<text xml:space="preserve" text-anchor="middle" x="733.75" y="-348.5" font-family="Arial" font-size="10.00">Method: Phishing Link</text>
<text xml:space="preserve" text-anchor="middle" x="733.75" y="-336.5" font-family="Arial" font-size="10.00">Feasibility: MEDIUM</text>
<text xml:space="preserve" text-anchor="middle" x="733.75" y="-324.5" font-family="Arial" font-size="10.00">Complexity: MEDIUM</text>
<text xml:space="preserve" text-anchor="middle" x="733.75" y="-312.5" font-family="Arial" font-size="10.00">Cost: FREE</text>
<text xml:space="preserve" text-anchor="middle" x="733.75" y="-300.5" font-family="Arial" font-size="10.00">Detection: LOW</text>
</g>
<!-- and2&#45;&gt;leaf2_2 -->
<g id="edge20" class="edge">
<title>and2&#45;&gt;leaf2_2</title>
<path fill="none" stroke="black" d="M916.26,-455.86C892.81,-445.49 848.51,-425.06 804.08,-398.57"/>
<polygon fill="black" stroke="black" points="805.97,-395.62 795.6,-393.43 802.34,-401.6 805.97,-395.62"/>
</g>
<!-- leaf2_3 -->
<g id="node21" class="node">
<title>leaf2_3</title>
<path fill="#90ee90" stroke="#ff0000" stroke-width="2" d="M912.12,-392C912.12,-392 823.38,-392 823.38,-392 817.38,-392 811.38,-386 811.38,-380 811.38,-380 811.38,-312 811.38,-312 811.38,-306 817.38,-300 823.38,-300 823.38,-300 912.12,-300 912.12,-300 918.12,-300 924.12,-306 924.12,-312 924.12,-312 924.12,-380 924.12,-380 924.12,-386 918.12,-392 912.12,-392"/>
<text xml:space="preserve" text-anchor="middle" x="867.75" y="-378.5" font-family="Arial" font-size="10.00">LEAF: Hijack Session</text>
<text xml:space="preserve" text-anchor="middle" x="867.75" y="-366.5" font-family="Arial" font-size="10.00">After Victim Login</text>
<text xml:space="preserve" text-anchor="middle" x="867.75" y="-354.5" font-family="Arial" font-size="10.00">&#45;&#45;&#45;</text>
<text xml:space="preserve" text-anchor="middle" x="867.75" y="-342.5" font-family="Arial" font-size="10.00">Feasibility: HIGH</text>
<text xml:space="preserve" text-anchor="middle" x="867.75" y="-330.5" font-family="Arial" font-size="10.00">Complexity: LOW</text>
<text xml:space="preserve" text-anchor="middle" x="867.75" y="-318.5" font-family="Arial" font-size="10.00">Cost: FREE</text>
<text xml:space="preserve" text-anchor="middle" x="867.75" y="-306.5" font-family="Arial" font-size="10.00">Detection: MEDIUM</text>
</g>
<!-- and2&#45;&gt;leaf2_3 -->
<g id="edge21" class="edge">
<title>and2&#45;&gt;leaf2_3</title>
<path fill="none" stroke="black" d="M925.55,-450.14C919.02,-438.5 908.93,-420.49 899,-402.77"/>
<polygon fill="black" stroke="black" points="902.2,-401.33 894.26,-394.32 896.1,-404.75 902.2,-401.33"/>
</g>
<!-- and3 -->
<g id="node23" class="node">
<title>and3</title>
<polygon fill="#ffa500" stroke="black" points="1658.75,-482 1629.49,-464 1658.75,-446 1688.01,-464 1658.75,-482"/>
<text xml:space="preserve" text-anchor="middle" x="1658.75" y="-460.7" font-family="Arial" font-size="9.00">AND</text>
</g>
<!-- path3&#45;&gt;and3 -->
<g id="edge22" class="edge">
<title>path3&#45;&gt;and3</title>
<path fill="none" stroke="black" d="M1330.55,-553.15C1415.27,-530.4 1564.25,-490.38 1628.19,-473.21"/>
<polygon fill="black" stroke="black" points="1628.89,-476.64 1637.64,-470.67 1627.08,-469.88 1628.89,-476.64"/>
</g>
<!-- path3&#45;&gt;post -->
<g id="edge29" class="edge">
<title>path3&#45;&gt;post</title>
<path fill="none" stroke="black" stroke-dasharray="5,2" d="M1251.47,-546.24C1239.42,-529.85 1223.35,-507.98 1210.91,-491.06"/>
<polygon fill="black" stroke="black" points="1214.06,-489.44 1205.32,-483.46 1208.42,-493.59 1214.06,-489.44"/>
<text xml:space="preserve" text-anchor="middle" x="1253.56" y="-513.15" font-family="Arial" font-size="8.00">if successful</text>
</g>
<!-- leaf3_1 -->
<g id="node24" class="node">
<title>leaf3_1</title>
<path fill="#90ee90" stroke="#ffa500" stroke-width="3" d="M1703.88,-398C1703.88,-398 1613.62,-398 1613.62,-398 1607.62,-398 1601.62,-392 1601.62,-386 1601.62,-386 1601.62,-306 1601.62,-306 1601.62,-300 1607.62,-294 1613.62,-294 1613.62,-294 1703.88,-294 1703.88,-294 1709.88,-294 1715.88,-300 1715.88,-306 1715.88,-306 1715.88,-386 1715.88,-386 1715.88,-392 1709.88,-398 1703.88,-398"/>
<text xml:space="preserve" text-anchor="middle" x="1658.75" y="-384.5" font-family="Arial" font-size="10.00">LEAF: Identify SQL</text>
<text xml:space="preserve" text-anchor="middle" x="1658.75" y="-372.5" font-family="Arial" font-size="10.00">Injection Point</text>
<text xml:space="preserve" text-anchor="middle" x="1658.75" y="-360.5" font-family="Arial" font-size="10.00">&#45;&#45;&#45;</text>
<text xml:space="preserve" text-anchor="middle" x="1658.75" y="-348.5" font-family="Arial" font-size="10.00">Target: Course Search</text>
<text xml:space="preserve" text-anchor="middle" x="1658.75" y="-336.5" font-family="Arial" font-size="10.00">Feasibility: MEDIUM</text>
<text xml:space="preserve" text-anchor="middle" x="1658.75" y="-324.5" font-family="Arial" font-size="10.00">Complexity: MEDIUM</text>
<text xml:space="preserve" text-anchor="middle" x="1658.75" y="-312.5" font-family="Arial" font-size="10.00">Cost: FREE</text>
<text xml:space="preserve" text-anchor="middle" x="1658.75" y="-300.5" font-family="Arial" font-size="10.00">Detection: MEDIUM</text>
</g>
<!-- and3&#45;&gt;leaf3_1 -->
<g id="edge23" class="edge">
<title>and3&#45;&gt;leaf3_1</title>
<path fill="none" stroke="black" d="M1658.75,-445.63C1658.75,-436.1 1658.75,-423.63 1658.75,-410.77"/>
<polygon fill="black" stroke="black" points="1662.25,-410.95 1658.75,-400.95 1655.25,-410.95 1662.25,-410.95"/>
</g>
<!-- leaf3_2 -->
<g id="node25" class="node">
<title>leaf3_2</title>
<path fill="#90ee90" stroke="#ffa500" stroke-width="4" d="M1863.38,-392C1863.38,-392 1746.12,-392 1746.12,-392 1740.12,-392 1734.12,-386 1734.12,-380 1734.12,-380 1734.12,-312 1734.12,-312 1734.12,-306 1740.12,-300 1746.12,-300 1746.12,-300 1863.38,-300 1863.38,-300 1869.38,-300 1875.38,-306 1875.38,-312 1875.38,-312 1875.38,-380 1875.38,-380 1875.38,-386 1869.38,-392 1863.38,-392"/>
<text xml:space="preserve" text-anchor="middle" x="1804.75" y="-378.5" font-family="Arial" font-size="10.00">LEAF: UNION&#45;based</text>
<text xml:space="preserve" text-anchor="middle" x="1804.75" y="-366.5" font-family="Arial" font-size="10.00">SQL Injection</text>
<text xml:space="preserve" text-anchor="middle" x="1804.75" y="-354.5" font-family="Arial" font-size="10.00">&#45;&#45;&#45;</text>
<text xml:space="preserve" text-anchor="middle" x="1804.75" y="-342.5" font-family="Arial" font-size="10.00">Feasibility: MEDIUM</text>
<text xml:space="preserve" text-anchor="middle" x="1804.75" y="-330.5" font-family="Arial" font-size="10.00">Complexity: MEDIUM&#45;HIGH</text>
<text xml:space="preserve" text-anchor="middle" x="1804.75" y="-318.5" font-family="Arial" font-size="10.00">Cost: FREE</text>
<text xml:space="preserve" text-anchor="middle" x="1804.75" y="-306.5" font-family="Arial" font-size="10.00">Detection: MEDIUM</text>
</g>
<!-- and3&#45;&gt;leaf3_2 -->
<g id="edge24" class="edge">
<title>and3&#45;&gt;leaf3_2</title>
<path fill="none" stroke="black" d="M1670.56,-452.77C1676.81,-447.41 1684.64,-440.78 1691.75,-435 1705.57,-423.76 1720.5,-411.93 1734.85,-400.7"/>
<polygon fill="black" stroke="black" points="1736.76,-403.65 1742.49,-394.74 1732.45,-398.13 1736.76,-403.65"/>
</g>
<!-- leaf3_3 -->
<g id="node26" class="node">
<title>leaf3_3</title>
<path fill="#90ee90" stroke="#ffa500" stroke-width="4" d="M2018.5,-392C2018.5,-392 1905,-392 1905,-392 1899,-392 1893,-386 1893,-380 1893,-380 1893,-312 1893,-312 1893,-306 1899,-300 1905,-300 1905,-300 2018.5,-300 2018.5,-300 2024.5,-300 2030.5,-306 2030.5,-312 2030.5,-312 2030.5,-380 2030.5,-380 2030.5,-386 2024.5,-392 2018.5,-392"/>
<text xml:space="preserve" text-anchor="middle" x="1961.75" y="-378.5" font-family="Arial" font-size="10.00">LEAF: INSERT Admin User</text>
<text xml:space="preserve" text-anchor="middle" x="1961.75" y="-366.5" font-family="Arial" font-size="10.00">via SQL Injection</text>
<text xml:space="preserve" text-anchor="middle" x="1961.75" y="-354.5" font-family="Arial" font-size="10.00">&#45;&#45;&#45;</text>
<text xml:space="preserve" text-anchor="middle" x="1961.75" y="-342.5" font-family="Arial" font-size="10.00">Feasibility: MEDIUM</text>
<text xml:space="preserve" text-anchor="middle" x="1961.75" y="-330.5" font-family="Arial" font-size="10.00">Complexity: HIGH</text>
<text xml:space="preserve" text-anchor="middle" x="1961.75" y="-318.5" font-family="Arial" font-size="10.00">Cost: FREE</text>
<text xml:space="preserve" text-anchor="middle" x="1961.75" y="-306.5" font-family="Arial" font-size="10.00">Detection: HIGH</text>
</g>
<!-- and3&#45;&gt;leaf3_3 -->
<g id="edge25" class="edge">
<title>and3&#45;&gt;leaf3_3</title>
<path fill="none" stroke="black" d="M1669.03,-451.83C1675.08,-445.93 1683.21,-439.09 1691.75,-435 1767.37,-398.79 1801.13,-428.4 1883.53,-397.95"/>
<polygon fill="black" stroke="black" points="1884.65,-401.26 1892.69,-394.36 1882.1,-394.75 1884.65,-401.26"/>
</g>
<!-- leaf3_4 -->
<g id="node27" class="node">
<title>leaf3_4</title>
<path fill="#90ee90" stroke="#ff0000" stroke-width="2" d="M1571.38,-392C1571.38,-392 1490.12,-392 1490.12,-392 1484.12,-392 1478.12,-386 1478.12,-380 1478.12,-380 1478.12,-312 1478.12,-312 1478.12,-306 1484.12,-300 1490.12,-300 1490.12,-300 1571.38,-300 1571.38,-300 1577.38,-300 1583.38,-306 1583.38,-312 1583.38,-312 1583.38,-380 1583.38,-380 1583.38,-386 1577.38,-392 1571.38,-392"/>
<text xml:space="preserve" text-anchor="middle" x="1530.75" y="-378.5" font-family="Arial" font-size="10.00">LEAF: Login with</text>
<text xml:space="preserve" text-anchor="middle" x="1530.75" y="-366.5" font-family="Arial" font-size="10.00">Injected Account</text>
<text xml:space="preserve" text-anchor="middle" x="1530.75" y="-354.5" font-family="Arial" font-size="10.00">&#45;&#45;&#45;</text>
<text xml:space="preserve" text-anchor="middle" x="1530.75" y="-342.5" font-family="Arial" font-size="10.00">Feasibility: HIGH</text>
<text xml:space="preserve" text-anchor="middle" x="1530.75" y="-330.5" font-family="Arial" font-size="10.00">Complexity: LOW</text>
<text xml:space="preserve" text-anchor="middle" x="1530.75" y="-318.5" font-family="Arial" font-size="10.00">Cost: FREE</text>
<text xml:space="preserve" text-anchor="middle" x="1530.75" y="-306.5" font-family="Arial" font-size="10.00">Detection: MEDIUM</text>
</g>
<!-- and3&#45;&gt;leaf3_4 -->
<g id="edge26" class="edge">
<title>and3&#45;&gt;leaf3_4</title>
<path fill="none" stroke="black" d="M1647.39,-452.71C1634.26,-440.81 1611.65,-420.31 1589.81,-400.52"/>
<polygon fill="black" stroke="black" points="1592.38,-398.13 1582.62,-394.01 1587.68,-403.31 1592.38,-398.13"/>
</g>
<!-- leaf_post1 -->
<g id="node29" class="node">
<title>leaf_post1</title>
<path fill="#90ee90" stroke="#ff0000" stroke-width="2" d="M1447.88,-392C1447.88,-392 1351.62,-392 1351.62,-392 1345.62,-392 1339.62,-386 1339.62,-380 1339.62,-380 1339.62,-312 1339.62,-312 1339.62,-306 1345.62,-300 1351.62,-300 1351.62,-300 1447.88,-300 1447.88,-300 1453.88,-300 1459.88,-306 1459.88,-312 1459.88,-312 1459.88,-380 1459.88,-380 1459.88,-386 1453.88,-392 1447.88,-392"/>
<text xml:space="preserve" text-anchor="middle" x="1399.75" y="-378.5" font-family="Arial" font-size="10.00">LEAF: Create Backdoor</text>
<text xml:space="preserve" text-anchor="middle" x="1399.75" y="-366.5" font-family="Arial" font-size="10.00">Admin Account</text>
<text xml:space="preserve" text-anchor="middle" x="1399.75" y="-354.5" font-family="Arial" font-size="10.00">&#45;&#45;&#45;</text>
<text xml:space="preserve" text-anchor="middle" x="1399.75" y="-342.5" font-family="Arial" font-size="10.00">Feasibility: HIGH</text>
<text xml:space="preserve" text-anchor="middle" x="1399.75" y="-330.5" font-family="Arial" font-size="10.00">Complexity: LOW</text>
<text xml:space="preserve" text-anchor="middle" x="1399.75" y="-318.5" font-family="Arial" font-size="10.00">Cost: FREE</text>
<text xml:space="preserve" text-anchor="middle" x="1399.75" y="-306.5" font-family="Arial" font-size="10.00">Detection: MEDIUM</text>
</g>
<!-- post&#45;&gt;leaf_post1 -->
<g id="edge30" class="edge">
<title>post&#45;&gt;leaf_post1</title>
<path fill="none" stroke="black" d="M1234.17,-445.51C1259.74,-434.42 1292.89,-419.07 1328.99,-398.19"/>
<polygon fill="black" stroke="black" points="1330.59,-401.31 1337.43,-393.23 1327.04,-395.28 1330.59,-401.31"/>
</g>
<!-- leaf_post2 -->
<g id="node30" class="node">
<title>leaf_post2</title>
<path fill="#90ee90" stroke="#ff0000" stroke-width="2" d="M1166.38,-392C1166.38,-392 1085.12,-392 1085.12,-392 1079.12,-392 1073.12,-386 1073.12,-380 1073.12,-380 1073.12,-312 1073.12,-312 1073.12,-306 1079.12,-300 1085.12,-300 1085.12,-300 1166.38,-300 1166.38,-300 1172.38,-300 1178.38,-306 1178.38,-312 1178.38,-312 1178.38,-380 1178.38,-380 1178.38,-386 1172.38,-392 1166.38,-392"/>
<text xml:space="preserve" text-anchor="middle" x="1125.75" y="-378.5" font-family="Arial" font-size="10.00">LEAF: Exfiltrate</text>
<text xml:space="preserve" text-anchor="middle" x="1125.75" y="-366.5" font-family="Arial" font-size="10.00">User Database</text>
<text xml:space="preserve" text-anchor="middle" x="1125.75" y="-354.5" font-family="Arial" font-size="10.00">&#45;&#45;&#45;</text>
<text xml:space="preserve" text-anchor="middle" x="1125.75" y="-342.5" font-family="Arial" font-size="10.00">Feasibility: HIGH</text>
<text xml:space="preserve" text-anchor="middle" x="1125.75" y="-330.5" font-family="Arial" font-size="10.00">Complexity: LOW</text>
<text xml:space="preserve" text-anchor="middle" x="1125.75" y="-318.5" font-family="Arial" font-size="10.00">Cost: FREE</text>
<text xml:space="preserve" text-anchor="middle" x="1125.75" y="-306.5" font-family="Arial" font-size="10.00">Detection: MEDIUM</text>
</g>
<!-- post&#45;&gt;leaf_post2 -->
<g id="edge31" class="edge">
<title>post&#45;&gt;leaf_post2</title>
<path fill="none" stroke="black" d="M1181.87,-445.63C1175.29,-434.07 1166.24,-418.17 1157.33,-402.51"/>
<polygon fill="black" stroke="black" points="1160.56,-401.11 1152.57,-394.15 1154.48,-404.57 1160.56,-401.11"/>
</g>
<!-- leaf_post3 -->
<g id="node31" class="node">
<title>leaf_post3</title>
<path fill="#90ee90" stroke="#ff0000" stroke-width="2" d="M1309.12,-392C1309.12,-392 1208.38,-392 1208.38,-392 1202.38,-392 1196.38,-386 1196.38,-380 1196.38,-380 1196.38,-312 1196.38,-312 1196.38,-306 1202.38,-300 1208.38,-300 1208.38,-300 1309.12,-300 1309.12,-300 1315.12,-300 1321.12,-306 1321.12,-312 1321.12,-312 1321.12,-380 1321.12,-380 1321.12,-386 1315.12,-392 1309.12,-392"/>
<text xml:space="preserve" text-anchor="middle" x="1258.75" y="-378.5" font-family="Arial" font-size="10.00">LEAF: Modify Audit Logs</text>
<text xml:space="preserve" text-anchor="middle" x="1258.75" y="-366.5" font-family="Arial" font-size="10.00">to Hide Tracks</text>
<text xml:space="preserve" text-anchor="middle" x="1258.75" y="-354.5" font-family="Arial" font-size="10.00">&#45;&#45;&#45;</text>
<text xml:space="preserve" text-anchor="middle" x="1258.75" y="-342.5" font-family="Arial" font-size="10.00">Feasibility: HIGH</text>
<text xml:space="preserve" text-anchor="middle" x="1258.75" y="-330.5" font-family="Arial" font-size="10.00">Complexity: LOW</text>
<text xml:space="preserve" text-anchor="middle" x="1258.75" y="-318.5" font-family="Arial" font-size="10.00">Cost: FREE</text>
<text xml:space="preserve" text-anchor="middle" x="1258.75" y="-306.5" font-family="Arial" font-size="10.00">Detection: HIGH</text>
</g>
<!-- post&#45;&gt;leaf_post3 -->
<g id="edge32" class="edge">
<title>post&#45;&gt;leaf_post3</title>
<path fill="none" stroke="black" d="M1201.78,-445.63C1208.46,-434.07 1217.65,-418.17 1226.69,-402.51"/>
<polygon fill="black" stroke="black" points="1229.55,-404.55 1231.52,-394.14 1223.49,-401.05 1229.55,-404.55"/>
</g>
<!-- legend_root -->
<g id="node32" class="node">
<title>legend_root</title>
<path fill="#ff6b6b" stroke="black" d="M1807.75,-798.25C1807.75,-798.25 1749.75,-798.25 1749.75,-798.25 1743.75,-798.25 1737.75,-792.25 1737.75,-786.25 1737.75,-786.25 1737.75,-774.25 1737.75,-774.25 1737.75,-768.25 1743.75,-762.25 1749.75,-762.25 1749.75,-762.25 1807.75,-762.25 1807.75,-762.25 1813.75,-762.25 1819.75,-768.25 1819.75,-774.25 1819.75,-774.25 1819.75,-786.25 1819.75,-786.25 1819.75,-792.25 1813.75,-798.25 1807.75,-798.25"/>
<text xml:space="preserve" text-anchor="middle" x="1778.75" y="-782.75" font-family="Arial" font-size="10.00" fill="white">Root Node</text>
<text xml:space="preserve" text-anchor="middle" x="1778.75" y="-770.75" font-family="Arial" font-size="10.00" fill="white">(Ultimate Goal)</text>
</g>
<!-- legend_or -->
<g id="node33" class="node">
<title>legend_or</title>
<polygon fill="#ffd93d" stroke="black" points="1778.75,-703.75 1716.25,-671.75 1778.75,-639.75 1841.25,-671.75 1778.75,-703.75"/>
<text xml:space="preserve" text-anchor="middle" x="1778.75" y="-674.25" font-family="Arial" font-size="10.00">OR Gate</text>
<text xml:space="preserve" text-anchor="middle" x="1778.75" y="-662.25" font-family="Arial" font-size="10.00">(Any Path)</text>
</g>
<!-- legend_root&#45;&gt;legend_or -->
<!-- legend_and -->
<g id="node34" class="node">
<title>legend_and</title>
<polygon fill="#ffa500" stroke="black" points="1778.75,-602.75 1703.5,-570.75 1778.75,-538.75 1854,-570.75 1778.75,-602.75"/>
<text xml:space="preserve" text-anchor="middle" x="1778.75" y="-573.25" font-family="Arial" font-size="10.00">AND Gate</text>
<text xml:space="preserve" text-anchor="middle" x="1778.75" y="-561.25" font-family="Arial" font-size="10.00">(All Required)</text>
</g>
<!-- legend_or&#45;&gt;legend_and -->
<!-- legend_leaf -->
<g id="node35" class="node">
<title>legend_leaf</title>
<path fill="#90ee90" stroke="black" d="M1810.38,-482C1810.38,-482 1747.12,-482 1747.12,-482 1741.12,-482 1735.12,-476 1735.12,-470 1735.12,-470 1735.12,-458 1735.12,-458 1735.12,-452 1741.12,-446 1747.12,-446 1747.12,-446 1810.38,-446 1810.38,-446 1816.38,-446 1822.38,-452 1822.38,-458 1822.38,-458 1822.38,-470 1822.38,-470 1822.38,-476 1816.38,-482 1810.38,-482"/>
<text xml:space="preserve" text-anchor="middle" x="1778.75" y="-466.5" font-family="Arial" font-size="10.00">Leaf Node</text>
<text xml:space="preserve" text-anchor="middle" x="1778.75" y="-454.5" font-family="Arial" font-size="10.00">(Specific Action)</text>
</g>
<!-- legend_and&#45;&gt;legend_leaf -->
</g>
</svg>
