<?xml version="1.0" encoding="UTF-8" standalone="no"?>
<!DOCTYPE svg PUBLIC "-//W3C//DTD SVG 1.1//EN"
 "http://www.w3.org/Graphics/SVG/1.1/DTD/svg11.dtd">
<!-- Generated by graphviz version 14.0.2 (20251019.1705)
 -->
<!-- Title: DefacementDoS Pages: 1 -->
<svg width="1642pt" height="585pt"
 viewBox="0.00 0.00 1642.00 585.00" xmlns="http://www.w3.org/2000/svg" xmlns:xlink="http://www.w3.org/1999/xlink">
<g id="graph0" class="graph" transform="scale(1 1) rotate(0) translate(4 581.25)">
<title>DefacementDoS</title>
<polygon fill="white" stroke="none" points="-4,4 -4,-581.25 1638,-581.25 1638,4 -4,4"/>
<!-- root -->
<g id="node1" class="node">
<title>root</title>
<path fill="#ff6b6b" stroke="black" stroke-width="3" d="M965.38,-577.25C965.38,-577.25 767.88,-577.25 767.88,-577.25 761.88,-577.25 755.88,-571.25 755.88,-565.25 755.88,-565.25 755.88,-496 755.88,-496 755.88,-490 761.88,-484 767.88,-484 767.88,-484 965.38,-484 965.38,-484 971.38,-484 977.38,-490 977.38,-496 977.38,-496 977.38,-565.25 977.38,-565.25 977.38,-571.25 971.38,-577.25 965.38,-577.25"/>
<text xml:space="preserve" text-anchor="middle" x="866.62" y="-561.85" font-family="Arial" font-size="12.00" fill="white">ROOT:</text>
<text xml:space="preserve" text-anchor="middle" x="866.62" y="-547.6" font-family="Arial" font-size="12.00" fill="white">Disrupt Service and</text>
<text xml:space="preserve" text-anchor="middle" x="866.62" y="-533.35" font-family="Arial" font-size="12.00" fill="white">Deface Website</text>
<text xml:space="preserve" text-anchor="middle" x="866.62" y="-505.1" font-family="Arial" font-size="12.00" fill="white">Impact: HIGH</text>
<text xml:space="preserve" text-anchor="middle" x="866.62" y="-490.85" font-family="Arial" font-size="12.00" fill="white">Threat Actor: TA&#45;06 (Vandal/Hacktivist)</text>
</g>
<!-- or_main -->
<g id="node2" class="node">
<title>or_main</title>
<polygon fill="#ffd93d" stroke="black" points="866.62,-448 839.62,-430 866.62,-412 893.62,-430 866.62,-448"/>
<text xml:space="preserve" text-anchor="middle" x="866.62" y="-426.5" font-family="Arial" font-size="10.00">OR</text>
</g>
<!-- root&#45;&gt;or_main -->
<g id="edge1" class="edge">
<title>root&#45;&gt;or_main</title>
<path fill="none" stroke="black" d="M866.62,-482.62C866.62,-474.74 866.62,-466.78 866.62,-459.55"/>
<polygon fill="black" stroke="black" points="870.13,-459.72 866.63,-449.72 863.13,-459.72 870.13,-459.72"/>
</g>
<!-- path1 -->
<g id="node3" class="node">
<title>path1</title>
<path fill="#ffa500" stroke="black" d="M774.88,-376C774.88,-376 682.38,-376 682.38,-376 676.38,-376 670.38,-370 670.38,-364 670.38,-364 670.38,-352 670.38,-352 670.38,-346 676.38,-340 682.38,-340 682.38,-340 774.88,-340 774.88,-340 780.88,-340 786.88,-346 786.88,-352 786.88,-352 786.88,-364 786.88,-364 786.88,-370 780.88,-376 774.88,-376"/>
<text xml:space="preserve" text-anchor="middle" x="728.62" y="-361.05" font-family="Arial" font-size="11.00">Path 1:</text>
<text xml:space="preserve" text-anchor="middle" x="728.62" y="-347.55" font-family="Arial" font-size="11.00">Website Defacement</text>
</g>
<!-- or_main&#45;&gt;path1 -->
<g id="edge2" class="edge">
<title>or_main&#45;&gt;path1</title>
<path fill="none" stroke="black" d="M851.86,-421.51C833.18,-412.03 800.17,-395.29 773.01,-381.51"/>
<polygon fill="black" stroke="black" points="774.78,-378.49 764.28,-377.09 771.62,-384.73 774.78,-378.49"/>
</g>
<!-- path2 -->
<g id="node4" class="node">
<title>path2</title>
<path fill="#ffa500" stroke="black" d="M916.62,-376C916.62,-376 816.62,-376 816.62,-376 810.62,-376 804.62,-370 804.62,-364 804.62,-364 804.62,-352 804.62,-352 804.62,-346 810.62,-340 816.62,-340 816.62,-340 916.62,-340 916.62,-340 922.62,-340 928.62,-346 928.62,-352 928.62,-352 928.62,-364 928.62,-364 928.62,-370 922.62,-376 916.62,-376"/>
<text xml:space="preserve" text-anchor="middle" x="866.62" y="-361.05" font-family="Arial" font-size="11.00">Path 2:</text>
<text xml:space="preserve" text-anchor="middle" x="866.62" y="-347.55" font-family="Arial" font-size="11.00">Application&#45;Layer DoS</text>
</g>
<!-- or_main&#45;&gt;path2 -->
<g id="edge3" class="edge">
<title>or_main&#45;&gt;path2</title>
<path fill="none" stroke="black" d="M866.62,-411.7C866.62,-404.41 866.62,-395.73 866.62,-387.54"/>
<polygon fill="black" stroke="black" points="870.13,-387.62 866.63,-377.62 863.13,-387.62 870.13,-387.62"/>
</g>
<!-- path3 -->
<g id="node5" class="node">
<title>path3</title>
<path fill="#ffa500" stroke="black" d="M1054.75,-376C1054.75,-376 958.5,-376 958.5,-376 952.5,-376 946.5,-370 946.5,-364 946.5,-364 946.5,-352 946.5,-352 946.5,-346 952.5,-340 958.5,-340 958.5,-340 1054.75,-340 1054.75,-340 1060.75,-340 1066.75,-346 1066.75,-352 1066.75,-352 1066.75,-364 1066.75,-364 1066.75,-370 1060.75,-376 1054.75,-376"/>
<text xml:space="preserve" text-anchor="middle" x="1006.62" y="-361.05" font-family="Arial" font-size="11.00">Path 3:</text>
<text xml:space="preserve" text-anchor="middle" x="1006.62" y="-347.55" font-family="Arial" font-size="11.00">Database Destruction</text>
</g>
<!-- or_main&#45;&gt;path3 -->
<g id="edge4" class="edge">
<title>or_main&#45;&gt;path3</title>
<path fill="none" stroke="black" d="M881.61,-421.51C900.56,-412.03 934.05,-395.29 961.6,-381.51"/>
<polygon fill="black" stroke="black" points="963.09,-384.68 970.47,-377.08 959.96,-378.42 963.09,-384.68"/>
</g>
<!-- and_p1 -->
<g id="node6" class="node">
<title>and_p1</title>
<polygon fill="#ffa500" stroke="black" points="411.62,-304 379.52,-286 411.62,-268 443.73,-286 411.62,-304"/>
<text xml:space="preserve" text-anchor="middle" x="411.62" y="-282.5" font-family="Arial" font-size="10.00">AND</text>
</g>
<!-- path1&#45;&gt;and_p1 -->
<g id="edge5" class="edge">
<title>path1&#45;&gt;and_p1</title>
<path fill="none" stroke="black" d="M670.11,-344.08C603.92,-329.46 498.4,-306.16 444.96,-294.36"/>
<polygon fill="black" stroke="black" points="445.77,-290.96 435.25,-292.22 444.26,-297.79 445.77,-290.96"/>
</g>
<!-- impact -->
<g id="node24" class="node">
<title>impact</title>
<path fill="none" stroke="black" d="M850.25,-304C850.25,-304 745,-304 745,-304 739,-304 733,-298 733,-292 733,-292 733,-280 733,-280 733,-274 739,-268 745,-268 745,-268 850.25,-268 850.25,-268 856.25,-268 862.25,-274 862.25,-280 862.25,-280 862.25,-292 862.25,-292 862.25,-298 856.25,-304 850.25,-304"/>
<text xml:space="preserve" text-anchor="middle" x="797.62" y="-282.5" font-family="Arial" font-size="10.00">Service Disruption Impact</text>
</g>
<!-- path1&#45;&gt;impact -->
<g id="edge23" class="edge">
<title>path1&#45;&gt;impact</title>
<path fill="none" stroke="#cc0000" stroke-dasharray="5,2" d="M745.68,-339.7C753.87,-331.39 763.84,-321.28 772.84,-312.14"/>
<polygon fill="#cc0000" stroke="#cc0000" points="775.18,-314.76 779.7,-305.18 770.19,-309.85 775.18,-314.76"/>
</g>
<!-- and_p2 -->
<g id="node11" class="node">
<title>and_p2</title>
<polygon fill="#ffa500" stroke="black" points="960.62,-304 928.52,-286 960.62,-268 992.73,-286 960.62,-304"/>
<text xml:space="preserve" text-anchor="middle" x="960.62" y="-282.5" font-family="Arial" font-size="10.00">AND</text>
</g>
<!-- path2&#45;&gt;and_p2 -->
<g id="edge10" class="edge">
<title>path2&#45;&gt;and_p2</title>
<path fill="none" stroke="black" d="M889.86,-339.7C904.67,-328.67 923.74,-314.46 938.36,-303.58"/>
<polygon fill="black" stroke="black" points="940.08,-306.66 946.01,-297.88 935.9,-301.05 940.08,-306.66"/>
</g>
<!-- path2&#45;&gt;impact -->
<g id="edge24" class="edge">
<title>path2&#45;&gt;impact</title>
<path fill="none" stroke="#cc0000" stroke-dasharray="5,2" d="M849.57,-339.7C841.38,-331.39 831.41,-321.28 822.41,-312.14"/>
<polygon fill="#cc0000" stroke="#cc0000" points="825.06,-309.85 815.55,-305.18 820.07,-314.76 825.06,-309.85"/>
</g>
<!-- and_p3 -->
<g id="node19" class="node">
<title>and_p3</title>
<polygon fill="#ffa500" stroke="black" points="1284.62,-304 1252.52,-286 1284.62,-268 1316.73,-286 1284.62,-304"/>
<text xml:space="preserve" text-anchor="middle" x="1284.62" y="-282.5" font-family="Arial" font-size="10.00">AND</text>
</g>
<!-- path3&#45;&gt;and_p3 -->
<g id="edge18" class="edge">
<title>path3&#45;&gt;and_p3</title>
<path fill="none" stroke="black" d="M1066.95,-341.81C1123.8,-327.5 1206.83,-306.59 1252.15,-295.18"/>
<polygon fill="black" stroke="black" points="1252.78,-298.63 1261.62,-292.79 1251.07,-291.84 1252.78,-298.63"/>
</g>
<!-- path3&#45;&gt;impact -->
<g id="edge25" class="edge">
<title>path3&#45;&gt;impact</title>
<path fill="none" stroke="#cc0000" stroke-dasharray="5,2" d="M954.42,-339.52C925.89,-329.96 890.34,-318.05 860.31,-308"/>
<polygon fill="#cc0000" stroke="#cc0000" points="861.55,-304.72 850.96,-304.86 859.33,-311.36 861.55,-304.72"/>
</g>
<!-- leaf1_1 -->
<g id="node7" class="node">
<title>leaf1_1</title>
<path fill="#90ee90" stroke="#ffa500" stroke-width="3" d="M471.75,-226C471.75,-226 351.5,-226 351.5,-226 345.5,-226 339.5,-220 339.5,-214 339.5,-214 339.5,-158 339.5,-158 339.5,-152 345.5,-146 351.5,-146 351.5,-146 471.75,-146 471.75,-146 477.75,-146 483.75,-152 483.75,-158 483.75,-158 483.75,-214 483.75,-214 483.75,-220 477.75,-226 471.75,-226"/>
<text xml:space="preserve" text-anchor="middle" x="411.62" y="-212.5" font-family="Arial" font-size="10.00">LEAF: Gain Admin Access</text>
<text xml:space="preserve" text-anchor="middle" x="411.62" y="-200.5" font-family="Arial" font-size="10.00">(See Tree 1)</text>
<text xml:space="preserve" text-anchor="middle" x="411.62" y="-188.5" font-family="Arial" font-size="10.00">&#45;&#45;&#45;</text>
<text xml:space="preserve" text-anchor="middle" x="411.62" y="-176.5" font-family="Arial" font-size="10.00">Required for template access</text>
<text xml:space="preserve" text-anchor="middle" x="411.62" y="-164.5" font-family="Arial" font-size="10.00">Feasibility: MEDIUM</text>
<text xml:space="preserve" text-anchor="middle" x="411.62" y="-152.5" font-family="Arial" font-size="10.00">Complexity: MEDIUM</text>
</g>
<!-- and_p1&#45;&gt;leaf1_1 -->
<g id="edge6" class="edge">
<title>and_p1&#45;&gt;leaf1_1</title>
<path fill="none" stroke="black" d="M411.62,-267.48C411.62,-259.23 411.62,-248.92 411.62,-238.46"/>
<polygon fill="black" stroke="black" points="415.13,-238.65 411.63,-228.65 408.13,-238.65 415.13,-238.65"/>
</g>
<!-- leaf1_2 -->
<g id="node8" class="node">
<title>leaf1_2</title>
<path fill="#90ee90" stroke="#ff0000" stroke-width="2" stroke-dasharray="5,2" d="M635.88,-226C635.88,-226 513.38,-226 513.38,-226 507.38,-226 501.38,-220 501.38,-214 501.38,-214 501.38,-158 501.38,-158 501.38,-152 507.38,-146 513.38,-146 513.38,-146 635.88,-146 635.88,-146 641.88,-146 647.88,-152 647.88,-158 647.88,-158 647.88,-214 647.88,-214 647.88,-220 641.88,-226 635.88,-226"/>
<text xml:space="preserve" text-anchor="middle" x="574.62" y="-212.5" font-family="Arial" font-size="10.00">LEAF: Access Base Template</text>
<text xml:space="preserve" text-anchor="middle" x="574.62" y="-200.5" font-family="Arial" font-size="10.00">(templates/base.html)</text>
<text xml:space="preserve" text-anchor="middle" x="574.62" y="-188.5" font-family="Arial" font-size="10.00">&#45;&#45;&#45;</text>
<text xml:space="preserve" text-anchor="middle" x="574.62" y="-176.5" font-family="Arial" font-size="10.00">Feasibility: HIGH</text>
<text xml:space="preserve" text-anchor="middle" x="574.62" y="-164.5" font-family="Arial" font-size="10.00">Complexity: LOW</text>
<text xml:space="preserve" text-anchor="middle" x="574.62" y="-152.5" font-family="Arial" font-size="10.00">Detection: HIGH</text>
</g>
<!-- and_p1&#45;&gt;leaf1_2 -->
<g id="edge7" class="edge">
<title>and_p1&#45;&gt;leaf1_2</title>
<path fill="none" stroke="black" d="M426.67,-275.96C443.31,-265.95 471.38,-249.08 498.63,-232.69"/>
<polygon fill="black" stroke="black" points="500.15,-235.86 506.91,-227.71 496.54,-229.86 500.15,-235.86"/>
</g>
<!-- leaf1_3 -->
<g id="node9" class="node">
<title>leaf1_3</title>
<path fill="#90ee90" stroke="#ff0000" stroke-width="2" stroke-dasharray="5,2" d="M153.25,-232C153.25,-232 12,-232 12,-232 6,-232 0,-226 0,-220 0,-220 0,-152 0,-152 0,-146 6,-140 12,-140 12,-140 153.25,-140 153.25,-140 159.25,-140 165.25,-146 165.25,-152 165.25,-152 165.25,-220 165.25,-220 165.25,-226 159.25,-232 153.25,-232"/>
<text xml:space="preserve" text-anchor="middle" x="82.62" y="-218.5" font-family="Arial" font-size="10.00">LEAF: Inject Defacement</text>
<text xml:space="preserve" text-anchor="middle" x="82.62" y="-206.5" font-family="Arial" font-size="10.00">Content + Malicious JS</text>
<text xml:space="preserve" text-anchor="middle" x="82.62" y="-194.5" font-family="Arial" font-size="10.00">&#45;&#45;&#45;</text>
<text xml:space="preserve" text-anchor="middle" x="82.62" y="-182.5" font-family="Arial" font-size="10.00">Example: Redirect to attacker site</text>
<text xml:space="preserve" text-anchor="middle" x="82.62" y="-170.5" font-family="Arial" font-size="10.00">Feasibility: HIGH</text>
<text xml:space="preserve" text-anchor="middle" x="82.62" y="-158.5" font-family="Arial" font-size="10.00">Complexity: LOW</text>
<text xml:space="preserve" text-anchor="middle" x="82.62" y="-146.5" font-family="Arial" font-size="10.00">Detection: IMMEDIATE</text>
</g>
<!-- and_p1&#45;&gt;leaf1_3 -->
<g id="edge8" class="edge">
<title>and_p1&#45;&gt;leaf1_3</title>
<path fill="none" stroke="black" d="M386.87,-281.43C345.04,-274.99 257.75,-259.77 176.86,-232.55"/>
<polygon fill="black" stroke="black" points="178.03,-229.26 167.43,-229.31 175.75,-235.87 178.03,-229.26"/>
</g>
<!-- leaf1_4 -->
<g id="node10" class="node">
<title>leaf1_4</title>
<path fill="#90ee90" stroke="#ff0000" stroke-width="2" d="M309.75,-226C309.75,-226 195.5,-226 195.5,-226 189.5,-226 183.5,-220 183.5,-214 183.5,-214 183.5,-158 183.5,-158 183.5,-152 189.5,-146 195.5,-146 195.5,-146 309.75,-146 309.75,-146 315.75,-146 321.75,-152 321.75,-158 321.75,-158 321.75,-214 321.75,-214 321.75,-220 315.75,-226 309.75,-226"/>
<text xml:space="preserve" text-anchor="middle" x="252.62" y="-212.5" font-family="Arial" font-size="10.00">LEAF: Screenshot and</text>
<text xml:space="preserve" text-anchor="middle" x="252.62" y="-200.5" font-family="Arial" font-size="10.00">Publicize on Social Media</text>
<text xml:space="preserve" text-anchor="middle" x="252.62" y="-188.5" font-family="Arial" font-size="10.00">&#45;&#45;&#45;</text>
<text xml:space="preserve" text-anchor="middle" x="252.62" y="-176.5" font-family="Arial" font-size="10.00">Purpose: Maximize visibility</text>
<text xml:space="preserve" text-anchor="middle" x="252.62" y="-164.5" font-family="Arial" font-size="10.00">Feasibility: HIGH</text>
<text xml:space="preserve" text-anchor="middle" x="252.62" y="-152.5" font-family="Arial" font-size="10.00">Detection: NONE</text>
</g>
<!-- and_p1&#45;&gt;leaf1_4 -->
<g id="edge9" class="edge">
<title>and_p1&#45;&gt;leaf1_4</title>
<path fill="none" stroke="black" d="M396.95,-275.96C380.79,-266 353.58,-249.22 327.11,-232.91"/>
<polygon fill="black" stroke="black" points="329.05,-229.99 318.7,-227.73 325.38,-235.95 329.05,-229.99"/>
</g>
<!-- sg2_1 -->
<g id="node12" class="node">
<title>sg2_1</title>
<path fill="none" stroke="black" d="M941.75,-204C941.75,-204 863.5,-204 863.5,-204 857.5,-204 851.5,-198 851.5,-192 851.5,-192 851.5,-180 851.5,-180 851.5,-174 857.5,-168 863.5,-168 863.5,-168 941.75,-168 941.75,-168 947.75,-168 953.75,-174 953.75,-180 953.75,-180 953.75,-192 953.75,-192 953.75,-198 947.75,-204 941.75,-204"/>
<text xml:space="preserve" text-anchor="middle" x="902.62" y="-188.5" font-family="Arial" font-size="10.00">Identify Resource&#45;</text>
<text xml:space="preserve" text-anchor="middle" x="902.62" y="-176.5" font-family="Arial" font-size="10.00">Intensive Endpoints</text>
</g>
<!-- and_p2&#45;&gt;sg2_1 -->
<g id="edge11" class="edge">
<title>and_p2&#45;&gt;sg2_1</title>
<path fill="none" stroke="black" d="M953.04,-272.19C944.39,-257.57 929.99,-233.23 918.79,-214.31"/>
<polygon fill="black" stroke="black" points="921.83,-212.57 913.72,-205.75 915.8,-216.14 921.83,-212.57"/>
</g>
<!-- sg2_2 -->
<g id="node13" class="node">
<title>sg2_2</title>
<path fill="none" stroke="black" d="M1053.25,-204C1053.25,-204 984,-204 984,-204 978,-204 972,-198 972,-192 972,-192 972,-180 972,-180 972,-174 978,-168 984,-168 984,-168 1053.25,-168 1053.25,-168 1059.25,-168 1065.25,-174 1065.25,-180 1065.25,-180 1065.25,-192 1065.25,-192 1065.25,-198 1059.25,-204 1053.25,-204"/>
<text xml:space="preserve" text-anchor="middle" x="1018.62" y="-188.5" font-family="Arial" font-size="10.00">Automate High&#45;</text>
<text xml:space="preserve" text-anchor="middle" x="1018.62" y="-176.5" font-family="Arial" font-size="10.00">Volume Requests</text>
</g>
<!-- and_p2&#45;&gt;sg2_2 -->
<g id="edge12" class="edge">
<title>and_p2&#45;&gt;sg2_2</title>
<path fill="none" stroke="black" d="M968.21,-272.19C976.86,-257.57 991.26,-233.23 1002.46,-214.31"/>
<polygon fill="black" stroke="black" points="1005.45,-216.14 1007.53,-205.75 999.42,-212.57 1005.45,-216.14"/>
</g>
<!-- leaf2_5 -->
<g id="node18" class="node">
<title>leaf2_5</title>
<path fill="#90ee90" stroke="#ff0000" stroke-width="2" stroke-dasharray="5,2" d="M1197.75,-226C1197.75,-226 1095.5,-226 1095.5,-226 1089.5,-226 1083.5,-220 1083.5,-214 1083.5,-214 1083.5,-158 1083.5,-158 1083.5,-152 1089.5,-146 1095.5,-146 1095.5,-146 1197.75,-146 1197.75,-146 1203.75,-146 1209.75,-152 1209.75,-158 1209.75,-158 1209.75,-214 1209.75,-214 1209.75,-220 1203.75,-226 1197.75,-226"/>
<text xml:space="preserve" text-anchor="middle" x="1146.62" y="-212.5" font-family="Arial" font-size="10.00">LEAF: Launch During</text>
<text xml:space="preserve" text-anchor="middle" x="1146.62" y="-200.5" font-family="Arial" font-size="10.00">Major Tournament</text>
<text xml:space="preserve" text-anchor="middle" x="1146.62" y="-188.5" font-family="Arial" font-size="10.00">&#45;&#45;&#45;</text>
<text xml:space="preserve" text-anchor="middle" x="1146.62" y="-176.5" font-family="Arial" font-size="10.00">Timing: Maximum impact</text>
<text xml:space="preserve" text-anchor="middle" x="1146.62" y="-164.5" font-family="Arial" font-size="10.00">Feasibility: HIGH</text>
<text xml:space="preserve" text-anchor="middle" x="1146.62" y="-152.5" font-family="Arial" font-size="10.00">Detection: IMMEDIATE</text>
</g>
<!-- and_p2&#45;&gt;leaf2_5 -->
<g id="edge17" class="edge">
<title>and_p2&#45;&gt;leaf2_5</title>
<path fill="none" stroke="black" d="M978.34,-277.58C999.27,-268.63 1035.23,-252.74 1073.81,-232.26"/>
<polygon fill="black" stroke="black" points="1075.19,-235.5 1082.34,-227.68 1071.87,-229.33 1075.19,-235.5"/>
</g>
<!-- leaf2_1 -->
<g id="node14" class="node">
<title>leaf2_1</title>
<path fill="#90ee90" stroke="#ff0000" stroke-width="2" d="M779.62,-92C779.62,-92 649.62,-92 649.62,-92 643.62,-92 637.62,-86 637.62,-80 637.62,-80 637.62,-24 637.62,-24 637.62,-18 643.62,-12 649.62,-12 649.62,-12 779.62,-12 779.62,-12 785.62,-12 791.62,-18 791.62,-24 791.62,-24 791.62,-80 791.62,-80 791.62,-86 785.62,-92 779.62,-92"/>
<text xml:space="preserve" text-anchor="middle" x="714.62" y="-78.5" font-family="Arial" font-size="10.00">LEAF: Target Score</text>
<text xml:space="preserve" text-anchor="middle" x="714.62" y="-66.5" font-family="Arial" font-size="10.00">Submission (POST /round/new)</text>
<text xml:space="preserve" text-anchor="middle" x="714.62" y="-54.5" font-family="Arial" font-size="10.00">&#45;&#45;&#45;</text>
<text xml:space="preserve" text-anchor="middle" x="714.62" y="-42.5" font-family="Arial" font-size="10.00">Vuln: No rate limiting</text>
<text xml:space="preserve" text-anchor="middle" x="714.62" y="-30.5" font-family="Arial" font-size="10.00">Feasibility: HIGH</text>
<text xml:space="preserve" text-anchor="middle" x="714.62" y="-18.5" font-family="Arial" font-size="10.00">Complexity: LOW</text>
</g>
<!-- sg2_1&#45;&gt;leaf2_1 -->
<g id="edge13" class="edge">
<title>sg2_1&#45;&gt;leaf2_1</title>
<path fill="none" stroke="black" d="M880.02,-167.65C868.85,-159.19 855.13,-148.93 842.62,-140 823.83,-126.57 803.22,-112.35 784.14,-99.39"/>
<polygon fill="black" stroke="black" points="786.1,-96.49 775.86,-93.78 782.18,-102.29 786.1,-96.49"/>
</g>
<!-- leaf2_2 -->
<g id="node15" class="node">
<title>leaf2_2</title>
<path fill="#90ee90" stroke="#ff0000" stroke-width="2" d="M937.88,-92C937.88,-92 821.38,-92 821.38,-92 815.38,-92 809.38,-86 809.38,-80 809.38,-80 809.38,-24 809.38,-24 809.38,-18 815.38,-12 821.38,-12 821.38,-12 937.88,-12 937.88,-12 943.88,-12 949.88,-18 949.88,-24 949.88,-24 949.88,-80 949.88,-80 949.88,-86 943.88,-92 937.88,-92"/>
<text xml:space="preserve" text-anchor="middle" x="879.62" y="-78.5" font-family="Arial" font-size="10.00">LEAF: Target Login Endpoint</text>
<text xml:space="preserve" text-anchor="middle" x="879.62" y="-66.5" font-family="Arial" font-size="10.00">(Password Hashing Cost)</text>
<text xml:space="preserve" text-anchor="middle" x="879.62" y="-54.5" font-family="Arial" font-size="10.00">&#45;&#45;&#45;</text>
<text xml:space="preserve" text-anchor="middle" x="879.62" y="-42.5" font-family="Arial" font-size="10.00">Vuln: app.py:86&#45;116</text>
<text xml:space="preserve" text-anchor="middle" x="879.62" y="-30.5" font-family="Arial" font-size="10.00">Feasibility: HIGH</text>
<text xml:space="preserve" text-anchor="middle" x="879.62" y="-18.5" font-family="Arial" font-size="10.00">Complexity: LOW</text>
</g>
<!-- sg2_1&#45;&gt;leaf2_2 -->
<g id="edge14" class="edge">
<title>sg2_1&#45;&gt;leaf2_2</title>
<path fill="none" stroke="black" d="M899.62,-167.74C896.8,-151.54 892.43,-126.49 888.5,-103.92"/>
<polygon fill="black" stroke="black" points="891.98,-103.49 886.81,-94.24 885.08,-104.69 891.98,-103.49"/>
</g>
<!-- leaf2_3 -->
<g id="node16" class="node">
<title>leaf2_3</title>
<path fill="#90ee90" stroke="#ff0000" stroke-width="2" stroke-dasharray="5,2" d="M1075.75,-104C1075.75,-104 979.5,-104 979.5,-104 973.5,-104 967.5,-98 967.5,-92 967.5,-92 967.5,-12 967.5,-12 967.5,-6 973.5,0 979.5,0 979.5,0 1075.75,0 1075.75,0 1081.75,0 1087.75,-6 1087.75,-12 1087.75,-12 1087.75,-92 1087.75,-92 1087.75,-98 1081.75,-104 1075.75,-104"/>
<text xml:space="preserve" text-anchor="middle" x="1027.62" y="-90.5" font-family="Arial" font-size="10.00">LEAF: Write DoS Script</text>
<text xml:space="preserve" text-anchor="middle" x="1027.62" y="-78.5" font-family="Arial" font-size="10.00">(100&#45;1000 req/sec)</text>
<text xml:space="preserve" text-anchor="middle" x="1027.62" y="-66.5" font-family="Arial" font-size="10.00">&#45;&#45;&#45;</text>
<text xml:space="preserve" text-anchor="middle" x="1027.62" y="-54.5" font-family="Arial" font-size="10.00">Tool: Python + asyncio</text>
<text xml:space="preserve" text-anchor="middle" x="1027.62" y="-42.5" font-family="Arial" font-size="10.00">Feasibility: HIGH</text>
<text xml:space="preserve" text-anchor="middle" x="1027.62" y="-30.5" font-family="Arial" font-size="10.00">Complexity: LOW</text>
<text xml:space="preserve" text-anchor="middle" x="1027.62" y="-18.5" font-family="Arial" font-size="10.00">Cost: FREE</text>
<text xml:space="preserve" text-anchor="middle" x="1027.62" y="-6.5" font-family="Arial" font-size="10.00">Detection: HIGH</text>
</g>
<!-- sg2_2&#45;&gt;leaf2_3 -->
<g id="edge15" class="edge">
<title>sg2_2&#45;&gt;leaf2_3</title>
<path fill="none" stroke="black" d="M1019.8,-167.74C1020.71,-154.43 1022.03,-135.13 1023.32,-116.15"/>
<polygon fill="black" stroke="black" points="1026.81,-116.47 1023.99,-106.26 1019.82,-116 1026.81,-116.47"/>
</g>
<!-- leaf2_4 -->
<g id="node17" class="node">
<title>leaf2_4</title>
<path fill="#90ee90" stroke="#ffa500" stroke-width="3" stroke-dasharray="5,2" d="M1245.12,-92C1245.12,-92 1118.12,-92 1118.12,-92 1112.12,-92 1106.12,-86 1106.12,-80 1106.12,-80 1106.12,-24 1106.12,-24 1106.12,-18 1112.12,-12 1118.12,-12 1118.12,-12 1245.12,-12 1245.12,-12 1251.12,-12 1257.12,-18 1257.12,-24 1257.12,-24 1257.12,-80 1257.12,-80 1257.12,-86 1251.12,-92 1245.12,-92"/>
<text xml:space="preserve" text-anchor="middle" x="1181.62" y="-78.5" font-family="Arial" font-size="10.00">LEAF: Exhaust Server</text>
<text xml:space="preserve" text-anchor="middle" x="1181.62" y="-66.5" font-family="Arial" font-size="10.00">Resources (CPU/Memory)</text>
<text xml:space="preserve" text-anchor="middle" x="1181.62" y="-54.5" font-family="Arial" font-size="10.00">&#45;&#45;&#45;</text>
<text xml:space="preserve" text-anchor="middle" x="1181.62" y="-42.5" font-family="Arial" font-size="10.00">Symptom: 500 errors, timeouts</text>
<text xml:space="preserve" text-anchor="middle" x="1181.62" y="-30.5" font-family="Arial" font-size="10.00">Feasibility: MEDIUM</text>
<text xml:space="preserve" text-anchor="middle" x="1181.62" y="-18.5" font-family="Arial" font-size="10.00">Detection: IMMEDIATE</text>
</g>
<!-- sg2_2&#45;&gt;leaf2_4 -->
<g id="edge16" class="edge">
<title>sg2_2&#45;&gt;leaf2_4</title>
<path fill="none" stroke="black" d="M1039.93,-167.74C1060.97,-150.71 1094.1,-123.88 1123.03,-100.45"/>
<polygon fill="black" stroke="black" points="1125.11,-103.27 1130.68,-94.25 1120.71,-97.83 1125.11,-103.27"/>
</g>
<!-- leaf3_1 -->
<g id="node20" class="node">
<title>leaf3_1</title>
<path fill="#90ee90" stroke="#ffa500" stroke-width="3" d="M1329,-220C1329,-220 1240.25,-220 1240.25,-220 1234.25,-220 1228.25,-214 1228.25,-208 1228.25,-208 1228.25,-164 1228.25,-164 1228.25,-158 1234.25,-152 1240.25,-152 1240.25,-152 1329,-152 1329,-152 1335,-152 1341,-158 1341,-164 1341,-164 1341,-208 1341,-208 1341,-214 1335,-220 1329,-220"/>
<text xml:space="preserve" text-anchor="middle" x="1284.62" y="-206.5" font-family="Arial" font-size="10.00">LEAF: Gain Admin or</text>
<text xml:space="preserve" text-anchor="middle" x="1284.62" y="-194.5" font-family="Arial" font-size="10.00">SQL Injection Access</text>
<text xml:space="preserve" text-anchor="middle" x="1284.62" y="-182.5" font-family="Arial" font-size="10.00">&#45;&#45;&#45;</text>
<text xml:space="preserve" text-anchor="middle" x="1284.62" y="-170.5" font-family="Arial" font-size="10.00">Feasibility: MEDIUM</text>
<text xml:space="preserve" text-anchor="middle" x="1284.62" y="-158.5" font-family="Arial" font-size="10.00">Complexity: MEDIUM</text>
</g>
<!-- and_p3&#45;&gt;leaf3_1 -->
<g id="edge19" class="edge">
<title>and_p3&#45;&gt;leaf3_1</title>
<path fill="none" stroke="black" d="M1284.62,-267.48C1284.62,-257.7 1284.62,-245.02 1284.62,-232.63"/>
<polygon fill="black" stroke="black" points="1288.13,-232.94 1284.63,-222.94 1281.13,-232.94 1288.13,-232.94"/>
</g>
<!-- or_p3 -->
<g id="node21" class="node">
<title>or_p3</title>
<polygon fill="#ffd93d" stroke="black" points="1385.62,-204 1358.62,-186 1385.62,-168 1412.62,-186 1385.62,-204"/>
<text xml:space="preserve" text-anchor="middle" x="1385.62" y="-182.7" font-family="Arial" font-size="9.00">OR</text>
</g>
<!-- and_p3&#45;&gt;or_p3 -->
<g id="edge20" class="edge">
<title>and_p3&#45;&gt;or_p3</title>
<path fill="none" stroke="black" d="M1298.27,-275.21C1311.94,-265.12 1333.23,-248.55 1349.62,-232 1357.03,-224.52 1364.43,-215.59 1370.58,-207.66"/>
<polygon fill="black" stroke="black" points="1373.24,-209.95 1376.46,-199.86 1367.65,-205.74 1373.24,-209.95"/>
</g>
<!-- leaf3_2 -->
<g id="node22" class="node">
<title>leaf3_2</title>
<path fill="#90ee90" stroke="#ffa500" stroke-width="3" stroke-dasharray="5,2" d="M1449.12,-98C1449.12,-98 1304.12,-98 1304.12,-98 1298.12,-98 1292.12,-92 1292.12,-86 1292.12,-86 1292.12,-18 1292.12,-18 1292.12,-12 1298.12,-6 1304.12,-6 1304.12,-6 1449.12,-6 1449.12,-6 1455.12,-6 1461.12,-12 1461.12,-18 1461.12,-18 1461.12,-86 1461.12,-86 1461.12,-92 1455.12,-98 1449.12,-98"/>
<text xml:space="preserve" text-anchor="middle" x="1376.62" y="-84.5" font-family="Arial" font-size="10.00">LEAF: Execute DROP TABLE</text>
<text xml:space="preserve" text-anchor="middle" x="1376.62" y="-72.5" font-family="Arial" font-size="10.00">Commands</text>
<text xml:space="preserve" text-anchor="middle" x="1376.62" y="-60.5" font-family="Arial" font-size="10.00">&#45;&#45;&#45;</text>
<text xml:space="preserve" text-anchor="middle" x="1376.62" y="-48.5" font-family="Arial" font-size="10.00">SQL: DROP TABLE users; rounds;</text>
<text xml:space="preserve" text-anchor="middle" x="1376.62" y="-36.5" font-family="Arial" font-size="10.00">Impact: Complete data loss</text>
<text xml:space="preserve" text-anchor="middle" x="1376.62" y="-24.5" font-family="Arial" font-size="10.00">Feasibility: MEDIUM</text>
<text xml:space="preserve" text-anchor="middle" x="1376.62" y="-12.5" font-family="Arial" font-size="10.00">Detection: IMMEDIATE</text>
</g>
<!-- or_p3&#45;&gt;leaf3_2 -->
<g id="edge21" class="edge">
<title>or_p3&#45;&gt;leaf3_2</title>
<path fill="none" stroke="black" d="M1384.49,-168.28C1383.49,-153.71 1381.99,-131.68 1380.56,-110.78"/>
<polygon fill="black" stroke="black" points="1384.06,-110.58 1379.89,-100.84 1377.08,-111.06 1384.06,-110.58"/>
</g>
<!-- leaf3_3 -->
<g id="node23" class="node">
<title>leaf3_3</title>
<path fill="#90ee90" stroke="#ff0000" stroke-width="2" d="M1622,-98C1622,-98 1491.25,-98 1491.25,-98 1485.25,-98 1479.25,-92 1479.25,-86 1479.25,-86 1479.25,-18 1479.25,-18 1479.25,-12 1485.25,-6 1491.25,-6 1491.25,-6 1622,-6 1622,-6 1628,-6 1634,-12 1634,-18 1634,-18 1634,-86 1634,-86 1634,-92 1628,-98 1622,-98"/>
<text xml:space="preserve" text-anchor="middle" x="1556.62" y="-84.5" font-family="Arial" font-size="10.00">LEAF: Corrupt Data Instead</text>
<text xml:space="preserve" text-anchor="middle" x="1556.62" y="-72.5" font-family="Arial" font-size="10.00">(UPDATE passwords=&#39;hacked&#39;)</text>
<text xml:space="preserve" text-anchor="middle" x="1556.62" y="-60.5" font-family="Arial" font-size="10.00">&#45;&#45;&#45;</text>
<text xml:space="preserve" text-anchor="middle" x="1556.62" y="-48.5" font-family="Arial" font-size="10.00">Impact: All users locked out</text>
<text xml:space="preserve" text-anchor="middle" x="1556.62" y="-36.5" font-family="Arial" font-size="10.00">Recovery: More difficult</text>
<text xml:space="preserve" text-anchor="middle" x="1556.62" y="-24.5" font-family="Arial" font-size="10.00">Feasibility: HIGH</text>
<text xml:space="preserve" text-anchor="middle" x="1556.62" y="-12.5" font-family="Arial" font-size="10.00">Detection: DELAYED</text>
</g>
<!-- or_p3&#45;&gt;leaf3_3 -->
<g id="edge22" class="edge">
<title>or_p3&#45;&gt;leaf3_3</title>
<path fill="none" stroke="black" d="M1397.65,-175.72C1416.49,-161.17 1454.35,-131.95 1488.39,-105.67"/>
<polygon fill="black" stroke="black" points="1490.43,-108.52 1496.21,-99.64 1486.16,-102.98 1490.43,-108.52"/>
</g>
<!-- leaf_impact -->
<g id="node25" class="node">
<title>leaf_impact</title>
<path fill="#cc0000" stroke="black" stroke-width="3" d="M821.38,-232C821.38,-232 677.88,-232 677.88,-232 671.88,-232 665.88,-226 665.88,-220 665.88,-220 665.88,-152 665.88,-152 665.88,-146 671.88,-140 677.88,-140 677.88,-140 821.38,-140 821.38,-140 827.38,-140 833.38,-146 833.38,-152 833.38,-152 833.38,-220 833.38,-220 833.38,-226 827.38,-232 821.38,-232"/>
<text xml:space="preserve" text-anchor="middle" x="749.62" y="-218.5" font-family="Arial" font-size="10.00" fill="white">OUTCOME: Service Outage</text>
<text xml:space="preserve" text-anchor="middle" x="749.62" y="-206.5" font-family="Arial" font-size="10.00" fill="white">for Days/Weeks</text>
<text xml:space="preserve" text-anchor="middle" x="749.62" y="-194.5" font-family="Arial" font-size="10.00" fill="white">&#45;&#45;&#45;</text>
<text xml:space="preserve" text-anchor="middle" x="749.62" y="-182.5" font-family="Arial" font-size="10.00" fill="white">Recovery: Restore from backups</text>
<text xml:space="preserve" text-anchor="middle" x="749.62" y="-170.5" font-family="Arial" font-size="10.00" fill="white">Reputational: User trust lost</text>
<text xml:space="preserve" text-anchor="middle" x="749.62" y="-158.5" font-family="Arial" font-size="10.00" fill="white">Financial: Tournament revenue lost</text>
<text xml:space="preserve" text-anchor="middle" x="749.62" y="-146.5" font-family="Arial" font-size="10.00" fill="white">Media: Negative coverage</text>
</g>
<!-- impact&#45;&gt;leaf_impact -->
<g id="edge26" class="edge">
<title>impact&#45;&gt;leaf_impact</title>
<path fill="none" stroke="black" d="M789.26,-267.93C785.83,-260.92 781.64,-252.36 777.28,-243.47"/>
<polygon fill="black" stroke="black" points="780.53,-242.15 772.99,-234.7 774.25,-245.22 780.53,-242.15"/>
</g>
</g>
</svg>
