<?xml version="1.0" encoding="UTF-8" standalone="no"?>
<!DOCTYPE svg PUBLIC "-//W3C//DTD SVG 1.1//EN"
 "http://www.w3.org/Graphics/SVG/1.1/DTD/svg11.dtd">
<!-- Generated by graphviz version 14.0.2 (20251019.1705)
 -->
<!-- Title: HandicapInflation Pages: 1 -->
<svg width="1324pt" height="718pt"
 viewBox="0.00 0.00 1324.00 718.00" xmlns="http://www.w3.org/2000/svg" xmlns:xlink="http://www.w3.org/1999/xlink">
<g id="graph0" class="graph" transform="scale(1 1) rotate(0) translate(4 713.5)">
<title>HandicapInflation</title>
<polygon fill="white" stroke="none" points="-4,4 -4,-713.5 1320.25,-713.5 1320.25,4 -4,4"/>
<!-- root -->
<g id="node1" class="node">
<title>root</title>
<path fill="#ff6b6b" stroke="black" stroke-width="3" d="M794,-709.5C794,-709.5 628,-709.5 628,-709.5 622,-709.5 616,-703.5 616,-697.5 616,-697.5 616,-628.25 616,-628.25 616,-622.25 622,-616.25 628,-616.25 628,-616.25 794,-616.25 794,-616.25 800,-616.25 806,-622.25 806,-628.25 806,-628.25 806,-697.5 806,-697.5 806,-703.5 800,-709.5 794,-709.5"/>
<text xml:space="preserve" text-anchor="middle" x="711" y="-694.1" font-family="Arial" font-size="12.00" fill="white">ROOT:</text>
<text xml:space="preserve" text-anchor="middle" x="711" y="-679.85" font-family="Arial" font-size="12.00" fill="white">Artificially Inflate Handicap Index</text>
<text xml:space="preserve" text-anchor="middle" x="711" y="-651.6" font-family="Arial" font-size="12.00" fill="white">Impact: HIGH</text>
<text xml:space="preserve" text-anchor="middle" x="711" y="-637.35" font-family="Arial" font-size="12.00" fill="white">Threat Actor: TA&#45;02</text>
<text xml:space="preserve" text-anchor="middle" x="711" y="-623.1" font-family="Arial" font-size="12.00" fill="white">Business Function: CRITICAL</text>
</g>
<!-- or_main -->
<g id="node2" class="node">
<title>or_main</title>
<polygon fill="#ffd93d" stroke="black" points="656,-572.25 629,-554.25 656,-536.25 683,-554.25 656,-572.25"/>
<text xml:space="preserve" text-anchor="middle" x="656" y="-550.75" font-family="Arial" font-size="10.00">OR</text>
</g>
<!-- root&#45;&gt;or_main -->
<g id="edge1" class="edge">
<title>root&#45;&gt;or_main</title>
<path fill="none" stroke="black" d="M686.72,-614.8C680.14,-602.04 673.31,-588.81 667.77,-578.06"/>
<polygon fill="black" stroke="black" points="670.91,-576.52 663.22,-569.24 664.69,-579.73 670.91,-576.52"/>
</g>
<!-- risk_note -->
<g id="node25" class="node">
<title>risk_note</title>
<polygon fill="#ffcccc" stroke="black" points="827.12,-579.25 700.88,-579.25 700.88,-529.25 833.12,-529.25 833.12,-573.25 827.12,-579.25"/>
<polyline fill="none" stroke="black" points="827.12,-579.25 827.12,-573.25"/>
<polyline fill="none" stroke="black" points="833.12,-573.25 827.12,-573.25"/>
<text xml:space="preserve" text-anchor="middle" x="767" y="-566.7" font-family="Arial" font-size="9.00" fill="#cc0000">CRITICAL VULNERABILITY:</text>
<text xml:space="preserve" text-anchor="middle" x="767" y="-556.2" font-family="Arial" font-size="9.00" fill="#cc0000">No HMAC/Digital Signatures</text>
<text xml:space="preserve" text-anchor="middle" x="767" y="-545.7" font-family="Arial" font-size="9.00" fill="#cc0000">No Score Verification</text>
<text xml:space="preserve" text-anchor="middle" x="767" y="-535.2" font-family="Arial" font-size="9.00" fill="#cc0000">(Assignment 3 Priority)</text>
</g>
<!-- root&#45;&gt;risk_note -->
<g id="edge26" class="edge">
<title>root&#45;&gt;risk_note</title>
<path fill="none" stroke="#cc0000" stroke-dasharray="1,5" d="M735.73,-614.8C742.11,-602.64 748.73,-590.04 754.22,-579.57"/>
</g>
<!-- path1 -->
<g id="node3" class="node">
<title>path1</title>
<path fill="#ffa500" stroke="black" stroke-width="2" d="M713.88,-492.25C713.88,-492.25 598.12,-492.25 598.12,-492.25 592.12,-492.25 586.12,-486.25 586.12,-480.25 586.12,-480.25 586.12,-455.75 586.12,-455.75 586.12,-449.75 592.12,-443.75 598.12,-443.75 598.12,-443.75 713.88,-443.75 713.88,-443.75 719.88,-443.75 725.88,-449.75 725.88,-455.75 725.88,-455.75 725.88,-480.25 725.88,-480.25 725.88,-486.25 719.88,-492.25 713.88,-492.25"/>
<text xml:space="preserve" text-anchor="middle" x="656" y="-477.8" font-family="Arial" font-size="11.00">Path 1:</text>
<text xml:space="preserve" text-anchor="middle" x="656" y="-464.3" font-family="Arial" font-size="11.00">Direct Score Manipulation</text>
<text xml:space="preserve" text-anchor="middle" x="656" y="-450.8" font-family="Arial" font-size="11.00">(HTTP Interception)</text>
</g>
<!-- or_main&#45;&gt;path1 -->
<g id="edge2" class="edge">
<title>or_main&#45;&gt;path1</title>
<path fill="none" stroke="black" d="M656,-535.79C656,-526.73 656,-515.32 656,-504.5"/>
<polygon fill="black" stroke="black" points="659.5,-504.66 656,-494.66 652.5,-504.66 659.5,-504.66"/>
</g>
<!-- path2 -->
<g id="node4" class="node">
<title>path2</title>
<path fill="#ffa500" stroke="black" stroke-width="2" d="M876.5,-492.25C876.5,-492.25 755.5,-492.25 755.5,-492.25 749.5,-492.25 743.5,-486.25 743.5,-480.25 743.5,-480.25 743.5,-455.75 743.5,-455.75 743.5,-449.75 749.5,-443.75 755.5,-443.75 755.5,-443.75 876.5,-443.75 876.5,-443.75 882.5,-443.75 888.5,-449.75 888.5,-455.75 888.5,-455.75 888.5,-480.25 888.5,-480.25 888.5,-486.25 882.5,-492.25 876.5,-492.25"/>
<text xml:space="preserve" text-anchor="middle" x="816" y="-477.8" font-family="Arial" font-size="11.00">Path 2:</text>
<text xml:space="preserve" text-anchor="middle" x="816" y="-464.3" font-family="Arial" font-size="11.00">Selective Round Reporting</text>
<text xml:space="preserve" text-anchor="middle" x="816" y="-450.8" font-family="Arial" font-size="11.00">(Only Report Bad Scores)</text>
</g>
<!-- or_main&#45;&gt;path2 -->
<g id="edge3" class="edge">
<title>or_main&#45;&gt;path2</title>
<path fill="none" stroke="black" d="M668.73,-544.15C675.5,-539.47 684.05,-533.8 692,-529.25 711.01,-518.36 732.29,-507.55 751.77,-498.16"/>
<polygon fill="black" stroke="black" points="753.19,-501.36 760.71,-493.9 750.18,-495.04 753.19,-501.36"/>
</g>
<!-- path3 -->
<g id="node5" class="node">
<title>path3</title>
<path fill="#ffa500" stroke="black" stroke-width="2" d="M555.75,-492.25C555.75,-492.25 430.25,-492.25 430.25,-492.25 424.25,-492.25 418.25,-486.25 418.25,-480.25 418.25,-480.25 418.25,-455.75 418.25,-455.75 418.25,-449.75 424.25,-443.75 430.25,-443.75 430.25,-443.75 555.75,-443.75 555.75,-443.75 561.75,-443.75 567.75,-449.75 567.75,-455.75 567.75,-455.75 567.75,-480.25 567.75,-480.25 567.75,-486.25 561.75,-492.25 555.75,-492.25"/>
<text xml:space="preserve" text-anchor="middle" x="493" y="-477.8" font-family="Arial" font-size="11.00">Path 3:</text>
<text xml:space="preserve" text-anchor="middle" x="493" y="-464.3" font-family="Arial" font-size="11.00">Course Rating Manipulation</text>
<text xml:space="preserve" text-anchor="middle" x="493" y="-450.8" font-family="Arial" font-size="11.00">(Requires Admin Access)</text>
</g>
<!-- or_main&#45;&gt;path3 -->
<g id="edge4" class="edge">
<title>or_main&#45;&gt;path3</title>
<path fill="none" stroke="black" d="M641.25,-545.62C620.65,-534.98 582.14,-515.07 549.53,-498.22"/>
<polygon fill="black" stroke="black" points="551.46,-495.28 540.97,-493.79 548.25,-501.5 551.46,-495.28"/>
</g>
<!-- and_p1 -->
<g id="node6" class="node">
<title>and_p1</title>
<polygon fill="#ffa500" stroke="black" points="700,-364 670.74,-346 700,-328 729.26,-346 700,-364"/>
<text xml:space="preserve" text-anchor="middle" x="700" y="-342.7" font-family="Arial" font-size="9.00">AND</text>
</g>
<!-- path1&#45;&gt;and_p1 -->
<g id="edge5" class="edge">
<title>path1&#45;&gt;and_p1</title>
<path fill="none" stroke="black" d="M664.8,-443C672.37,-422.34 683.26,-392.65 690.92,-371.77"/>
<polygon fill="black" stroke="black" points="694.12,-373.2 694.28,-362.61 687.55,-370.79 694.12,-373.2"/>
</g>
<!-- post -->
<g id="node23" class="node">
<title>post</title>
<path fill="none" stroke="black" d="M614.25,-364C614.25,-364 527.75,-364 527.75,-364 521.75,-364 515.75,-358 515.75,-352 515.75,-352 515.75,-340 515.75,-340 515.75,-334 521.75,-328 527.75,-328 527.75,-328 614.25,-328 614.25,-328 620.25,-328 626.25,-334 626.25,-340 626.25,-340 626.25,-352 626.25,-352 626.25,-358 620.25,-364 614.25,-364"/>
<text xml:space="preserve" text-anchor="middle" x="571" y="-342.5" font-family="Arial" font-size="10.00">Post&#45;Attack Outcome</text>
</g>
<!-- path1&#45;&gt;post -->
<g id="edge22" class="edge">
<title>path1&#45;&gt;post</title>
<path fill="none" stroke="#00aa00" stroke-dasharray="5,2" d="M639,-443C624.78,-422.93 604.52,-394.32 589.81,-373.56"/>
<polygon fill="#00aa00" stroke="#00aa00" points="592.8,-371.72 584.17,-365.59 587.09,-375.77 592.8,-371.72"/>
<text xml:space="preserve" text-anchor="middle" x="639.96" y="-418.15" font-family="Arial" font-size="8.00">success</text>
</g>
<!-- leaf2_1 -->
<g id="node17" class="node">
<title>leaf2_1</title>
<path fill="#90ee90" stroke="#ff0000" stroke-width="2" d="M872.38,-398C872.38,-398 759.62,-398 759.62,-398 753.62,-398 747.62,-392 747.62,-386 747.62,-386 747.62,-306 747.62,-306 747.62,-300 753.62,-294 759.62,-294 759.62,-294 872.38,-294 872.38,-294 878.38,-294 884.38,-300 884.38,-306 884.38,-306 884.38,-386 884.38,-386 884.38,-392 878.38,-398 872.38,-398"/>
<text xml:space="preserve" text-anchor="middle" x="816" y="-384.5" font-family="Arial" font-size="10.00">LEAF: Only Report</text>
<text xml:space="preserve" text-anchor="middle" x="816" y="-372.5" font-family="Arial" font-size="10.00">Poorly Played Rounds</text>
<text xml:space="preserve" text-anchor="middle" x="816" y="-360.5" font-family="Arial" font-size="10.00">&#45;&#45;&#45;</text>
<text xml:space="preserve" text-anchor="middle" x="816" y="-348.5" font-family="Arial" font-size="10.00">Assumption: No verification</text>
<text xml:space="preserve" text-anchor="middle" x="816" y="-336.5" font-family="Arial" font-size="10.00">Feasibility: HIGH</text>
<text xml:space="preserve" text-anchor="middle" x="816" y="-324.5" font-family="Arial" font-size="10.00">Complexity: LOW</text>
<text xml:space="preserve" text-anchor="middle" x="816" y="-312.5" font-family="Arial" font-size="10.00">Cost: FREE</text>
<text xml:space="preserve" text-anchor="middle" x="816" y="-300.5" font-family="Arial" font-size="10.00">Detection: LOW&#45;MEDIUM</text>
</g>
<!-- path2&#45;&gt;leaf2_1 -->
<g id="edge16" class="edge">
<title>path2&#45;&gt;leaf2_1</title>
<path fill="none" stroke="black" d="M816,-443C816,-433.36 816,-421.76 816,-409.99"/>
<polygon fill="black" stroke="black" points="819.5,-410.24 816,-400.24 812.5,-410.24 819.5,-410.24"/>
</g>
<!-- leaf2_2 -->
<g id="node18" class="node">
<title>leaf2_2</title>
<path fill="#90ee90" stroke="#ffa500" stroke-width="3" d="M1029.12,-392C1029.12,-392 914.88,-392 914.88,-392 908.88,-392 902.88,-386 902.88,-380 902.88,-380 902.88,-312 902.88,-312 902.88,-306 908.88,-300 914.88,-300 914.88,-300 1029.12,-300 1029.12,-300 1035.12,-300 1041.12,-306 1041.12,-312 1041.12,-312 1041.12,-380 1041.12,-380 1041.12,-386 1035.12,-392 1029.12,-392"/>
<text xml:space="preserve" text-anchor="middle" x="972" y="-378.5" font-family="Arial" font-size="10.00">LEAF: Delete Good Rounds</text>
<text xml:space="preserve" text-anchor="middle" x="972" y="-366.5" font-family="Arial" font-size="10.00">(if feature exists)</text>
<text xml:space="preserve" text-anchor="middle" x="972" y="-354.5" font-family="Arial" font-size="10.00">&#45;&#45;&#45;</text>
<text xml:space="preserve" text-anchor="middle" x="972" y="-342.5" font-family="Arial" font-size="10.00">Feasibility: MEDIUM</text>
<text xml:space="preserve" text-anchor="middle" x="972" y="-330.5" font-family="Arial" font-size="10.00">Complexity: LOW</text>
<text xml:space="preserve" text-anchor="middle" x="972" y="-318.5" font-family="Arial" font-size="10.00">Cost: FREE</text>
<text xml:space="preserve" text-anchor="middle" x="972" y="-306.5" font-family="Arial" font-size="10.00">Detection: MEDIUM</text>
</g>
<!-- path2&#45;&gt;leaf2_2 -->
<g id="edge17" class="edge">
<title>path2&#45;&gt;leaf2_2</title>
<path fill="none" stroke="black" d="M847.19,-443C863.23,-430.67 883.46,-415.11 902.93,-400.13"/>
<polygon fill="black" stroke="black" points="904.82,-403.09 910.61,-394.22 900.55,-397.54 904.82,-403.09"/>
</g>
<!-- path2&#45;&gt;post -->
<g id="edge23" class="edge">
<title>path2&#45;&gt;post</title>
<path fill="none" stroke="#00aa00" stroke-dasharray="5,2" d="M758.75,-442.8C729.51,-430.08 693.54,-413.86 662,-398 644.88,-389.39 626.36,-379.18 610.53,-370.17"/>
<polygon fill="#00aa00" stroke="#00aa00" points="612.29,-367.14 601.87,-365.2 608.8,-373.21 612.29,-367.14"/>
<text xml:space="preserve" text-anchor="middle" x="730.31" y="-418.15" font-family="Arial" font-size="8.00">success</text>
</g>
<!-- and_p3 -->
<g id="node19" class="node">
<title>and_p3</title>
<polygon fill="#ffa500" stroke="black" points="275,-364 245.74,-346 275,-328 304.26,-346 275,-364"/>
<text xml:space="preserve" text-anchor="middle" x="275" y="-342.7" font-family="Arial" font-size="9.00">AND</text>
</g>
<!-- path3&#45;&gt;and_p3 -->
<g id="edge18" class="edge">
<title>path3&#45;&gt;and_p3</title>
<path fill="none" stroke="black" d="M449.15,-442.86C404.11,-418.07 335.63,-380.37 299.42,-360.44"/>
<polygon fill="black" stroke="black" points="301.47,-357.58 291.02,-355.82 298.09,-363.71 301.47,-357.58"/>
</g>
<!-- path3&#45;&gt;post -->
<g id="edge24" class="edge">
<title>path3&#45;&gt;post</title>
<path fill="none" stroke="#00aa00" stroke-dasharray="5,2" d="M508.6,-443C521.59,-423.02 540.07,-394.58 553.55,-373.84"/>
<polygon fill="#00aa00" stroke="#00aa00" points="556.38,-375.91 558.9,-365.62 550.51,-372.1 556.38,-375.91"/>
<text xml:space="preserve" text-anchor="middle" x="538.89" y="-418.15" font-family="Arial" font-size="8.00">success</text>
</g>
<!-- sg1_1 -->
<g id="node7" class="node">
<title>sg1_1</title>
<path fill="none" stroke="black" d="M756.38,-223C756.38,-223 643.62,-223 643.62,-223 637.62,-223 631.62,-217 631.62,-211 631.62,-211 631.62,-199 631.62,-199 631.62,-193 637.62,-187 643.62,-187 643.62,-187 756.38,-187 756.38,-187 762.38,-187 768.38,-193 768.38,-199 768.38,-199 768.38,-211 768.38,-211 768.38,-217 762.38,-223 756.38,-223"/>
<text xml:space="preserve" text-anchor="middle" x="700" y="-207.5" font-family="Arial" font-size="10.00">Subgoal 1.1:</text>
<text xml:space="preserve" text-anchor="middle" x="700" y="-195.5" font-family="Arial" font-size="10.00">Intercept Score Submission</text>
</g>
<!-- and_p1&#45;&gt;sg1_1 -->
<g id="edge6" class="edge">
<title>and_p1&#45;&gt;sg1_1</title>
<path fill="none" stroke="black" d="M700,-327.68C700,-304.35 700,-262.53 700,-234.53"/>
<polygon fill="black" stroke="black" points="703.5,-234.62 700,-224.62 696.5,-234.62 703.5,-234.62"/>
</g>
<!-- sg1_2 -->
<g id="node8" class="node">
<title>sg1_2</title>
<path fill="none" stroke="black" d="M949.88,-223C949.88,-223 876.12,-223 876.12,-223 870.12,-223 864.12,-217 864.12,-211 864.12,-211 864.12,-199 864.12,-199 864.12,-193 870.12,-187 876.12,-187 876.12,-187 949.88,-187 949.88,-187 955.88,-187 961.88,-193 961.88,-199 961.88,-199 961.88,-211 961.88,-211 961.88,-217 955.88,-223 949.88,-223"/>
<text xml:space="preserve" text-anchor="middle" x="913" y="-207.5" font-family="Arial" font-size="10.00">Subgoal 1.2:</text>
<text xml:space="preserve" text-anchor="middle" x="913" y="-195.5" font-family="Arial" font-size="10.00">Modify Score Data</text>
</g>
<!-- and_p1&#45;&gt;sg1_2 -->
<g id="edge7" class="edge">
<title>and_p1&#45;&gt;sg1_2</title>
<path fill="none" stroke="black" d="M707.35,-332.39C714.36,-321.2 725.8,-304.97 739,-294 773.49,-265.36 818.85,-242.8 854.62,-227.7"/>
<polygon fill="black" stroke="black" points="855.61,-231.08 863.51,-224.02 852.93,-224.61 855.61,-231.08"/>
</g>
<!-- sg1_3 -->
<g id="node9" class="node">
<title>sg1_3</title>
<path fill="none" stroke="black" d="M1204.62,-223C1204.62,-223 1093.38,-223 1093.38,-223 1087.38,-223 1081.38,-217 1081.38,-211 1081.38,-211 1081.38,-199 1081.38,-199 1081.38,-193 1087.38,-187 1093.38,-187 1093.38,-187 1204.62,-187 1204.62,-187 1210.62,-187 1216.62,-193 1216.62,-199 1216.62,-199 1216.62,-211 1216.62,-211 1216.62,-217 1210.62,-223 1204.62,-223"/>
<text xml:space="preserve" text-anchor="middle" x="1149" y="-207.5" font-family="Arial" font-size="10.00">Subgoal 1.3:</text>
<text xml:space="preserve" text-anchor="middle" x="1149" y="-195.5" font-family="Arial" font-size="10.00">Repeat for Multiple Rounds</text>
</g>
<!-- and_p1&#45;&gt;sg1_3 -->
<g id="edge8" class="edge">
<title>and_p1&#45;&gt;sg1_3</title>
<path fill="none" stroke="black" d="M706.37,-331.81C712.85,-319.9 724.07,-302.91 739,-294 783.83,-267.25 920.04,-268.32 971,-257 1008.64,-248.64 1050.08,-236.92 1083.5,-226.82"/>
<polygon fill="black" stroke="black" points="1084.52,-230.17 1093.06,-223.91 1082.48,-223.47 1084.52,-230.17"/>
</g>
<!-- leaf1_1_1 -->
<g id="node10" class="node">
<title>leaf1_1_1</title>
<path fill="#90ee90" stroke="#ff0000" stroke-width="2" d="M606.75,-110C606.75,-110 529.25,-110 529.25,-110 523.25,-110 517.25,-104 517.25,-98 517.25,-98 517.25,-18 517.25,-18 517.25,-12 523.25,-6 529.25,-6 529.25,-6 606.75,-6 606.75,-6 612.75,-6 618.75,-12 618.75,-18 618.75,-18 618.75,-98 618.75,-98 618.75,-104 612.75,-110 606.75,-110"/>
<text xml:space="preserve" text-anchor="middle" x="568" y="-96.5" font-family="Arial" font-size="10.00">LEAF: Setup HTTP</text>
<text xml:space="preserve" text-anchor="middle" x="568" y="-84.5" font-family="Arial" font-size="10.00">Interception Proxy</text>
<text xml:space="preserve" text-anchor="middle" x="568" y="-72.5" font-family="Arial" font-size="10.00">&#45;&#45;&#45;</text>
<text xml:space="preserve" text-anchor="middle" x="568" y="-60.5" font-family="Arial" font-size="10.00">Tool: Burp Suite</text>
<text xml:space="preserve" text-anchor="middle" x="568" y="-48.5" font-family="Arial" font-size="10.00">Feasibility: HIGH</text>
<text xml:space="preserve" text-anchor="middle" x="568" y="-36.5" font-family="Arial" font-size="10.00">Complexity: LOW</text>
<text xml:space="preserve" text-anchor="middle" x="568" y="-24.5" font-family="Arial" font-size="10.00">Cost: FREE</text>
<text xml:space="preserve" text-anchor="middle" x="568" y="-12.5" font-family="Arial" font-size="10.00">Detection: LOW</text>
</g>
<!-- sg1_1&#45;&gt;leaf1_1_1 -->
<g id="edge9" class="edge">
<title>sg1_1&#45;&gt;leaf1_1_1</title>
<path fill="none" stroke="black" d="M684.08,-186.51C668.87,-169.8 645.04,-143.63 622.93,-119.34"/>
<polygon fill="black" stroke="black" points="625.53,-117 616.21,-111.96 620.36,-121.71 625.53,-117"/>
</g>
<!-- leaf1_1_2 -->
<g id="node11" class="node">
<title>leaf1_1_2</title>
<path fill="#90ee90" stroke="#00ff00" d="M750.75,-104C750.75,-104 649.25,-104 649.25,-104 643.25,-104 637.25,-98 637.25,-92 637.25,-92 637.25,-24 637.25,-24 637.25,-18 643.25,-12 649.25,-12 649.25,-12 750.75,-12 750.75,-12 756.75,-12 762.75,-18 762.75,-24 762.75,-24 762.75,-92 762.75,-92 762.75,-98 756.75,-104 750.75,-104"/>
<text xml:space="preserve" text-anchor="middle" x="700" y="-90.5" font-family="Arial" font-size="10.00">LEAF: Submit Legitimate</text>
<text xml:space="preserve" text-anchor="middle" x="700" y="-78.5" font-family="Arial" font-size="10.00">Round via Form</text>
<text xml:space="preserve" text-anchor="middle" x="700" y="-66.5" font-family="Arial" font-size="10.00">&#45;&#45;&#45;</text>
<text xml:space="preserve" text-anchor="middle" x="700" y="-54.5" font-family="Arial" font-size="10.00">Feasibility: HIGH</text>
<text xml:space="preserve" text-anchor="middle" x="700" y="-42.5" font-family="Arial" font-size="10.00">Complexity: LOW</text>
<text xml:space="preserve" text-anchor="middle" x="700" y="-30.5" font-family="Arial" font-size="10.00">Cost: FREE</text>
<text xml:space="preserve" text-anchor="middle" x="700" y="-18.5" font-family="Arial" font-size="10.00">Detection: NONE</text>
</g>
<!-- sg1_1&#45;&gt;leaf1_1_2 -->
<g id="edge10" class="edge">
<title>sg1_1&#45;&gt;leaf1_1_2</title>
<path fill="none" stroke="black" d="M700,-186.51C700,-168.94 700,-140.91 700,-115.6"/>
<polygon fill="black" stroke="black" points="703.5,-115.72 700,-105.72 696.5,-115.72 703.5,-115.72"/>
</g>
<!-- leaf1_1_3 -->
<g id="node12" class="node">
<title>leaf1_1_3</title>
<path fill="#90ee90" stroke="#ff0000" stroke-width="2" d="M487.5,-110C487.5,-110 360.5,-110 360.5,-110 354.5,-110 348.5,-104 348.5,-98 348.5,-98 348.5,-18 348.5,-18 348.5,-12 354.5,-6 360.5,-6 360.5,-6 487.5,-6 487.5,-6 493.5,-6 499.5,-12 499.5,-18 499.5,-18 499.5,-98 499.5,-98 499.5,-104 493.5,-110 487.5,-110"/>
<text xml:space="preserve" text-anchor="middle" x="424" y="-96.5" font-family="Arial" font-size="10.00">LEAF: Capture POST Request</text>
<text xml:space="preserve" text-anchor="middle" x="424" y="-84.5" font-family="Arial" font-size="10.00">in Proxy</text>
<text xml:space="preserve" text-anchor="middle" x="424" y="-72.5" font-family="Arial" font-size="10.00">&#45;&#45;&#45;</text>
<text xml:space="preserve" text-anchor="middle" x="424" y="-60.5" font-family="Arial" font-size="10.00">Vuln: No crypto verification</text>
<text xml:space="preserve" text-anchor="middle" x="424" y="-48.5" font-family="Arial" font-size="10.00">Feasibility: HIGH</text>
<text xml:space="preserve" text-anchor="middle" x="424" y="-36.5" font-family="Arial" font-size="10.00">Complexity: LOW</text>
<text xml:space="preserve" text-anchor="middle" x="424" y="-24.5" font-family="Arial" font-size="10.00">Cost: FREE</text>
<text xml:space="preserve" text-anchor="middle" x="424" y="-12.5" font-family="Arial" font-size="10.00">Detection: NONE</text>
</g>
<!-- sg1_1&#45;&gt;leaf1_1_3 -->
<g id="edge11" class="edge">
<title>sg1_1&#45;&gt;leaf1_1_3</title>
<path fill="none" stroke="black" d="M677.4,-186.63C662.55,-175.85 642.36,-162.31 623,-153 577.54,-131.14 558.59,-138.47 508.15,-115.62"/>
<polygon fill="black" stroke="black" points="509.89,-112.57 499.36,-111.46 506.9,-118.9 509.89,-112.57"/>
</g>
<!-- leaf1_2_1 -->
<g id="node13" class="node">
<title>leaf1_2_1</title>
<path fill="#90ee90" stroke="#ff0000" stroke-width="2" d="M1034.75,-110C1034.75,-110 933.25,-110 933.25,-110 927.25,-110 921.25,-104 921.25,-98 921.25,-98 921.25,-18 921.25,-18 921.25,-12 927.25,-6 933.25,-6 933.25,-6 1034.75,-6 1034.75,-6 1040.75,-6 1046.75,-12 1046.75,-18 1046.75,-18 1046.75,-98 1046.75,-98 1046.75,-104 1040.75,-110 1034.75,-110"/>
<text xml:space="preserve" text-anchor="middle" x="984" y="-96.5" font-family="Arial" font-size="10.00">LEAF: Inflate Individual</text>
<text xml:space="preserve" text-anchor="middle" x="984" y="-84.5" font-family="Arial" font-size="10.00">Hole Scores (+2 strokes)</text>
<text xml:space="preserve" text-anchor="middle" x="984" y="-72.5" font-family="Arial" font-size="10.00">&#45;&#45;&#45;</text>
<text xml:space="preserve" text-anchor="middle" x="984" y="-60.5" font-family="Arial" font-size="10.00">Vuln: models.py:95&#45;96</text>
<text xml:space="preserve" text-anchor="middle" x="984" y="-48.5" font-family="Arial" font-size="10.00">Feasibility: HIGH</text>
<text xml:space="preserve" text-anchor="middle" x="984" y="-36.5" font-family="Arial" font-size="10.00">Complexity: LOW</text>
<text xml:space="preserve" text-anchor="middle" x="984" y="-24.5" font-family="Arial" font-size="10.00">Cost: FREE</text>
<text xml:space="preserve" text-anchor="middle" x="984" y="-12.5" font-family="Arial" font-size="10.00">Detection: LOW</text>
</g>
<!-- sg1_2&#45;&gt;leaf1_2_1 -->
<g id="edge12" class="edge">
<title>sg1_2&#45;&gt;leaf1_2_1</title>
<path fill="none" stroke="black" d="M921.56,-186.51C929.57,-170.16 942,-144.77 953.67,-120.93"/>
<polygon fill="black" stroke="black" points="956.69,-122.72 957.95,-112.2 950.41,-119.64 956.69,-122.72"/>
</g>
<!-- leaf1_2_2 -->
<g id="node14" class="node">
<title>leaf1_2_2</title>
<path fill="#90ee90" stroke="#ff0000" stroke-width="2" d="M1151.25,-110C1151.25,-110 1076.75,-110 1076.75,-110 1070.75,-110 1064.75,-104 1064.75,-98 1064.75,-98 1064.75,-18 1064.75,-18 1064.75,-12 1070.75,-6 1076.75,-6 1076.75,-6 1151.25,-6 1151.25,-6 1157.25,-6 1163.25,-12 1163.25,-18 1163.25,-18 1163.25,-98 1163.25,-98 1163.25,-104 1157.25,-110 1151.25,-110"/>
<text xml:space="preserve" text-anchor="middle" x="1114" y="-96.5" font-family="Arial" font-size="10.00">LEAF: Recalculate</text>
<text xml:space="preserve" text-anchor="middle" x="1114" y="-84.5" font-family="Arial" font-size="10.00">Total Score</text>
<text xml:space="preserve" text-anchor="middle" x="1114" y="-72.5" font-family="Arial" font-size="10.00">&#45;&#45;&#45;</text>
<text xml:space="preserve" text-anchor="middle" x="1114" y="-60.5" font-family="Arial" font-size="10.00">Vuln: app.py:264</text>
<text xml:space="preserve" text-anchor="middle" x="1114" y="-48.5" font-family="Arial" font-size="10.00">Feasibility: HIGH</text>
<text xml:space="preserve" text-anchor="middle" x="1114" y="-36.5" font-family="Arial" font-size="10.00">Complexity: LOW</text>
<text xml:space="preserve" text-anchor="middle" x="1114" y="-24.5" font-family="Arial" font-size="10.00">Cost: FREE</text>
<text xml:space="preserve" text-anchor="middle" x="1114" y="-12.5" font-family="Arial" font-size="10.00">Detection: LOW</text>
</g>
<!-- sg1_2&#45;&gt;leaf1_2_2 -->
<g id="edge13" class="edge">
<title>sg1_2&#45;&gt;leaf1_2_2</title>
<path fill="none" stroke="black" d="M945.89,-186.56C973.75,-171.19 1014.49,-147.31 1055.08,-116.37"/>
<polygon fill="black" stroke="black" points="1057.05,-119.27 1062.81,-110.37 1052.76,-113.74 1057.05,-119.27"/>
</g>
<!-- leaf1_2_3 -->
<g id="node15" class="node">
<title>leaf1_2_3</title>
<path fill="#90ee90" stroke="#ff0000" stroke-width="2" d="M890.88,-104C890.88,-104 793.12,-104 793.12,-104 787.12,-104 781.12,-98 781.12,-92 781.12,-92 781.12,-24 781.12,-24 781.12,-18 787.12,-12 793.12,-12 793.12,-12 890.88,-12 890.88,-12 896.88,-12 902.88,-18 902.88,-24 902.88,-24 902.88,-92 902.88,-92 902.88,-98 896.88,-104 890.88,-104"/>
<text xml:space="preserve" text-anchor="middle" x="842" y="-90.5" font-family="Arial" font-size="10.00">LEAF: Forward Modified</text>
<text xml:space="preserve" text-anchor="middle" x="842" y="-78.5" font-family="Arial" font-size="10.00">Request to Server</text>
<text xml:space="preserve" text-anchor="middle" x="842" y="-66.5" font-family="Arial" font-size="10.00">&#45;&#45;&#45;</text>
<text xml:space="preserve" text-anchor="middle" x="842" y="-54.5" font-family="Arial" font-size="10.00">Feasibility: HIGH</text>
<text xml:space="preserve" text-anchor="middle" x="842" y="-42.5" font-family="Arial" font-size="10.00">Complexity: LOW</text>
<text xml:space="preserve" text-anchor="middle" x="842" y="-30.5" font-family="Arial" font-size="10.00">Cost: FREE</text>
<text xml:space="preserve" text-anchor="middle" x="842" y="-18.5" font-family="Arial" font-size="10.00">Detection: LOW</text>
</g>
<!-- sg1_2&#45;&gt;leaf1_2_3 -->
<g id="edge14" class="edge">
<title>sg1_2&#45;&gt;leaf1_2_3</title>
<path fill="none" stroke="black" d="M904.44,-186.51C895.78,-168.83 881.94,-140.57 869.49,-115.15"/>
<polygon fill="black" stroke="black" points="872.65,-113.63 865.11,-106.19 866.36,-116.71 872.65,-113.63"/>
</g>
<!-- leaf1_3_1 -->
<g id="node16" class="node">
<title>leaf1_3_1</title>
<path fill="#90ee90" stroke="#ff0000" stroke-width="2" d="M1304.25,-116C1304.25,-116 1193.75,-116 1193.75,-116 1187.75,-116 1181.75,-110 1181.75,-104 1181.75,-104 1181.75,-12 1181.75,-12 1181.75,-6 1187.75,0 1193.75,0 1193.75,0 1304.25,0 1304.25,0 1310.25,0 1316.25,-6 1316.25,-12 1316.25,-12 1316.25,-104 1316.25,-104 1316.25,-110 1310.25,-116 1304.25,-116"/>
<text xml:space="preserve" text-anchor="middle" x="1249" y="-102.5" font-family="Arial" font-size="10.00">LEAF: Submit 8&#45;10 Inflated</text>
<text xml:space="preserve" text-anchor="middle" x="1249" y="-90.5" font-family="Arial" font-size="10.00">Rounds Over Weeks</text>
<text xml:space="preserve" text-anchor="middle" x="1249" y="-78.5" font-family="Arial" font-size="10.00">&#45;&#45;&#45;</text>
<text xml:space="preserve" text-anchor="middle" x="1249" y="-66.5" font-family="Arial" font-size="10.00">Strategy: Realism</text>
<text xml:space="preserve" text-anchor="middle" x="1249" y="-54.5" font-family="Arial" font-size="10.00">Impact: +10&#45;15 strokes</text>
<text xml:space="preserve" text-anchor="middle" x="1249" y="-42.5" font-family="Arial" font-size="10.00">Feasibility: HIGH</text>
<text xml:space="preserve" text-anchor="middle" x="1249" y="-30.5" font-family="Arial" font-size="10.00">Complexity: LOW</text>
<text xml:space="preserve" text-anchor="middle" x="1249" y="-18.5" font-family="Arial" font-size="10.00">Cost: Time Only</text>
<text xml:space="preserve" text-anchor="middle" x="1249" y="-6.5" font-family="Arial" font-size="10.00">Detection: LOW&#45;MEDIUM</text>
</g>
<!-- sg1_3&#45;&gt;leaf1_3_1 -->
<g id="edge15" class="edge">
<title>sg1_3&#45;&gt;leaf1_3_1</title>
<path fill="none" stroke="black" d="M1161.06,-186.51C1171.47,-171.42 1187.2,-148.61 1202.49,-126.43"/>
<polygon fill="black" stroke="black" points="1205.35,-128.46 1208.14,-118.24 1199.59,-124.49 1205.35,-128.46"/>
</g>
<!-- leaf3_1 -->
<g id="node20" class="node">
<title>leaf3_1</title>
<path fill="#90ee90" stroke="#ffa500" stroke-width="3" d="M256.12,-245C256.12,-245 147.88,-245 147.88,-245 141.88,-245 135.88,-239 135.88,-233 135.88,-233 135.88,-177 135.88,-177 135.88,-171 141.88,-165 147.88,-165 147.88,-165 256.12,-165 256.12,-165 262.12,-165 268.12,-171 268.12,-177 268.12,-177 268.12,-233 268.12,-233 268.12,-239 262.12,-245 256.12,-245"/>
<text xml:space="preserve" text-anchor="middle" x="202" y="-231.5" font-family="Arial" font-size="10.00">LEAF: Compromise Admin</text>
<text xml:space="preserve" text-anchor="middle" x="202" y="-219.5" font-family="Arial" font-size="10.00">Account (see Tree 1)</text>
<text xml:space="preserve" text-anchor="middle" x="202" y="-207.5" font-family="Arial" font-size="10.00">&#45;&#45;&#45;</text>
<text xml:space="preserve" text-anchor="middle" x="202" y="-195.5" font-family="Arial" font-size="10.00">Prerequisite</text>
<text xml:space="preserve" text-anchor="middle" x="202" y="-183.5" font-family="Arial" font-size="10.00">Feasibility: MEDIUM</text>
<text xml:space="preserve" text-anchor="middle" x="202" y="-171.5" font-family="Arial" font-size="10.00">Complexity: MEDIUM</text>
</g>
<!-- and_p3&#45;&gt;leaf3_1 -->
<g id="edge19" class="edge">
<title>and_p3&#45;&gt;leaf3_1</title>
<path fill="none" stroke="black" d="M268.13,-331.92C259.1,-314.72 242.71,-283.51 228.5,-256.47"/>
<polygon fill="black" stroke="black" points="231.64,-254.91 223.89,-247.68 225.44,-258.16 231.64,-254.91"/>
</g>
<!-- leaf3_2 -->
<g id="node21" class="node">
<title>leaf3_2</title>
<path fill="#90ee90" stroke="#ff0000" stroke-width="2" stroke-dasharray="5,2" d="M405.75,-257C405.75,-257 298.25,-257 298.25,-257 292.25,-257 286.25,-251 286.25,-245 286.25,-245 286.25,-165 286.25,-165 286.25,-159 292.25,-153 298.25,-153 298.25,-153 405.75,-153 405.75,-153 411.75,-153 417.75,-159 417.75,-165 417.75,-165 417.75,-245 417.75,-245 417.75,-251 411.75,-257 405.75,-257"/>
<text xml:space="preserve" text-anchor="middle" x="352" y="-243.5" font-family="Arial" font-size="10.00">LEAF: Modify Course</text>
<text xml:space="preserve" text-anchor="middle" x="352" y="-231.5" font-family="Arial" font-size="10.00">Ratings (+5&#45;10 points)</text>
<text xml:space="preserve" text-anchor="middle" x="352" y="-219.5" font-family="Arial" font-size="10.00">&#45;&#45;&#45;</text>
<text xml:space="preserve" text-anchor="middle" x="352" y="-207.5" font-family="Arial" font-size="10.00">Impact: Inflates handicaps</text>
<text xml:space="preserve" text-anchor="middle" x="352" y="-195.5" font-family="Arial" font-size="10.00">Feasibility: MEDIUM</text>
<text xml:space="preserve" text-anchor="middle" x="352" y="-183.5" font-family="Arial" font-size="10.00">Complexity: LOW</text>
<text xml:space="preserve" text-anchor="middle" x="352" y="-171.5" font-family="Arial" font-size="10.00">Cost: LOW</text>
<text xml:space="preserve" text-anchor="middle" x="352" y="-159.5" font-family="Arial" font-size="10.00">Detection: VERY HIGH</text>
</g>
<!-- and_p3&#45;&gt;leaf3_2 -->
<g id="edge20" class="edge">
<title>and_p3&#45;&gt;leaf3_2</title>
<path fill="none" stroke="black" d="M282.24,-331.92C290.47,-317.07 304.48,-291.78 317.8,-267.74"/>
<polygon fill="black" stroke="black" points="320.73,-269.67 322.52,-259.23 314.61,-266.28 320.73,-269.67"/>
</g>
<!-- leaf3_3 -->
<g id="node22" class="node">
<title>leaf3_3</title>
<path fill="#90ee90" stroke="#ff0000" stroke-width="2" stroke-dasharray="5,2" d="M106,-257C106,-257 12,-257 12,-257 6,-257 0,-251 0,-245 0,-245 0,-165 0,-165 0,-159 6,-153 12,-153 12,-153 106,-153 106,-153 112,-153 118,-159 118,-165 118,-165 118,-245 118,-245 118,-251 112,-257 106,-257"/>
<text xml:space="preserve" text-anchor="middle" x="59" y="-243.5" font-family="Arial" font-size="10.00">LEAF: Revert Changes</text>
<text xml:space="preserve" text-anchor="middle" x="59" y="-231.5" font-family="Arial" font-size="10.00">After Tournament</text>
<text xml:space="preserve" text-anchor="middle" x="59" y="-219.5" font-family="Arial" font-size="10.00">&#45;&#45;&#45;</text>
<text xml:space="preserve" text-anchor="middle" x="59" y="-207.5" font-family="Arial" font-size="10.00">Problem: Audit logs</text>
<text xml:space="preserve" text-anchor="middle" x="59" y="-195.5" font-family="Arial" font-size="10.00">Feasibility: MEDIUM</text>
<text xml:space="preserve" text-anchor="middle" x="59" y="-183.5" font-family="Arial" font-size="10.00">Complexity: LOW</text>
<text xml:space="preserve" text-anchor="middle" x="59" y="-171.5" font-family="Arial" font-size="10.00">Cost: LOW</text>
<text xml:space="preserve" text-anchor="middle" x="59" y="-159.5" font-family="Arial" font-size="10.00">Detection: HIGH</text>
</g>
<!-- and_p3&#45;&gt;leaf3_3 -->
<g id="edge21" class="edge">
<title>and_p3&#45;&gt;leaf3_3</title>
<path fill="none" stroke="black" d="M259.97,-336.77C234.4,-322.62 180.74,-292.3 128.25,-257.69"/>
<polygon fill="black" stroke="black" points="130.34,-254.87 120.08,-252.25 126.46,-260.7 130.34,-254.87"/>
</g>
<!-- leaf_post -->
<g id="node24" class="node">
<title>leaf_post</title>
<path fill="#ff6b6b" stroke="black" stroke-width="3" d="M602,-251C602,-251 448,-251 448,-251 442,-251 436,-245 436,-239 436,-239 436,-171 436,-171 436,-165 442,-159 448,-159 448,-159 602,-159 602,-159 608,-159 614,-165 614,-171 614,-171 614,-239 614,-239 614,-245 608,-251 602,-251"/>
<text xml:space="preserve" text-anchor="middle" x="525" y="-237.5" font-family="Arial" font-size="10.00" fill="white">LEAF: Compete in Higher</text>
<text xml:space="preserve" text-anchor="middle" x="525" y="-225.5" font-family="Arial" font-size="10.00" fill="white">Handicap Flight</text>
<text xml:space="preserve" text-anchor="middle" x="525" y="-213.5" font-family="Arial" font-size="10.00" fill="white">&#45;&#45;&#45;</text>
<text xml:space="preserve" text-anchor="middle" x="525" y="-201.5" font-family="Arial" font-size="10.00" fill="white">Outcome: Win vs. weaker opponents</text>
<text xml:space="preserve" text-anchor="middle" x="525" y="-189.5" font-family="Arial" font-size="10.00" fill="white">Financial: Prize money</text>
<text xml:space="preserve" text-anchor="middle" x="525" y="-177.5" font-family="Arial" font-size="10.00" fill="white">Feasibility: HIGH</text>
<text xml:space="preserve" text-anchor="middle" x="525" y="-165.5" font-family="Arial" font-size="10.00" fill="white">Detection: MEDIUM</text>
</g>
<!-- post&#45;&gt;leaf_post -->
<g id="edge25" class="edge">
<title>post&#45;&gt;leaf_post</title>
<path fill="none" stroke="black" d="M565.27,-327.68C559.9,-311.47 551.59,-286.34 543.9,-263.11"/>
<polygon fill="black" stroke="black" points="547.25,-262.09 540.79,-253.7 540.6,-264.29 547.25,-262.09"/>
</g>
</g>
</svg>
