<?xml version="1.0" encoding="UTF-8" standalone="no"?>
<!DOCTYPE svg PUBLIC "-//W3C//DTD SVG 1.1//EN"
 "http://www.w3.org/Graphics/SVG/1.1/DTD/svg11.dtd">
<!-- Generated by graphviz version 14.0.2 (20251019.1705)
 -->
<!-- Title: IDORDataExtraction Pages: 1 -->
<svg width="1382pt" height="622pt"
 viewBox="0.00 0.00 1382.00 622.00" xmlns="http://www.w3.org/2000/svg" xmlns:xlink="http://www.w3.org/1999/xlink">
<g id="graph0" class="graph" transform="scale(1 1) rotate(0) translate(4 617.5)">
<title>IDORDataExtraction</title>
<polygon fill="white" stroke="none" points="-4,4 -4,-617.5 1377.62,-617.5 1377.62,4 -4,4"/>
<!-- root -->
<g id="node1" class="node">
<title>root</title>
<path fill="#ff6b6b" stroke="black" stroke-width="3" d="M981.12,-613.5C981.12,-613.5 826.38,-613.5 826.38,-613.5 820.38,-613.5 814.38,-607.5 814.38,-601.5 814.38,-601.5 814.38,-546.5 814.38,-546.5 814.38,-540.5 820.38,-534.5 826.38,-534.5 826.38,-534.5 981.12,-534.5 981.12,-534.5 987.12,-534.5 993.12,-540.5 993.12,-546.5 993.12,-546.5 993.12,-601.5 993.12,-601.5 993.12,-607.5 987.12,-613.5 981.12,-613.5"/>
<text xml:space="preserve" text-anchor="middle" x="903.75" y="-598.1" font-family="Arial" font-size="12.00" fill="white">ROOT:</text>
<text xml:space="preserve" text-anchor="middle" x="903.75" y="-583.85" font-family="Arial" font-size="12.00" fill="white">Extract All User Data</text>
<text xml:space="preserve" text-anchor="middle" x="903.75" y="-555.6" font-family="Arial" font-size="12.00" fill="white">Impact: HIGH (Privacy Breach)</text>
<text xml:space="preserve" text-anchor="middle" x="903.75" y="-541.35" font-family="Arial" font-size="12.00" fill="white">Threat Actor: TA&#45;05</text>
</g>
<!-- or_main -->
<g id="node2" class="node">
<title>or_main</title>
<polygon fill="#ffd93d" stroke="black" points="855.75,-491.5 828.75,-473.5 855.75,-455.5 882.75,-473.5 855.75,-491.5"/>
<text xml:space="preserve" text-anchor="middle" x="855.75" y="-470" font-family="Arial" font-size="10.00">OR</text>
</g>
<!-- root&#45;&gt;or_main -->
<g id="edge1" class="edge">
<title>root&#45;&gt;or_main</title>
<path fill="none" stroke="black" d="M884.36,-533.22C878.49,-521.17 872.24,-508.34 867.08,-497.75"/>
<polygon fill="black" stroke="black" points="870.35,-496.48 862.83,-489.02 864.06,-499.55 870.35,-496.48"/>
</g>
<!-- gdpr_note -->
<g id="node25" class="node">
<title>gdpr_note</title>
<polygon fill="#ffcccc" stroke="black" points="996.5,-498.5 901,-498.5 901,-448.5 1002.5,-448.5 1002.5,-492.5 996.5,-498.5"/>
<polyline fill="none" stroke="black" points="996.5,-498.5 996.5,-492.5"/>
<polyline fill="none" stroke="black" points="1002.5,-492.5 996.5,-492.5"/>
<text xml:space="preserve" text-anchor="middle" x="951.75" y="-485.95" font-family="Arial" font-size="9.00" fill="#cc0000">GDPR VIOLATION:</text>
<text xml:space="preserve" text-anchor="middle" x="951.75" y="-475.45" font-family="Arial" font-size="9.00" fill="#cc0000">Privacy Breach</text>
<text xml:space="preserve" text-anchor="middle" x="951.75" y="-464.95" font-family="Arial" font-size="9.00" fill="#cc0000">Regulatory Penalties</text>
<text xml:space="preserve" text-anchor="middle" x="951.75" y="-454.45" font-family="Arial" font-size="9.00" fill="#cc0000">(HIGH Impact)</text>
</g>
<!-- root&#45;&gt;gdpr_note -->
<g id="edge26" class="edge">
<title>root&#45;&gt;gdpr_note</title>
<path fill="none" stroke="#cc0000" stroke-dasharray="1,5" d="M923.14,-533.22C928.81,-521.58 934.84,-509.21 939.89,-498.84"/>
</g>
<!-- path1 -->
<g id="node3" class="node">
<title>path1</title>
<path fill="#ffa500" stroke="black" stroke-width="2" d="M774.12,-412.5C774.12,-412.5 667.38,-412.5 667.38,-412.5 661.38,-412.5 655.38,-406.5 655.38,-400.5 655.38,-400.5 655.38,-376 655.38,-376 655.38,-370 661.38,-364 667.38,-364 667.38,-364 774.12,-364 774.12,-364 780.12,-364 786.12,-370 786.12,-376 786.12,-376 786.12,-400.5 786.12,-400.5 786.12,-406.5 780.12,-412.5 774.12,-412.5"/>
<text xml:space="preserve" text-anchor="middle" x="720.75" y="-398.05" font-family="Arial" font-size="11.00">Path 1:</text>
<text xml:space="preserve" text-anchor="middle" x="720.75" y="-384.55" font-family="Arial" font-size="11.00">IDOR Exploitation</text>
<text xml:space="preserve" text-anchor="middle" x="720.75" y="-371.05" font-family="Arial" font-size="11.00">(Systematic Harvesting)</text>
</g>
<!-- or_main&#45;&gt;path1 -->
<g id="edge2" class="edge">
<title>or_main&#45;&gt;path1</title>
<path fill="none" stroke="black" d="M842.06,-464.06C825.12,-453.61 795.35,-435.25 769.54,-419.34"/>
<polygon fill="black" stroke="black" points="771.51,-416.44 761.17,-414.17 767.84,-422.4 771.51,-416.44"/>
</g>
<!-- path2 -->
<g id="node4" class="node">
<title>path2</title>
<path fill="#ffa500" stroke="black" stroke-width="2" d="M894.88,-412.5C894.88,-412.5 816.62,-412.5 816.62,-412.5 810.62,-412.5 804.62,-406.5 804.62,-400.5 804.62,-400.5 804.62,-376 804.62,-376 804.62,-370 810.62,-364 816.62,-364 816.62,-364 894.88,-364 894.88,-364 900.88,-364 906.88,-370 906.88,-376 906.88,-376 906.88,-400.5 906.88,-400.5 906.88,-406.5 900.88,-412.5 894.88,-412.5"/>
<text xml:space="preserve" text-anchor="middle" x="855.75" y="-398.05" font-family="Arial" font-size="11.00">Path 2:</text>
<text xml:space="preserve" text-anchor="middle" x="855.75" y="-384.55" font-family="Arial" font-size="11.00">SQL Injection</text>
<text xml:space="preserve" text-anchor="middle" x="855.75" y="-371.05" font-family="Arial" font-size="11.00">(Database Dump)</text>
</g>
<!-- or_main&#45;&gt;path2 -->
<g id="edge3" class="edge">
<title>or_main&#45;&gt;path2</title>
<path fill="none" stroke="black" d="M855.75,-455.25C855.75,-446.46 855.75,-435.43 855.75,-424.92"/>
<polygon fill="black" stroke="black" points="859.25,-424.94 855.75,-414.94 852.25,-424.94 859.25,-424.94"/>
</g>
<!-- path3 -->
<g id="node5" class="node">
<title>path3</title>
<path fill="#ffa500" stroke="black" stroke-width="2" d="M1115.38,-412.5C1115.38,-412.5 1034.12,-412.5 1034.12,-412.5 1028.12,-412.5 1022.12,-406.5 1022.12,-400.5 1022.12,-400.5 1022.12,-376 1022.12,-376 1022.12,-370 1028.12,-364 1034.12,-364 1034.12,-364 1115.38,-364 1115.38,-364 1121.38,-364 1127.38,-370 1127.38,-376 1127.38,-376 1127.38,-400.5 1127.38,-400.5 1127.38,-406.5 1121.38,-412.5 1115.38,-412.5"/>
<text xml:space="preserve" text-anchor="middle" x="1074.75" y="-398.05" font-family="Arial" font-size="11.00">Path 3:</text>
<text xml:space="preserve" text-anchor="middle" x="1074.75" y="-384.55" font-family="Arial" font-size="11.00">Credential Stuffing</text>
<text xml:space="preserve" text-anchor="middle" x="1074.75" y="-371.05" font-family="Arial" font-size="11.00">(Account Access)</text>
</g>
<!-- or_main&#45;&gt;path3 -->
<g id="edge4" class="edge">
<title>or_main&#45;&gt;path3</title>
<path fill="none" stroke="black" d="M867.91,-463.17C874.66,-458.31 883.37,-452.56 891.75,-448.5 929.62,-430.18 974.53,-415.54 1010.38,-405.4"/>
<polygon fill="black" stroke="black" points="1011.04,-408.85 1019.74,-402.8 1009.17,-402.11 1011.04,-408.85"/>
</g>
<!-- and_p1 -->
<g id="node6" class="node">
<title>and_p1</title>
<polygon fill="#ffa500" stroke="black" points="406.75,-288 374.65,-270 406.75,-252 438.85,-270 406.75,-288"/>
<text xml:space="preserve" text-anchor="middle" x="406.75" y="-266.5" font-family="Arial" font-size="10.00">AND</text>
</g>
<!-- path1&#45;&gt;and_p1 -->
<g id="edge5" class="edge">
<title>path1&#45;&gt;and_p1</title>
<path fill="none" stroke="black" d="M654.38,-373.55C611.13,-363.52 553.98,-348.15 505.75,-328 478.6,-316.66 449.68,-299.32 430.15,-286.75"/>
<polygon fill="black" stroke="black" points="432.14,-283.87 421.86,-281.32 428.31,-289.73 432.14,-283.87"/>
</g>
<!-- post -->
<g id="node20" class="node">
<title>post</title>
<path fill="none" stroke="black" d="M763.25,-288C763.25,-288 678.25,-288 678.25,-288 672.25,-288 666.25,-282 666.25,-276 666.25,-276 666.25,-264 666.25,-264 666.25,-258 672.25,-252 678.25,-252 678.25,-252 763.25,-252 763.25,-252 769.25,-252 775.25,-258 775.25,-264 775.25,-264 775.25,-276 775.25,-276 775.25,-282 769.25,-288 763.25,-288"/>
<text xml:space="preserve" text-anchor="middle" x="720.75" y="-266.5" font-family="Arial" font-size="10.00">Post&#45;Harvest Actions</text>
</g>
<!-- path1&#45;&gt;post -->
<g id="edge19" class="edge">
<title>path1&#45;&gt;post</title>
<path fill="none" stroke="#00aa00" stroke-dasharray="5,2" d="M720.75,-363.16C720.75,-344.66 720.75,-319.05 720.75,-299.52"/>
<polygon fill="#00aa00" stroke="#00aa00" points="724.25,-299.78 720.75,-289.78 717.25,-299.78 724.25,-299.78"/>
</g>
<!-- leaf2_1 -->
<g id="node15" class="node">
<title>leaf2_1</title>
<path fill="#90ee90" stroke="#ffa500" stroke-width="3" d="M1068.38,-316C1068.38,-316 951.12,-316 951.12,-316 945.12,-316 939.12,-310 939.12,-304 939.12,-304 939.12,-236 939.12,-236 939.12,-230 945.12,-224 951.12,-224 951.12,-224 1068.38,-224 1068.38,-224 1074.38,-224 1080.38,-230 1080.38,-236 1080.38,-236 1080.38,-304 1080.38,-304 1080.38,-310 1074.38,-316 1068.38,-316"/>
<text xml:space="preserve" text-anchor="middle" x="1009.75" y="-302.5" font-family="Arial" font-size="10.00">LEAF: Identify SQL Injection</text>
<text xml:space="preserve" text-anchor="middle" x="1009.75" y="-290.5" font-family="Arial" font-size="10.00">+ Extract Schema</text>
<text xml:space="preserve" text-anchor="middle" x="1009.75" y="-278.5" font-family="Arial" font-size="10.00">&#45;&#45;&#45;</text>
<text xml:space="preserve" text-anchor="middle" x="1009.75" y="-266.5" font-family="Arial" font-size="10.00">Feasibility: MEDIUM</text>
<text xml:space="preserve" text-anchor="middle" x="1009.75" y="-254.5" font-family="Arial" font-size="10.00">Complexity: MEDIUM</text>
<text xml:space="preserve" text-anchor="middle" x="1009.75" y="-242.5" font-family="Arial" font-size="10.00">Cost: FREE</text>
<text xml:space="preserve" text-anchor="middle" x="1009.75" y="-230.5" font-family="Arial" font-size="10.00">Detection: MEDIUM</text>
</g>
<!-- path2&#45;&gt;leaf2_1 -->
<g id="edge14" class="edge">
<title>path2&#45;&gt;leaf2_1</title>
<path fill="none" stroke="black" d="M887.66,-363.16C902.73,-351.79 921.35,-337.73 939.47,-324.05"/>
<polygon fill="black" stroke="black" points="941.23,-327.11 947.1,-318.29 937.01,-321.52 941.23,-327.11"/>
</g>
<!-- leaf2_2 -->
<g id="node16" class="node">
<title>leaf2_2</title>
<path fill="#90ee90" stroke="#ffa500" stroke-width="3" d="M636.62,-322C636.62,-322 526.88,-322 526.88,-322 520.88,-322 514.88,-316 514.88,-310 514.88,-310 514.88,-230 514.88,-230 514.88,-224 520.88,-218 526.88,-218 526.88,-218 636.62,-218 636.62,-218 642.62,-218 648.62,-224 648.62,-230 648.62,-230 648.62,-310 648.62,-310 648.62,-316 642.62,-322 636.62,-322"/>
<text xml:space="preserve" text-anchor="middle" x="581.75" y="-308.5" font-family="Arial" font-size="10.00">LEAF: Dump Users Table</text>
<text xml:space="preserve" text-anchor="middle" x="581.75" y="-296.5" font-family="Arial" font-size="10.00">with Credentials</text>
<text xml:space="preserve" text-anchor="middle" x="581.75" y="-284.5" font-family="Arial" font-size="10.00">&#45;&#45;&#45;</text>
<text xml:space="preserve" text-anchor="middle" x="581.75" y="-272.5" font-family="Arial" font-size="10.00">Tool: sqlmap &#45;&#45;dump</text>
<text xml:space="preserve" text-anchor="middle" x="581.75" y="-260.5" font-family="Arial" font-size="10.00">Feasibility: MEDIUM</text>
<text xml:space="preserve" text-anchor="middle" x="581.75" y="-248.5" font-family="Arial" font-size="10.00">Complexity: MEDIUM</text>
<text xml:space="preserve" text-anchor="middle" x="581.75" y="-236.5" font-family="Arial" font-size="10.00">Cost: FREE</text>
<text xml:space="preserve" text-anchor="middle" x="581.75" y="-224.5" font-family="Arial" font-size="10.00">Detection: MEDIUM&#45;HIGH</text>
</g>
<!-- path2&#45;&gt;leaf2_2 -->
<g id="edge15" class="edge">
<title>path2&#45;&gt;leaf2_2</title>
<path fill="none" stroke="black" d="M803.64,-366.97C800.64,-365.93 797.66,-364.94 794.75,-364 738.08,-345.81 716.78,-354.32 659.23,-328.24"/>
<polygon fill="black" stroke="black" points="660.77,-325.09 650.23,-324 657.78,-331.43 660.77,-325.09"/>
</g>
<!-- leaf2_3 -->
<g id="node17" class="node">
<title>leaf2_3</title>
<path fill="#90ee90" stroke="#ffa500" stroke-width="3" d="M908.62,-328C908.62,-328 804.88,-328 804.88,-328 798.88,-328 792.88,-322 792.88,-316 792.88,-316 792.88,-224 792.88,-224 792.88,-218 798.88,-212 804.88,-212 804.88,-212 908.62,-212 908.62,-212 914.62,-212 920.62,-218 920.62,-224 920.62,-224 920.62,-316 920.62,-316 920.62,-322 914.62,-328 908.62,-328"/>
<text xml:space="preserve" text-anchor="middle" x="856.75" y="-314.5" font-family="Arial" font-size="10.00">LEAF: Crack SHA256</text>
<text xml:space="preserve" text-anchor="middle" x="856.75" y="-302.5" font-family="Arial" font-size="10.00">Password Hashes</text>
<text xml:space="preserve" text-anchor="middle" x="856.75" y="-290.5" font-family="Arial" font-size="10.00">&#45;&#45;&#45;</text>
<text xml:space="preserve" text-anchor="middle" x="856.75" y="-278.5" font-family="Arial" font-size="10.00">Vuln: models.py:30</text>
<text xml:space="preserve" text-anchor="middle" x="856.75" y="-266.5" font-family="Arial" font-size="10.00">Tool: hashcat</text>
<text xml:space="preserve" text-anchor="middle" x="856.75" y="-254.5" font-family="Arial" font-size="10.00">Feasibility: HIGH</text>
<text xml:space="preserve" text-anchor="middle" x="856.75" y="-242.5" font-family="Arial" font-size="10.00">Complexity: MEDIUM</text>
<text xml:space="preserve" text-anchor="middle" x="856.75" y="-230.5" font-family="Arial" font-size="10.00">Cost: MEDIUM (GPU)</text>
<text xml:space="preserve" text-anchor="middle" x="856.75" y="-218.5" font-family="Arial" font-size="10.00">Detection: NONE (offline)</text>
</g>
<!-- path2&#45;&gt;leaf2_3 -->
<g id="edge16" class="edge">
<title>path2&#45;&gt;leaf2_3</title>
<path fill="none" stroke="black" d="M855.96,-363.16C856.02,-356.38 856.08,-348.65 856.15,-340.61"/>
<polygon fill="black" stroke="black" points="859.65,-340.65 856.24,-330.62 852.65,-340.59 859.65,-340.65"/>
</g>
<!-- path2&#45;&gt;post -->
<g id="edge20" class="edge">
<title>path2&#45;&gt;post</title>
<path fill="none" stroke="#00aa00" stroke-dasharray="5,2" d="M825.71,-363.06C812.7,-352.44 797.35,-339.74 783.75,-328 771.86,-317.73 758.95,-306.14 747.94,-296.11"/>
<polygon fill="#00aa00" stroke="#00aa00" points="750.42,-293.64 740.68,-289.47 745.7,-298.8 750.42,-293.64"/>
</g>
<!-- leaf3_1 -->
<g id="node18" class="node">
<title>leaf3_1</title>
<path fill="#90ee90" stroke="#ff0000" stroke-width="2" d="M1361.62,-316C1361.62,-316 1275.88,-316 1275.88,-316 1269.88,-316 1263.88,-310 1263.88,-304 1263.88,-304 1263.88,-236 1263.88,-236 1263.88,-230 1269.88,-224 1275.88,-224 1275.88,-224 1361.62,-224 1361.62,-224 1367.62,-224 1373.62,-230 1373.62,-236 1373.62,-236 1373.62,-304 1373.62,-304 1373.62,-310 1367.62,-316 1361.62,-316"/>
<text xml:space="preserve" text-anchor="middle" x="1318.75" y="-302.5" font-family="Arial" font-size="10.00">LEAF: Obtain Leaked</text>
<text xml:space="preserve" text-anchor="middle" x="1318.75" y="-290.5" font-family="Arial" font-size="10.00">Credential Database</text>
<text xml:space="preserve" text-anchor="middle" x="1318.75" y="-278.5" font-family="Arial" font-size="10.00">&#45;&#45;&#45;</text>
<text xml:space="preserve" text-anchor="middle" x="1318.75" y="-266.5" font-family="Arial" font-size="10.00">Feasibility: HIGH</text>
<text xml:space="preserve" text-anchor="middle" x="1318.75" y="-254.5" font-family="Arial" font-size="10.00">Complexity: LOW</text>
<text xml:space="preserve" text-anchor="middle" x="1318.75" y="-242.5" font-family="Arial" font-size="10.00">Cost: FREE</text>
<text xml:space="preserve" text-anchor="middle" x="1318.75" y="-230.5" font-family="Arial" font-size="10.00">Detection: NONE</text>
</g>
<!-- path3&#45;&gt;leaf3_1 -->
<g id="edge17" class="edge">
<title>path3&#45;&gt;leaf3_1</title>
<path fill="none" stroke="black" d="M1128.35,-375.74C1165.47,-366.34 1215.13,-350.83 1254.75,-328 1257.23,-326.57 1259.7,-325.03 1262.15,-323.41"/>
<polygon fill="black" stroke="black" points="1264.09,-326.33 1270.21,-317.68 1260.03,-320.62 1264.09,-326.33"/>
</g>
<!-- leaf3_2 -->
<g id="node19" class="node">
<title>leaf3_2</title>
<path fill="#90ee90" stroke="#ff0000" stroke-width="2" d="M1233.38,-322C1233.38,-322 1110.12,-322 1110.12,-322 1104.12,-322 1098.12,-316 1098.12,-310 1098.12,-310 1098.12,-230 1098.12,-230 1098.12,-224 1104.12,-218 1110.12,-218 1110.12,-218 1233.38,-218 1233.38,-218 1239.38,-218 1245.38,-224 1245.38,-230 1245.38,-230 1245.38,-310 1245.38,-310 1245.38,-316 1239.38,-322 1233.38,-322"/>
<text xml:space="preserve" text-anchor="middle" x="1171.75" y="-308.5" font-family="Arial" font-size="10.00">LEAF: Enumerate Usernames</text>
<text xml:space="preserve" text-anchor="middle" x="1171.75" y="-296.5" font-family="Arial" font-size="10.00">+ Test Credentials</text>
<text xml:space="preserve" text-anchor="middle" x="1171.75" y="-284.5" font-family="Arial" font-size="10.00">&#45;&#45;&#45;</text>
<text xml:space="preserve" text-anchor="middle" x="1171.75" y="-272.5" font-family="Arial" font-size="10.00">Vuln: No rate limiting</text>
<text xml:space="preserve" text-anchor="middle" x="1171.75" y="-260.5" font-family="Arial" font-size="10.00">Feasibility: HIGH</text>
<text xml:space="preserve" text-anchor="middle" x="1171.75" y="-248.5" font-family="Arial" font-size="10.00">Complexity: LOW</text>
<text xml:space="preserve" text-anchor="middle" x="1171.75" y="-236.5" font-family="Arial" font-size="10.00">Cost: FREE</text>
<text xml:space="preserve" text-anchor="middle" x="1171.75" y="-224.5" font-family="Arial" font-size="10.00">Detection: MEDIUM</text>
</g>
<!-- path3&#45;&gt;leaf3_2 -->
<g id="edge18" class="edge">
<title>path3&#45;&gt;leaf3_2</title>
<path fill="none" stroke="black" d="M1094.85,-363.16C1102.63,-353.84 1111.92,-342.7 1121.31,-331.45"/>
<polygon fill="black" stroke="black" points="1123.79,-333.94 1127.51,-324.02 1118.42,-329.45 1123.79,-333.94"/>
</g>
<!-- path3&#45;&gt;post -->
<g id="edge21" class="edge">
<title>path3&#45;&gt;post</title>
<path fill="none" stroke="#00aa00" stroke-dasharray="5,2" d="M1021.27,-379.82C949.04,-369.2 824.64,-348.68 783.75,-328 768.54,-320.31 754.23,-307.95 743.1,-296.7"/>
<polygon fill="#00aa00" stroke="#00aa00" points="745.71,-294.36 736.29,-289.51 740.62,-299.18 745.71,-294.36"/>
</g>
<!-- sg1_1 -->
<g id="node7" class="node">
<title>sg1_1</title>
<path fill="none" stroke="black" d="M212.5,-176C212.5,-176 153,-176 153,-176 147,-176 141,-170 141,-164 141,-164 141,-152 141,-152 141,-146 147,-140 153,-140 153,-140 212.5,-140 212.5,-140 218.5,-140 224.5,-146 224.5,-152 224.5,-152 224.5,-164 224.5,-164 224.5,-170 218.5,-176 212.5,-176"/>
<text xml:space="preserve" text-anchor="middle" x="182.75" y="-160.5" font-family="Arial" font-size="10.00">Discover IDOR</text>
<text xml:space="preserve" text-anchor="middle" x="182.75" y="-148.5" font-family="Arial" font-size="10.00">Vulnerability</text>
</g>
<!-- and_p1&#45;&gt;sg1_1 -->
<g id="edge6" class="edge">
<title>and_p1&#45;&gt;sg1_1</title>
<path fill="none" stroke="black" d="M390.28,-260.91C356.6,-244.37 278.83,-206.18 228.64,-181.54"/>
<polygon fill="black" stroke="black" points="230.25,-178.43 219.73,-177.16 227.17,-184.71 230.25,-178.43"/>
</g>
<!-- sg1_2 -->
<g id="node8" class="node">
<title>sg1_2</title>
<path fill="none" stroke="black" d="M355.38,-176C355.38,-176 316.12,-176 316.12,-176 310.12,-176 304.12,-170 304.12,-164 304.12,-164 304.12,-152 304.12,-152 304.12,-146 310.12,-140 316.12,-140 316.12,-140 355.38,-140 355.38,-140 361.38,-140 367.38,-146 367.38,-152 367.38,-152 367.38,-164 367.38,-164 367.38,-170 361.38,-176 355.38,-176"/>
<text xml:space="preserve" text-anchor="middle" x="335.75" y="-160.5" font-family="Arial" font-size="10.00">Enumerate</text>
<text xml:space="preserve" text-anchor="middle" x="335.75" y="-148.5" font-family="Arial" font-size="10.00">User IDs</text>
</g>
<!-- and_p1&#45;&gt;sg1_2 -->
<g id="edge7" class="edge">
<title>and_p1&#45;&gt;sg1_2</title>
<path fill="none" stroke="black" d="M398.61,-256.38C387.55,-239.25 367.51,-208.21 353.03,-185.77"/>
<polygon fill="black" stroke="black" points="356,-183.92 347.64,-177.42 350.12,-187.72 356,-183.92"/>
</g>
<!-- sg1_3 -->
<g id="node9" class="node">
<title>sg1_3</title>
<path fill="none" stroke="black" d="M485.38,-176C485.38,-176 422.12,-176 422.12,-176 416.12,-176 410.12,-170 410.12,-164 410.12,-164 410.12,-152 410.12,-152 410.12,-146 416.12,-140 422.12,-140 422.12,-140 485.38,-140 485.38,-140 491.38,-140 497.38,-146 497.38,-152 497.38,-152 497.38,-164 497.38,-164 497.38,-170 491.38,-176 485.38,-176"/>
<text xml:space="preserve" text-anchor="middle" x="453.75" y="-160.5" font-family="Arial" font-size="10.00">Automate</text>
<text xml:space="preserve" text-anchor="middle" x="453.75" y="-148.5" font-family="Arial" font-size="10.00">Data Harvesting</text>
</g>
<!-- and_p1&#45;&gt;sg1_3 -->
<g id="edge8" class="edge">
<title>and_p1&#45;&gt;sg1_3</title>
<path fill="none" stroke="black" d="M412.7,-255.07C420.01,-237.96 432.59,-208.52 441.9,-186.73"/>
<polygon fill="black" stroke="black" points="444.99,-188.4 445.7,-177.83 438.56,-185.65 444.99,-188.4"/>
</g>
<!-- leaf1_1 -->
<g id="node10" class="node">
<title>leaf1_1</title>
<path fill="#90ee90" stroke="#ff0000" stroke-width="2" d="M227.88,-98C227.88,-98 137.62,-98 137.62,-98 131.62,-98 125.62,-92 125.62,-86 125.62,-86 125.62,-18 125.62,-18 125.62,-12 131.62,-6 137.62,-6 137.62,-6 227.88,-6 227.88,-6 233.88,-6 239.88,-12 239.88,-18 239.88,-18 239.88,-86 239.88,-86 239.88,-92 233.88,-98 227.88,-98"/>
<text xml:space="preserve" text-anchor="middle" x="182.75" y="-84.5" font-family="Arial" font-size="10.00">LEAF: Create Account</text>
<text xml:space="preserve" text-anchor="middle" x="182.75" y="-72.5" font-family="Arial" font-size="10.00">+ Access Own Data</text>
<text xml:space="preserve" text-anchor="middle" x="182.75" y="-60.5" font-family="Arial" font-size="10.00">&#45;&#45;&#45;</text>
<text xml:space="preserve" text-anchor="middle" x="182.75" y="-48.5" font-family="Arial" font-size="10.00">Feasibility: HIGH</text>
<text xml:space="preserve" text-anchor="middle" x="182.75" y="-36.5" font-family="Arial" font-size="10.00">Complexity: LOW</text>
<text xml:space="preserve" text-anchor="middle" x="182.75" y="-24.5" font-family="Arial" font-size="10.00">Cost: FREE</text>
<text xml:space="preserve" text-anchor="middle" x="182.75" y="-12.5" font-family="Arial" font-size="10.00">Detection: NONE</text>
</g>
<!-- sg1_1&#45;&gt;leaf1_1 -->
<g id="edge9" class="edge">
<title>sg1_1&#45;&gt;leaf1_1</title>
<path fill="none" stroke="black" d="M182.75,-139.83C182.75,-131.52 182.75,-121.02 182.75,-110.21"/>
<polygon fill="black" stroke="black" points="186.25,-110.44 182.75,-100.44 179.25,-110.44 186.25,-110.44"/>
</g>
<!-- leaf1_2 -->
<g id="node11" class="node">
<title>leaf1_2</title>
<path fill="#90ee90" stroke="#ff0000" stroke-width="2" d="M95.5,-104C95.5,-104 12,-104 12,-104 6,-104 0,-98 0,-92 0,-92 0,-12 0,-12 0,-6 6,0 12,0 12,0 95.5,0 95.5,0 101.5,0 107.5,-6 107.5,-12 107.5,-12 107.5,-92 107.5,-92 107.5,-98 101.5,-104 95.5,-104"/>
<text xml:space="preserve" text-anchor="middle" x="53.75" y="-90.5" font-family="Arial" font-size="10.00">LEAF: Test IDOR by</text>
<text xml:space="preserve" text-anchor="middle" x="53.75" y="-78.5" font-family="Arial" font-size="10.00">Modifying user_id</text>
<text xml:space="preserve" text-anchor="middle" x="53.75" y="-66.5" font-family="Arial" font-size="10.00">&#45;&#45;&#45;</text>
<text xml:space="preserve" text-anchor="middle" x="53.75" y="-54.5" font-family="Arial" font-size="10.00">Vuln: app.py:366&#45;380</text>
<text xml:space="preserve" text-anchor="middle" x="53.75" y="-42.5" font-family="Arial" font-size="10.00">Feasibility: HIGH</text>
<text xml:space="preserve" text-anchor="middle" x="53.75" y="-30.5" font-family="Arial" font-size="10.00">Complexity: LOW</text>
<text xml:space="preserve" text-anchor="middle" x="53.75" y="-18.5" font-family="Arial" font-size="10.00">Cost: FREE</text>
<text xml:space="preserve" text-anchor="middle" x="53.75" y="-6.5" font-family="Arial" font-size="10.00">Detection: LOW</text>
</g>
<!-- sg1_1&#45;&gt;leaf1_2 -->
<g id="edge10" class="edge">
<title>sg1_1&#45;&gt;leaf1_2</title>
<path fill="none" stroke="black" d="M161.03,-139.6C149.86,-130.64 135.86,-119.4 117.26,-104.4"/>
<polygon fill="black" stroke="black" points="119.54,-101.74 109.55,-98.19 115.14,-107.19 119.54,-101.74"/>
</g>
<!-- leaf1_3 -->
<g id="node12" class="node">
<title>leaf1_3</title>
<path fill="#90ee90" stroke="#ff0000" stroke-width="2" d="M353.12,-98C353.12,-98 270.38,-98 270.38,-98 264.38,-98 258.38,-92 258.38,-86 258.38,-86 258.38,-18 258.38,-18 258.38,-12 264.38,-6 270.38,-6 270.38,-6 353.12,-6 353.12,-6 359.12,-6 365.12,-12 365.12,-18 365.12,-18 365.12,-86 365.12,-86 365.12,-92 359.12,-98 353.12,-98"/>
<text xml:space="preserve" text-anchor="middle" x="311.75" y="-84.5" font-family="Arial" font-size="10.00">LEAF: Sequential ID</text>
<text xml:space="preserve" text-anchor="middle" x="311.75" y="-72.5" font-family="Arial" font-size="10.00">Enumeration (1 to N)</text>
<text xml:space="preserve" text-anchor="middle" x="311.75" y="-60.5" font-family="Arial" font-size="10.00">&#45;&#45;&#45;</text>
<text xml:space="preserve" text-anchor="middle" x="311.75" y="-48.5" font-family="Arial" font-size="10.00">Feasibility: HIGH</text>
<text xml:space="preserve" text-anchor="middle" x="311.75" y="-36.5" font-family="Arial" font-size="10.00">Complexity: LOW</text>
<text xml:space="preserve" text-anchor="middle" x="311.75" y="-24.5" font-family="Arial" font-size="10.00">Cost: FREE</text>
<text xml:space="preserve" text-anchor="middle" x="311.75" y="-12.5" font-family="Arial" font-size="10.00">Detection: MEDIUM</text>
</g>
<!-- sg1_2&#45;&gt;leaf1_3 -->
<g id="edge11" class="edge">
<title>sg1_2&#45;&gt;leaf1_3</title>
<path fill="none" stroke="black" d="M331.79,-139.83C329.85,-131.43 327.4,-120.8 324.87,-109.87"/>
<polygon fill="black" stroke="black" points="328.35,-109.36 322.69,-100.4 321.53,-110.93 328.35,-109.36"/>
</g>
<!-- leaf1_4 -->
<g id="node13" class="node">
<title>leaf1_4</title>
<path fill="#90ee90" stroke="#ff0000" stroke-width="2" d="M661.5,-104C661.5,-104 554,-104 554,-104 548,-104 542,-98 542,-92 542,-92 542,-12 542,-12 542,-6 548,0 554,0 554,0 661.5,0 661.5,0 667.5,0 673.5,-6 673.5,-12 673.5,-12 673.5,-92 673.5,-92 673.5,-98 667.5,-104 661.5,-104"/>
<text xml:space="preserve" text-anchor="middle" x="607.75" y="-90.5" font-family="Arial" font-size="10.00">LEAF: Write Python Script</text>
<text xml:space="preserve" text-anchor="middle" x="607.75" y="-78.5" font-family="Arial" font-size="10.00">for Mass Collection</text>
<text xml:space="preserve" text-anchor="middle" x="607.75" y="-66.5" font-family="Arial" font-size="10.00">&#45;&#45;&#45;</text>
<text xml:space="preserve" text-anchor="middle" x="607.75" y="-54.5" font-family="Arial" font-size="10.00">Rate: 10&#45;100 req/sec</text>
<text xml:space="preserve" text-anchor="middle" x="607.75" y="-42.5" font-family="Arial" font-size="10.00">Feasibility: HIGH</text>
<text xml:space="preserve" text-anchor="middle" x="607.75" y="-30.5" font-family="Arial" font-size="10.00">Complexity: LOW</text>
<text xml:space="preserve" text-anchor="middle" x="607.75" y="-18.5" font-family="Arial" font-size="10.00">Cost: FREE</text>
<text xml:space="preserve" text-anchor="middle" x="607.75" y="-6.5" font-family="Arial" font-size="10.00">Detection: MEDIUM</text>
</g>
<!-- sg1_3&#45;&gt;leaf1_4 -->
<g id="edge12" class="edge">
<title>sg1_3&#45;&gt;leaf1_4</title>
<path fill="none" stroke="black" d="M479.75,-139.62C493.25,-130.58 510.18,-119.22 531.64,-104.74"/>
<polygon fill="black" stroke="black" points="533.53,-107.69 539.85,-99.19 529.61,-101.89 533.53,-107.69"/>
</g>
<!-- leaf1_5 -->
<g id="node14" class="node">
<title>leaf1_5</title>
<path fill="#90ee90" stroke="#ff0000" stroke-width="2" d="M512,-92C512,-92 395.5,-92 395.5,-92 389.5,-92 383.5,-86 383.5,-80 383.5,-80 383.5,-24 383.5,-24 383.5,-18 389.5,-12 395.5,-12 395.5,-12 512,-12 512,-12 518,-12 524,-18 524,-24 524,-24 524,-80 524,-80 524,-86 518,-92 512,-92"/>
<text xml:space="preserve" text-anchor="middle" x="453.75" y="-78.5" font-family="Arial" font-size="10.00">LEAF: Bypass Rate Limiting</text>
<text xml:space="preserve" text-anchor="middle" x="453.75" y="-66.5" font-family="Arial" font-size="10.00">(NONE EXISTS)</text>
<text xml:space="preserve" text-anchor="middle" x="453.75" y="-54.5" font-family="Arial" font-size="10.00">&#45;&#45;&#45;</text>
<text xml:space="preserve" text-anchor="middle" x="453.75" y="-42.5" font-family="Arial" font-size="10.00">Feasibility: HIGH</text>
<text xml:space="preserve" text-anchor="middle" x="453.75" y="-30.5" font-family="Arial" font-size="10.00">Complexity: LOW</text>
<text xml:space="preserve" text-anchor="middle" x="453.75" y="-18.5" font-family="Arial" font-size="10.00">Detection: LOW</text>
</g>
<!-- sg1_3&#45;&gt;leaf1_5 -->
<g id="edge13" class="edge">
<title>sg1_3&#45;&gt;leaf1_5</title>
<path fill="none" stroke="black" d="M453.75,-139.83C453.75,-129.92 453.75,-116.89 453.75,-103.95"/>
<polygon fill="black" stroke="black" points="457.25,-104.2 453.75,-94.2 450.25,-104.2 457.25,-104.2"/>
</g>
<!-- or_post -->
<g id="node21" class="node">
<title>or_post</title>
<polygon fill="#ffd93d" stroke="black" points="822.75,-176 795.75,-158 822.75,-140 849.75,-158 822.75,-176"/>
<text xml:space="preserve" text-anchor="middle" x="822.75" y="-154.7" font-family="Arial" font-size="9.00">OR</text>
</g>
<!-- post&#45;&gt;or_post -->
<g id="edge22" class="edge">
<title>post&#45;&gt;or_post</title>
<path fill="none" stroke="black" d="M736.69,-251.81C755.23,-231.81 785.77,-198.88 805.04,-178.09"/>
<polygon fill="black" stroke="black" points="807.52,-180.57 811.75,-170.86 802.39,-175.81 807.52,-180.57"/>
</g>
<!-- leaf_post1 -->
<g id="node22" class="node">
<title>leaf_post1</title>
<path fill="#ff6b6b" stroke="black" stroke-width="2" d="M808,-92C808,-92 703.5,-92 703.5,-92 697.5,-92 691.5,-86 691.5,-80 691.5,-80 691.5,-24 691.5,-24 691.5,-18 697.5,-12 703.5,-12 703.5,-12 808,-12 808,-12 814,-12 820,-18 820,-24 820,-24 820,-80 820,-80 820,-86 814,-92 808,-92"/>
<text xml:space="preserve" text-anchor="middle" x="755.75" y="-78.5" font-family="Arial" font-size="10.00" fill="white">LEAF: Sell Data on</text>
<text xml:space="preserve" text-anchor="middle" x="755.75" y="-66.5" font-family="Arial" font-size="10.00" fill="white">Dark Web Markets</text>
<text xml:space="preserve" text-anchor="middle" x="755.75" y="-54.5" font-family="Arial" font-size="10.00" fill="white">&#45;&#45;&#45;</text>
<text xml:space="preserve" text-anchor="middle" x="755.75" y="-42.5" font-family="Arial" font-size="10.00" fill="white">Price: $0.50&#45;$5 per record</text>
<text xml:space="preserve" text-anchor="middle" x="755.75" y="-30.5" font-family="Arial" font-size="10.00" fill="white">Feasibility: MEDIUM</text>
<text xml:space="preserve" text-anchor="middle" x="755.75" y="-18.5" font-family="Arial" font-size="10.00" fill="white">Detection: LOW</text>
</g>
<!-- or_post&#45;&gt;leaf_post1 -->
<g id="edge23" class="edge">
<title>or_post&#45;&gt;leaf_post1</title>
<path fill="none" stroke="black" d="M815.06,-145.07C808.23,-134.45 797.75,-118.19 787.49,-102.26"/>
<polygon fill="black" stroke="black" points="790.68,-100.76 782.32,-94.24 784.79,-104.55 790.68,-100.76"/>
</g>
<!-- leaf_post2 -->
<g id="node23" class="node">
<title>leaf_post2</title>
<path fill="#ff6b6b" stroke="black" stroke-width="2" d="M931.75,-86C931.75,-86 849.75,-86 849.75,-86 843.75,-86 837.75,-80 837.75,-74 837.75,-74 837.75,-30 837.75,-30 837.75,-24 843.75,-18 849.75,-18 849.75,-18 931.75,-18 931.75,-18 937.75,-18 943.75,-24 943.75,-30 943.75,-30 943.75,-74 943.75,-74 943.75,-80 937.75,-86 931.75,-86"/>
<text xml:space="preserve" text-anchor="middle" x="890.75" y="-72.5" font-family="Arial" font-size="10.00" fill="white">LEAF: Targeted</text>
<text xml:space="preserve" text-anchor="middle" x="890.75" y="-60.5" font-family="Arial" font-size="10.00" fill="white">Phishing Campaigns</text>
<text xml:space="preserve" text-anchor="middle" x="890.75" y="-48.5" font-family="Arial" font-size="10.00" fill="white">&#45;&#45;&#45;</text>
<text xml:space="preserve" text-anchor="middle" x="890.75" y="-36.5" font-family="Arial" font-size="10.00" fill="white">Feasibility: HIGH</text>
<text xml:space="preserve" text-anchor="middle" x="890.75" y="-24.5" font-family="Arial" font-size="10.00" fill="white">Detection: MEDIUM</text>
</g>
<!-- or_post&#45;&gt;leaf_post2 -->
<g id="edge24" class="edge">
<title>or_post&#45;&gt;leaf_post2</title>
<path fill="none" stroke="black" d="M830.55,-145.07C838.32,-133.19 850.72,-114.21 862.26,-96.57"/>
<polygon fill="black" stroke="black" points="865.17,-98.52 867.71,-88.23 859.31,-94.68 865.17,-98.52"/>
</g>
<!-- leaf_post3 -->
<g id="node24" class="node">
<title>leaf_post3</title>
<path fill="#ff6b6b" stroke="black" stroke-width="2" d="M1101.62,-86C1101.62,-86 973.88,-86 973.88,-86 967.88,-86 961.88,-80 961.88,-74 961.88,-74 961.88,-30 961.88,-30 961.88,-24 967.88,-18 973.88,-18 973.88,-18 1101.62,-18 1101.62,-18 1107.62,-18 1113.62,-24 1113.62,-30 1113.62,-30 1113.62,-74 1113.62,-74 1113.62,-80 1107.62,-86 1101.62,-86"/>
<text xml:space="preserve" text-anchor="middle" x="1037.75" y="-72.5" font-family="Arial" font-size="10.00" fill="white">LEAF: Competitive Intelligence</text>
<text xml:space="preserve" text-anchor="middle" x="1037.75" y="-60.5" font-family="Arial" font-size="10.00" fill="white">Sale (Premium)</text>
<text xml:space="preserve" text-anchor="middle" x="1037.75" y="-48.5" font-family="Arial" font-size="10.00" fill="white">&#45;&#45;&#45;</text>
<text xml:space="preserve" text-anchor="middle" x="1037.75" y="-36.5" font-family="Arial" font-size="10.00" fill="white">Feasibility: MEDIUM</text>
<text xml:space="preserve" text-anchor="middle" x="1037.75" y="-24.5" font-family="Arial" font-size="10.00" fill="white">Detection: LOW</text>
</g>
<!-- or_post&#45;&gt;leaf_post3 -->
<g id="edge25" class="edge">
<title>or_post&#45;&gt;leaf_post3</title>
<path fill="none" stroke="black" d="M839.95,-150.95C865.18,-141.85 913.51,-123.62 952.75,-104 959.84,-100.45 967.13,-96.53 974.32,-92.49"/>
<polygon fill="black" stroke="black" points="975.79,-95.68 982.72,-87.67 972.3,-89.61 975.79,-95.68"/>
</g>
</g>
</svg>
