<?xml version="1.0" encoding="UTF-8" standalone="no"?>
<!DOCTYPE svg PUBLIC "-//W3C//DTD SVG 1.1//EN"
 "http://www.w3.org/Graphics/SVG/1.1/DTD/svg11.dtd">
<!-- Generated by graphviz version 14.0.2 (20251019.1705)
 -->
<!-- Title: InsiderFraud Pages: 1 -->
<svg width="1381pt" height="537pt"
 viewBox="0.00 0.00 1381.00 537.00" xmlns="http://www.w3.org/2000/svg" xmlns:xlink="http://www.w3.org/1999/xlink">
<g id="graph0" class="graph" transform="scale(1 1) rotate(0) translate(4 533.25)">
<title>InsiderFraud</title>
<polygon fill="white" stroke="none" points="-4,4 -4,-533.25 1377.38,-533.25 1377.38,4 -4,4"/>
<!-- root -->
<g id="node1" class="node">
<title>root</title>
<path fill="#cc0000" stroke="black" stroke-width="4" d="M873.12,-529.25C873.12,-529.25 678.62,-529.25 678.62,-529.25 672.62,-529.25 666.62,-523.25 666.62,-517.25 666.62,-517.25 666.62,-448 666.62,-448 666.62,-442 672.62,-436 678.62,-436 678.62,-436 873.12,-436 873.12,-436 879.12,-436 885.12,-442 885.12,-448 885.12,-448 885.12,-517.25 885.12,-517.25 885.12,-523.25 879.12,-529.25 873.12,-529.25"/>
<text xml:space="preserve" text-anchor="middle" x="775.88" y="-513.85" font-family="Arial" font-size="12.00" fill="white">ROOT:</text>
<text xml:space="preserve" text-anchor="middle" x="775.88" y="-499.6" font-family="Arial" font-size="12.00" fill="white">Operate Handicap Manipulation</text>
<text xml:space="preserve" text-anchor="middle" x="775.88" y="-485.35" font-family="Arial" font-size="12.00" fill="white">Fraud Service</text>
<text xml:space="preserve" text-anchor="middle" x="775.88" y="-457.1" font-family="Arial" font-size="12.00" fill="white">Impact: CRITICAL</text>
<text xml:space="preserve" text-anchor="middle" x="775.88" y="-442.85" font-family="Arial" font-size="12.00" fill="white">Threat Actor: TA&#45;03 (Malicious Admin)</text>
</g>
<!-- and_main -->
<g id="node2" class="node">
<title>and_main</title>
<polygon fill="#ffa500" stroke="black" points="669.88,-399 536.12,-367 669.88,-335 803.62,-367 669.88,-399"/>
<text xml:space="preserve" text-anchor="middle" x="669.88" y="-369.5" font-family="Arial" font-size="10.00">AND</text>
<text xml:space="preserve" text-anchor="middle" x="669.88" y="-357.5" font-family="Arial" font-size="10.00">(All Components Required)</text>
</g>
<!-- root&#45;&gt;and_main -->
<g id="edge1" class="edge">
<title>root&#45;&gt;and_main</title>
<path fill="none" stroke="black" d="M731.54,-434.1C721.43,-423.26 710.89,-411.97 701.45,-401.84"/>
<polygon fill="black" stroke="black" points="704.22,-399.68 694.84,-394.76 699.1,-404.46 704.22,-399.68"/>
</g>
<!-- risk_note -->
<g id="node24" class="node">
<title>risk_note</title>
<polygon fill="#ffcccc" stroke="black" points="937.75,-397.25 822,-397.25 822,-336.75 943.75,-336.75 943.75,-391.25 937.75,-397.25"/>
<polyline fill="none" stroke="black" points="937.75,-397.25 937.75,-391.25"/>
<polyline fill="none" stroke="black" points="943.75,-391.25 937.75,-391.25"/>
<text xml:space="preserve" text-anchor="middle" x="882.88" y="-384.7" font-family="Arial" font-size="9.00" fill="#cc0000">CRITICAL RISK:</text>
<text xml:space="preserve" text-anchor="middle" x="882.88" y="-374.2" font-family="Arial" font-size="9.00" fill="#cc0000">No Segregation of Duties</text>
<text xml:space="preserve" text-anchor="middle" x="882.88" y="-363.7" font-family="Arial" font-size="9.00" fill="#cc0000">No Multi&#45;Party Approval</text>
<text xml:space="preserve" text-anchor="middle" x="882.88" y="-353.2" font-family="Arial" font-size="9.00" fill="#cc0000">Modifiable Audit Logs</text>
<text xml:space="preserve" text-anchor="middle" x="882.88" y="-342.7" font-family="Arial" font-size="9.00" fill="#cc0000">(Highest Impact Scenario)</text>
</g>
<!-- root&#45;&gt;risk_note -->
<g id="edge23" class="edge">
<title>root&#45;&gt;risk_note</title>
<path fill="none" stroke="#cc0000" stroke-dasharray="1,5" d="M820.63,-434.1C832.32,-421.69 844.57,-408.68 855.08,-397.51"/>
</g>
<!-- comp1 -->
<g id="node3" class="node">
<title>comp1</title>
<path fill="#ffa500" stroke="black" stroke-width="2" d="M437.38,-282.5C437.38,-282.5 370.38,-282.5 370.38,-282.5 364.38,-282.5 358.38,-276.5 358.38,-270.5 358.38,-270.5 358.38,-246 358.38,-246 358.38,-240 364.38,-234 370.38,-234 370.38,-234 437.38,-234 437.38,-234 443.38,-234 449.38,-240 449.38,-246 449.38,-246 449.38,-270.5 449.38,-270.5 449.38,-276.5 443.38,-282.5 437.38,-282.5"/>
<text xml:space="preserve" text-anchor="middle" x="403.88" y="-268.05" font-family="Arial" font-size="11.00">Component 1:</text>
<text xml:space="preserve" text-anchor="middle" x="403.88" y="-254.55" font-family="Arial" font-size="11.00">Obtain/Maintain</text>
<text xml:space="preserve" text-anchor="middle" x="403.88" y="-241.05" font-family="Arial" font-size="11.00">Admin Access</text>
</g>
<!-- and_main&#45;&gt;comp1 -->
<g id="edge2" class="edge">
<title>and_main&#45;&gt;comp1</title>
<path fill="none" stroke="black" d="M620.78,-346.3C575.42,-328.09 508.06,-301.06 460.46,-281.96"/>
<polygon fill="black" stroke="black" points="462.01,-278.81 451.42,-278.33 459.4,-285.3 462.01,-278.81"/>
</g>
<!-- comp2 -->
<g id="node4" class="node">
<title>comp2</title>
<path fill="#ffa500" stroke="black" stroke-width="2" d="M580.12,-282.5C580.12,-282.5 517.62,-282.5 517.62,-282.5 511.62,-282.5 505.62,-276.5 505.62,-270.5 505.62,-270.5 505.62,-246 505.62,-246 505.62,-240 511.62,-234 517.62,-234 517.62,-234 580.12,-234 580.12,-234 586.12,-234 592.12,-240 592.12,-246 592.12,-246 592.12,-270.5 592.12,-270.5 592.12,-276.5 586.12,-282.5 580.12,-282.5"/>
<text xml:space="preserve" text-anchor="middle" x="548.88" y="-268.05" font-family="Arial" font-size="11.00">Component 2:</text>
<text xml:space="preserve" text-anchor="middle" x="548.88" y="-254.55" font-family="Arial" font-size="11.00">Recruit Paying</text>
<text xml:space="preserve" text-anchor="middle" x="548.88" y="-241.05" font-family="Arial" font-size="11.00">Clients</text>
</g>
<!-- and_main&#45;&gt;comp2 -->
<g id="edge3" class="edge">
<title>and_main&#45;&gt;comp2</title>
<path fill="none" stroke="black" d="M641.81,-341.24C624.62,-326.07 602.46,-306.53 584.09,-290.32"/>
<polygon fill="black" stroke="black" points="586.9,-288.13 577.09,-284.14 582.27,-293.38 586.9,-288.13"/>
</g>
<!-- comp3 -->
<g id="node5" class="node">
<title>comp3</title>
<path fill="#ffa500" stroke="black" stroke-width="2" d="M709.75,-282.5C709.75,-282.5 630,-282.5 630,-282.5 624,-282.5 618,-276.5 618,-270.5 618,-270.5 618,-246 618,-246 618,-240 624,-234 630,-234 630,-234 709.75,-234 709.75,-234 715.75,-234 721.75,-240 721.75,-246 721.75,-246 721.75,-270.5 721.75,-270.5 721.75,-276.5 715.75,-282.5 709.75,-282.5"/>
<text xml:space="preserve" text-anchor="middle" x="669.88" y="-268.05" font-family="Arial" font-size="11.00">Component 3:</text>
<text xml:space="preserve" text-anchor="middle" x="669.88" y="-254.55" font-family="Arial" font-size="11.00">Execute Handicap</text>
<text xml:space="preserve" text-anchor="middle" x="669.88" y="-241.05" font-family="Arial" font-size="11.00">Manipulations</text>
</g>
<!-- and_main&#45;&gt;comp3 -->
<g id="edge4" class="edge">
<title>and_main&#45;&gt;comp3</title>
<path fill="none" stroke="black" d="M669.88,-334.55C669.88,-322.02 669.88,-307.55 669.88,-294.66"/>
<polygon fill="black" stroke="black" points="673.38,-294.88 669.88,-284.88 666.38,-294.88 673.38,-294.88"/>
</g>
<!-- comp4 -->
<g id="node6" class="node">
<title>comp4</title>
<path fill="#ffa500" stroke="black" stroke-width="2" d="M853.25,-282.5C853.25,-282.5 776.5,-282.5 776.5,-282.5 770.5,-282.5 764.5,-276.5 764.5,-270.5 764.5,-270.5 764.5,-246 764.5,-246 764.5,-240 770.5,-234 776.5,-234 776.5,-234 853.25,-234 853.25,-234 859.25,-234 865.25,-240 865.25,-246 865.25,-246 865.25,-270.5 865.25,-270.5 865.25,-276.5 859.25,-282.5 853.25,-282.5"/>
<text xml:space="preserve" text-anchor="middle" x="814.88" y="-268.05" font-family="Arial" font-size="11.00">Component 4:</text>
<text xml:space="preserve" text-anchor="middle" x="814.88" y="-254.55" font-family="Arial" font-size="11.00">Cover Tracks and</text>
<text xml:space="preserve" text-anchor="middle" x="814.88" y="-241.05" font-family="Arial" font-size="11.00">Avoid Detection</text>
</g>
<!-- and_main&#45;&gt;comp4 -->
<g id="edge5" class="edge">
<title>and_main&#45;&gt;comp4</title>
<path fill="none" stroke="black" d="M702.06,-342.31C722.95,-326.92 750.41,-306.71 773,-290.08"/>
<polygon fill="black" stroke="black" points="774.83,-293.07 780.81,-284.33 770.68,-287.44 774.83,-293.07"/>
</g>
<!-- outcome -->
<g id="node21" class="node">
<title>outcome</title>
<path fill="none" stroke="black" d="M1150.75,-276.25C1150.75,-276.25 1041,-276.25 1041,-276.25 1035,-276.25 1029,-270.25 1029,-264.25 1029,-264.25 1029,-252.25 1029,-252.25 1029,-246.25 1035,-240.25 1041,-240.25 1041,-240.25 1150.75,-240.25 1150.75,-240.25 1156.75,-240.25 1162.75,-246.25 1162.75,-252.25 1162.75,-252.25 1162.75,-264.25 1162.75,-264.25 1162.75,-270.25 1156.75,-276.25 1150.75,-276.25"/>
<text xml:space="preserve" text-anchor="middle" x="1095.88" y="-254.75" font-family="Arial" font-size="10.00">Fraud Operation Outcomes</text>
</g>
<!-- and_main&#45;&gt;outcome -->
<g id="edge20" class="edge">
<title>and_main&#45;&gt;outcome</title>
<path fill="none" stroke="#cc0000" stroke-dasharray="5,2" d="M734.11,-349.9C810.08,-330.87 936.47,-299.2 1017.95,-278.78"/>
<polygon fill="#cc0000" stroke="#cc0000" points="1018.33,-282.29 1027.18,-276.46 1016.63,-275.5 1018.33,-282.29"/>
<text xml:space="preserve" text-anchor="middle" x="957.03" y="-303.7" font-family="Times,serif" font-size="14.00">if all succeed</text>
</g>
<!-- or_c1 -->
<g id="node7" class="node">
<title>or_c1</title>
<polygon fill="#ffd93d" stroke="black" points="253.88,-181 226.88,-163 253.88,-145 280.88,-163 253.88,-181"/>
<text xml:space="preserve" text-anchor="middle" x="253.88" y="-159.7" font-family="Arial" font-size="9.00">OR</text>
</g>
<!-- comp1&#45;&gt;or_c1 -->
<g id="edge6" class="edge">
<title>comp1&#45;&gt;or_c1</title>
<path fill="none" stroke="black" d="M365.25,-233.24C337.27,-215.84 300.38,-192.91 276.89,-178.31"/>
<polygon fill="black" stroke="black" points="279.04,-175.52 268.7,-173.21 275.34,-181.47 279.04,-175.52"/>
</g>
<!-- leaf2_1 -->
<g id="node11" class="node">
<title>leaf2_1</title>
<path fill="#90ee90" stroke="#ffa500" stroke-width="3" d="M445.88,-197C445.88,-197 333.88,-197 333.88,-197 327.88,-197 321.88,-191 321.88,-185 321.88,-185 321.88,-141 321.88,-141 321.88,-135 327.88,-129 333.88,-129 333.88,-129 445.88,-129 445.88,-129 451.88,-129 457.88,-135 457.88,-141 457.88,-141 457.88,-185 457.88,-185 457.88,-191 451.88,-197 445.88,-197"/>
<text xml:space="preserve" text-anchor="middle" x="389.88" y="-183.5" font-family="Arial" font-size="10.00">LEAF: Identify High&#45;Stakes</text>
<text xml:space="preserve" text-anchor="middle" x="389.88" y="-171.5" font-family="Arial" font-size="10.00">Tournament Players</text>
<text xml:space="preserve" text-anchor="middle" x="389.88" y="-159.5" font-family="Arial" font-size="10.00">&#45;&#45;&#45;</text>
<text xml:space="preserve" text-anchor="middle" x="389.88" y="-147.5" font-family="Arial" font-size="10.00">Feasibility: MEDIUM</text>
<text xml:space="preserve" text-anchor="middle" x="389.88" y="-135.5" font-family="Arial" font-size="10.00">Complexity: LOW</text>
</g>
<!-- comp2&#45;&gt;leaf2_1 -->
<g id="edge10" class="edge">
<title>comp2&#45;&gt;leaf2_1</title>
<path fill="none" stroke="black" d="M507.93,-233.24C492.85,-224.39 475.34,-214.12 458.49,-204.24"/>
<polygon fill="black" stroke="black" points="460.37,-201.28 449.97,-199.24 456.83,-207.32 460.37,-201.28"/>
</g>
<!-- leaf2_2 -->
<g id="node12" class="node">
<title>leaf2_2</title>
<path fill="#90ee90" stroke="#ff0000" stroke-width="2" d="M610.12,-197C610.12,-197 487.62,-197 487.62,-197 481.62,-197 475.62,-191 475.62,-185 475.62,-185 475.62,-141 475.62,-141 475.62,-135 481.62,-129 487.62,-129 487.62,-129 610.12,-129 610.12,-129 616.12,-129 622.12,-135 622.12,-141 622.12,-141 622.12,-185 622.12,-185 622.12,-191 616.12,-197 610.12,-197"/>
<text xml:space="preserve" text-anchor="middle" x="548.88" y="-183.5" font-family="Arial" font-size="10.00">LEAF: Establish Pricing</text>
<text xml:space="preserve" text-anchor="middle" x="548.88" y="-171.5" font-family="Arial" font-size="10.00">($500&#45;$2000 per manipulation)</text>
<text xml:space="preserve" text-anchor="middle" x="548.88" y="-159.5" font-family="Arial" font-size="10.00">&#45;&#45;&#45;</text>
<text xml:space="preserve" text-anchor="middle" x="548.88" y="-147.5" font-family="Arial" font-size="10.00">Payment: Cash/Crypto</text>
<text xml:space="preserve" text-anchor="middle" x="548.88" y="-135.5" font-family="Arial" font-size="10.00">Feasibility: HIGH</text>
</g>
<!-- comp2&#45;&gt;leaf2_2 -->
<g id="edge11" class="edge">
<title>comp2&#45;&gt;leaf2_2</title>
<path fill="none" stroke="black" d="M548.88,-233.24C548.88,-225.82 548.88,-217.39 548.88,-209.03"/>
<polygon fill="black" stroke="black" points="552.38,-209.29 548.88,-199.29 545.38,-209.29 552.38,-209.29"/>
</g>
<!-- and_c3 -->
<g id="node13" class="node">
<title>and_c3</title>
<polygon fill="#ffa500" stroke="black" points="669.88,-181 640.61,-163 669.88,-145 699.14,-163 669.88,-181"/>
<text xml:space="preserve" text-anchor="middle" x="669.88" y="-159.7" font-family="Arial" font-size="9.00">AND</text>
</g>
<!-- comp3&#45;&gt;and_c3 -->
<g id="edge12" class="edge">
<title>comp3&#45;&gt;and_c3</title>
<path fill="none" stroke="black" d="M669.88,-233.24C669.88,-220.84 669.88,-205.63 669.88,-192.63"/>
<polygon fill="black" stroke="black" points="673.38,-192.97 669.88,-182.97 666.38,-192.97 673.38,-192.97"/>
</g>
<!-- and_c4 -->
<g id="node17" class="node">
<title>and_c4</title>
<polygon fill="#ffa500" stroke="black" points="959.88,-181 930.61,-163 959.88,-145 989.14,-163 959.88,-181"/>
<text xml:space="preserve" text-anchor="middle" x="959.88" y="-159.7" font-family="Arial" font-size="9.00">AND</text>
</g>
<!-- comp4&#45;&gt;and_c4 -->
<g id="edge16" class="edge">
<title>comp4&#45;&gt;and_c4</title>
<path fill="none" stroke="black" d="M852.22,-233.24C878.85,-216.11 913.83,-193.61 936.58,-178.98"/>
<polygon fill="black" stroke="black" points="938.31,-182.03 944.82,-173.68 934.52,-176.14 938.31,-182.03"/>
</g>
<!-- leaf1_1 -->
<g id="node8" class="node">
<title>leaf1_1</title>
<path fill="#90ee90" stroke="#ffa500" stroke-width="3" d="M109.75,-80C109.75,-80 12,-80 12,-80 6,-80 0,-74 0,-68 0,-68 0,-24 0,-24 0,-18 6,-12 12,-12 12,-12 109.75,-12 109.75,-12 115.75,-12 121.75,-18 121.75,-24 121.75,-24 121.75,-68 121.75,-68 121.75,-74 115.75,-80 109.75,-80"/>
<text xml:space="preserve" text-anchor="middle" x="60.88" y="-66.5" font-family="Arial" font-size="10.00">LEAF: Legitimate Admin</text>
<text xml:space="preserve" text-anchor="middle" x="60.88" y="-54.5" font-family="Arial" font-size="10.00">Account (Rogue Insider)</text>
<text xml:space="preserve" text-anchor="middle" x="60.88" y="-42.5" font-family="Arial" font-size="10.00">&#45;&#45;&#45;</text>
<text xml:space="preserve" text-anchor="middle" x="60.88" y="-30.5" font-family="Arial" font-size="10.00">Feasibility: MEDIUM</text>
<text xml:space="preserve" text-anchor="middle" x="60.88" y="-18.5" font-family="Arial" font-size="10.00">Detection: HIGH</text>
</g>
<!-- or_c1&#45;&gt;leaf1_1 -->
<g id="edge7" class="edge">
<title>or_c1&#45;&gt;leaf1_1</title>
<path fill="none" stroke="black" d="M239.71,-154.27C216.68,-141.61 169.76,-115.54 130.88,-92 128.44,-90.53 125.97,-89.01 123.48,-87.48"/>
<polygon fill="black" stroke="black" points="125.44,-84.57 115.1,-82.26 121.73,-90.51 125.44,-84.57"/>
</g>
<!-- leaf1_2 -->
<g id="node9" class="node">
<title>leaf1_2</title>
<path fill="#90ee90" stroke="#ffa500" stroke-width="3" d="M260,-80C260,-80 151.75,-80 151.75,-80 145.75,-80 139.75,-74 139.75,-68 139.75,-68 139.75,-24 139.75,-24 139.75,-18 145.75,-12 151.75,-12 151.75,-12 260,-12 260,-12 266,-12 272,-18 272,-24 272,-24 272,-68 272,-68 272,-74 266,-80 260,-80"/>
<text xml:space="preserve" text-anchor="middle" x="205.88" y="-66.5" font-family="Arial" font-size="10.00">LEAF: Compromise Admin</text>
<text xml:space="preserve" text-anchor="middle" x="205.88" y="-54.5" font-family="Arial" font-size="10.00">Account (See Tree 1)</text>
<text xml:space="preserve" text-anchor="middle" x="205.88" y="-42.5" font-family="Arial" font-size="10.00">&#45;&#45;&#45;</text>
<text xml:space="preserve" text-anchor="middle" x="205.88" y="-30.5" font-family="Arial" font-size="10.00">Feasibility: MEDIUM</text>
<text xml:space="preserve" text-anchor="middle" x="205.88" y="-18.5" font-family="Arial" font-size="10.00">Complexity: MEDIUM</text>
</g>
<!-- or_c1&#45;&gt;leaf1_2 -->
<g id="edge8" class="edge">
<title>or_c1&#45;&gt;leaf1_2</title>
<path fill="none" stroke="black" d="M248.18,-148.36C242.37,-134.44 233.04,-112.08 224.61,-91.89"/>
<polygon fill="black" stroke="black" points="227.85,-90.56 220.77,-82.68 221.39,-93.26 227.85,-90.56"/>
</g>
<!-- leaf1_3 -->
<g id="node10" class="node">
<title>leaf1_3</title>
<path fill="#90ee90" stroke="#ff0000" stroke-width="2" d="M387.75,-86C387.75,-86 302,-86 302,-86 296,-86 290,-80 290,-74 290,-74 290,-18 290,-18 290,-12 296,-6 302,-6 302,-6 387.75,-6 387.75,-6 393.75,-6 399.75,-12 399.75,-18 399.75,-18 399.75,-74 399.75,-74 399.75,-80 393.75,-86 387.75,-86"/>
<text xml:space="preserve" text-anchor="middle" x="344.88" y="-72.5" font-family="Arial" font-size="10.00">LEAF: Create Hidden</text>
<text xml:space="preserve" text-anchor="middle" x="344.88" y="-60.5" font-family="Arial" font-size="10.00">Backdoor Account</text>
<text xml:space="preserve" text-anchor="middle" x="344.88" y="-48.5" font-family="Arial" font-size="10.00">&#45;&#45;&#45;</text>
<text xml:space="preserve" text-anchor="middle" x="344.88" y="-36.5" font-family="Arial" font-size="10.00">Feasibility: HIGH</text>
<text xml:space="preserve" text-anchor="middle" x="344.88" y="-24.5" font-family="Arial" font-size="10.00">Complexity: LOW</text>
<text xml:space="preserve" text-anchor="middle" x="344.88" y="-12.5" font-family="Arial" font-size="10.00">Detection: MEDIUM</text>
</g>
<!-- or_c1&#45;&gt;leaf1_3 -->
<g id="edge9" class="edge">
<title>or_c1&#45;&gt;leaf1_3</title>
<path fill="none" stroke="black" d="M262.93,-150.55C273.11,-137.69 290.32,-115.94 306.35,-95.69"/>
<polygon fill="black" stroke="black" points="308.96,-98.03 312.42,-88.02 303.47,-93.69 308.96,-98.03"/>
</g>
<!-- leaf3_1 -->
<g id="node14" class="node">
<title>leaf3_1</title>
<path fill="#90ee90" stroke="#ff0000" stroke-width="2" d="M556,-92C556,-92 429.75,-92 429.75,-92 423.75,-92 417.75,-86 417.75,-80 417.75,-80 417.75,-12 417.75,-12 417.75,-6 423.75,0 429.75,0 429.75,0 556,0 556,0 562,0 568,-6 568,-12 568,-12 568,-80 568,-80 568,-86 562,-92 556,-92"/>
<text xml:space="preserve" text-anchor="middle" x="492.88" y="-78.5" font-family="Arial" font-size="10.00">LEAF: Direct Database</text>
<text xml:space="preserve" text-anchor="middle" x="492.88" y="-66.5" font-family="Arial" font-size="10.00">Modification (UPDATE rounds)</text>
<text xml:space="preserve" text-anchor="middle" x="492.88" y="-54.5" font-family="Arial" font-size="10.00">&#45;&#45;&#45;</text>
<text xml:space="preserve" text-anchor="middle" x="492.88" y="-42.5" font-family="Arial" font-size="10.00">Access: instance/golf.db</text>
<text xml:space="preserve" text-anchor="middle" x="492.88" y="-30.5" font-family="Arial" font-size="10.00">Feasibility: HIGH</text>
<text xml:space="preserve" text-anchor="middle" x="492.88" y="-18.5" font-family="Arial" font-size="10.00">Complexity: LOW</text>
<text xml:space="preserve" text-anchor="middle" x="492.88" y="-6.5" font-family="Arial" font-size="10.00">Detection: MEDIUM</text>
</g>
<!-- and_c3&#45;&gt;leaf3_1 -->
<g id="edge13" class="edge">
<title>and_c3&#45;&gt;leaf3_1</title>
<path fill="none" stroke="black" d="M658.68,-151.66C651.09,-144.88 640.7,-136 630.88,-129 614.41,-117.26 596.19,-105.59 578.53,-94.89"/>
<polygon fill="black" stroke="black" points="580.47,-91.97 570.09,-89.83 576.87,-97.98 580.47,-91.97"/>
</g>
<!-- leaf3_2 -->
<g id="node15" class="node">
<title>leaf3_2</title>
<path fill="#90ee90" stroke="#ff0000" stroke-width="2" d="M694,-86C694,-86 597.75,-86 597.75,-86 591.75,-86 585.75,-80 585.75,-74 585.75,-74 585.75,-18 585.75,-18 585.75,-12 591.75,-6 597.75,-6 597.75,-6 694,-6 694,-6 700,-6 706,-12 706,-18 706,-18 706,-74 706,-74 706,-80 700,-86 694,-86"/>
<text xml:space="preserve" text-anchor="middle" x="645.88" y="-72.5" font-family="Arial" font-size="10.00">LEAF: Modify Individual</text>
<text xml:space="preserve" text-anchor="middle" x="645.88" y="-60.5" font-family="Arial" font-size="10.00">Hole Scores (Realistic)</text>
<text xml:space="preserve" text-anchor="middle" x="645.88" y="-48.5" font-family="Arial" font-size="10.00">&#45;&#45;&#45;</text>
<text xml:space="preserve" text-anchor="middle" x="645.88" y="-36.5" font-family="Arial" font-size="10.00">Feasibility: HIGH</text>
<text xml:space="preserve" text-anchor="middle" x="645.88" y="-24.5" font-family="Arial" font-size="10.00">Complexity: LOW</text>
<text xml:space="preserve" text-anchor="middle" x="645.88" y="-12.5" font-family="Arial" font-size="10.00">Detection: LOW</text>
</g>
<!-- and_c3&#45;&gt;leaf3_2 -->
<g id="edge14" class="edge">
<title>and_c3&#45;&gt;leaf3_2</title>
<path fill="none" stroke="black" d="M666.64,-146.49C664.01,-133.9 660.15,-115.4 656.47,-97.76"/>
<polygon fill="black" stroke="black" points="659.99,-97.5 654.52,-88.43 653.14,-98.93 659.99,-97.5"/>
</g>
<!-- leaf3_3 -->
<g id="node16" class="node">
<title>leaf3_3</title>
<path fill="#90ee90" stroke="#ff0000" stroke-width="2" d="M841.5,-86C841.5,-86 736.25,-86 736.25,-86 730.25,-86 724.25,-80 724.25,-74 724.25,-74 724.25,-18 724.25,-18 724.25,-12 730.25,-6 736.25,-6 736.25,-6 841.5,-6 841.5,-6 847.5,-6 853.5,-12 853.5,-18 853.5,-18 853.5,-74 853.5,-74 853.5,-80 847.5,-86 841.5,-86"/>
<text xml:space="preserve" text-anchor="middle" x="788.88" y="-72.5" font-family="Arial" font-size="10.00">LEAF: Spread Changes</text>
<text xml:space="preserve" text-anchor="middle" x="788.88" y="-60.5" font-family="Arial" font-size="10.00">Over Time (2&#45;3 months)</text>
<text xml:space="preserve" text-anchor="middle" x="788.88" y="-48.5" font-family="Arial" font-size="10.00">&#45;&#45;&#45;</text>
<text xml:space="preserve" text-anchor="middle" x="788.88" y="-36.5" font-family="Arial" font-size="10.00">Strategy: Gradual inflation</text>
<text xml:space="preserve" text-anchor="middle" x="788.88" y="-24.5" font-family="Arial" font-size="10.00">Feasibility: HIGH</text>
<text xml:space="preserve" text-anchor="middle" x="788.88" y="-12.5" font-family="Arial" font-size="10.00">Detection: LOW</text>
</g>
<!-- and_c3&#45;&gt;leaf3_3 -->
<g id="edge15" class="edge">
<title>and_c3&#45;&gt;leaf3_3</title>
<path fill="none" stroke="black" d="M680.86,-151.39C694.22,-138.47 717.7,-115.78 739.36,-94.85"/>
<polygon fill="black" stroke="black" points="741.7,-97.46 746.46,-87.99 736.84,-92.42 741.7,-97.46"/>
</g>
<!-- leaf4_1 -->
<g id="node18" class="node">
<title>leaf4_1</title>
<path fill="#90ee90" stroke="#ff0000" stroke-width="2" stroke-dasharray="5,2" d="M1036.12,-92C1036.12,-92 883.62,-92 883.62,-92 877.62,-92 871.62,-86 871.62,-80 871.62,-80 871.62,-12 871.62,-12 871.62,-6 877.62,0 883.62,0 883.62,0 1036.12,0 1036.12,0 1042.12,0 1048.12,-6 1048.12,-12 1048.12,-12 1048.12,-80 1048.12,-80 1048.12,-86 1042.12,-92 1036.12,-92"/>
<text xml:space="preserve" text-anchor="middle" x="959.88" y="-78.5" font-family="Arial" font-size="10.00">LEAF: Delete/Modify</text>
<text xml:space="preserve" text-anchor="middle" x="959.88" y="-66.5" font-family="Arial" font-size="10.00">Audit Log Entries</text>
<text xml:space="preserve" text-anchor="middle" x="959.88" y="-54.5" font-family="Arial" font-size="10.00">&#45;&#45;&#45;</text>
<text xml:space="preserve" text-anchor="middle" x="959.88" y="-42.5" font-family="Arial" font-size="10.00">Vuln: Modifiable logs</text>
<text xml:space="preserve" text-anchor="middle" x="959.88" y="-30.5" font-family="Arial" font-size="10.00">Feasibility: HIGH</text>
<text xml:space="preserve" text-anchor="middle" x="959.88" y="-18.5" font-family="Arial" font-size="10.00">Complexity: LOW</text>
<text xml:space="preserve" text-anchor="middle" x="959.88" y="-6.5" font-family="Arial" font-size="10.00">Detection: HIGH (if external monitor)</text>
</g>
<!-- and_c4&#45;&gt;leaf4_1 -->
<g id="edge17" class="edge">
<title>and_c4&#45;&gt;leaf4_1</title>
<path fill="none" stroke="black" d="M959.88,-144.53C959.88,-133.62 959.88,-118.88 959.88,-104.17"/>
<polygon fill="black" stroke="black" points="963.38,-104.51 959.88,-94.51 956.38,-104.51 963.38,-104.51"/>
</g>
<!-- leaf4_2 -->
<g id="node19" class="node">
<title>leaf4_2</title>
<path fill="#90ee90" stroke="#ff0000" stroke-width="2" d="M1174,-86C1174,-86 1077.75,-86 1077.75,-86 1071.75,-86 1065.75,-80 1065.75,-74 1065.75,-74 1065.75,-18 1065.75,-18 1065.75,-12 1071.75,-6 1077.75,-6 1077.75,-6 1174,-6 1174,-6 1180,-6 1186,-12 1186,-18 1186,-18 1186,-74 1186,-74 1186,-80 1180,-86 1174,-86"/>
<text xml:space="preserve" text-anchor="middle" x="1125.88" y="-72.5" font-family="Arial" font-size="10.00">LEAF: Manipulate</text>
<text xml:space="preserve" text-anchor="middle" x="1125.88" y="-60.5" font-family="Arial" font-size="10.00">Timestamps (Backdate)</text>
<text xml:space="preserve" text-anchor="middle" x="1125.88" y="-48.5" font-family="Arial" font-size="10.00">&#45;&#45;&#45;</text>
<text xml:space="preserve" text-anchor="middle" x="1125.88" y="-36.5" font-family="Arial" font-size="10.00">Feasibility: HIGH</text>
<text xml:space="preserve" text-anchor="middle" x="1125.88" y="-24.5" font-family="Arial" font-size="10.00">Complexity: LOW</text>
<text xml:space="preserve" text-anchor="middle" x="1125.88" y="-12.5" font-family="Arial" font-size="10.00">Detection: MEDIUM</text>
</g>
<!-- and_c4&#45;&gt;leaf4_2 -->
<g id="edge18" class="edge">
<title>and_c4&#45;&gt;leaf4_2</title>
<path fill="none" stroke="black" d="M971.15,-151.76C978.76,-145.02 989.16,-136.16 998.88,-129 1020.99,-112.7 1029.44,-109.2 1055.42,-92.86"/>
<polygon fill="black" stroke="black" points="1057.12,-95.93 1063.67,-87.6 1053.35,-90.02 1057.12,-95.93"/>
</g>
<!-- leaf4_3 -->
<g id="node20" class="node">
<title>leaf4_3</title>
<path fill="#90ee90" stroke="#ff0000" stroke-width="2" d="M1361.38,-86C1361.38,-86 1216.38,-86 1216.38,-86 1210.38,-86 1204.38,-80 1204.38,-74 1204.38,-74 1204.38,-18 1204.38,-18 1204.38,-12 1210.38,-6 1216.38,-6 1216.38,-6 1361.38,-6 1361.38,-6 1367.38,-6 1373.38,-12 1373.38,-18 1373.38,-18 1373.38,-74 1373.38,-74 1373.38,-80 1367.38,-86 1361.38,-86"/>
<text xml:space="preserve" text-anchor="middle" x="1288.88" y="-72.5" font-family="Arial" font-size="10.00">LEAF: Use Backdoor Account</text>
<text xml:space="preserve" text-anchor="middle" x="1288.88" y="-60.5" font-family="Arial" font-size="10.00">for Operations</text>
<text xml:space="preserve" text-anchor="middle" x="1288.88" y="-48.5" font-family="Arial" font-size="10.00">&#45;&#45;&#45;</text>
<text xml:space="preserve" text-anchor="middle" x="1288.88" y="-36.5" font-family="Arial" font-size="10.00">Benefit: Primary admin stays clean</text>
<text xml:space="preserve" text-anchor="middle" x="1288.88" y="-24.5" font-family="Arial" font-size="10.00">Feasibility: HIGH</text>
<text xml:space="preserve" text-anchor="middle" x="1288.88" y="-12.5" font-family="Arial" font-size="10.00">Detection: MEDIUM</text>
</g>
<!-- and_c4&#45;&gt;leaf4_3 -->
<g id="edge19" class="edge">
<title>and_c4&#45;&gt;leaf4_3</title>
<path fill="none" stroke="black" d="M970.05,-150.78C977.35,-143.44 987.82,-134.26 998.88,-129 1078.91,-90.89 1110.63,-119.59 1194.88,-92 1196.04,-91.62 1197.2,-91.23 1198.37,-90.83"/>
<polygon fill="black" stroke="black" points="1199.33,-94.2 1207.51,-87.47 1196.92,-87.63 1199.33,-94.2"/>
</g>
<!-- leaf_out1 -->
<g id="node22" class="node">
<title>leaf_out1</title>
<path fill="#cc0000" stroke="black" stroke-width="3" d="M1172.12,-191C1172.12,-191 1019.62,-191 1019.62,-191 1013.62,-191 1007.62,-185 1007.62,-179 1007.62,-179 1007.62,-147 1007.62,-147 1007.62,-141 1013.62,-135 1019.62,-135 1019.62,-135 1172.12,-135 1172.12,-135 1178.12,-135 1184.12,-141 1184.12,-147 1184.12,-147 1184.12,-179 1184.12,-179 1184.12,-185 1178.12,-191 1172.12,-191"/>
<text xml:space="preserve" text-anchor="middle" x="1095.88" y="-177.5" font-family="Arial" font-size="10.00" fill="white">OUTCOME: Financial Gain</text>
<text xml:space="preserve" text-anchor="middle" x="1095.88" y="-165.5" font-family="Arial" font-size="10.00" fill="white">$5K&#45;$100K over months</text>
<text xml:space="preserve" text-anchor="middle" x="1095.88" y="-153.5" font-family="Arial" font-size="10.00" fill="white">&#45;&#45;&#45;</text>
<text xml:space="preserve" text-anchor="middle" x="1095.88" y="-141.5" font-family="Arial" font-size="10.00" fill="white">Risk: Money laundering investigation</text>
</g>
<!-- outcome&#45;&gt;leaf_out1 -->
<g id="edge21" class="edge">
<title>outcome&#45;&gt;leaf_out1</title>
<path fill="none" stroke="black" d="M1095.88,-240.15C1095.88,-229.92 1095.88,-216.48 1095.88,-203.74"/>
<polygon fill="black" stroke="black" points="1099.38,-203.86 1095.88,-193.86 1092.38,-203.86 1099.38,-203.86"/>
</g>
<!-- leaf_out2 -->
<g id="node23" class="node">
<title>leaf_out2</title>
<path fill="#cc0000" stroke="black" stroke-width="3" d="M1353.38,-197C1353.38,-197 1214.38,-197 1214.38,-197 1208.38,-197 1202.38,-191 1202.38,-185 1202.38,-185 1202.38,-141 1202.38,-141 1202.38,-135 1208.38,-129 1214.38,-129 1214.38,-129 1353.38,-129 1353.38,-129 1359.38,-129 1365.38,-135 1365.38,-141 1365.38,-141 1365.38,-185 1365.38,-185 1365.38,-191 1359.38,-197 1353.38,-197"/>
<text xml:space="preserve" text-anchor="middle" x="1283.88" y="-183.5" font-family="Arial" font-size="10.00" fill="white">OUTCOME: System Integrity</text>
<text xml:space="preserve" text-anchor="middle" x="1283.88" y="-171.5" font-family="Arial" font-size="10.00" fill="white">Destruction</text>
<text xml:space="preserve" text-anchor="middle" x="1283.88" y="-159.5" font-family="Arial" font-size="10.00" fill="white">&#45;&#45;&#45;</text>
<text xml:space="preserve" text-anchor="middle" x="1283.88" y="-147.5" font-family="Arial" font-size="10.00" fill="white">Handicap system loses credibility</text>
<text xml:space="preserve" text-anchor="middle" x="1283.88" y="-135.5" font-family="Arial" font-size="10.00" fill="white">Forensics extremely difficult</text>
</g>
<!-- outcome&#45;&gt;leaf_out2 -->
<g id="edge22" class="edge">
<title>outcome&#45;&gt;leaf_out2</title>
<path fill="none" stroke="black" d="M1130.8,-239.93C1151.51,-229.65 1178.67,-216.18 1204.35,-203.45"/>
<polygon fill="black" stroke="black" points="1205.72,-206.67 1213.12,-199.09 1202.61,-200.4 1205.72,-206.67"/>
</g>
</g>
</svg>
