<?xml version="1.0" encoding="UTF-8" standalone="no"?>
<!DOCTYPE svg PUBLIC "-//W3C//DTD SVG 1.1//EN"
 "http://www.w3.org/Graphics/SVG/1.1/DTD/svg11.dtd">
<!-- Generated by graphviz version 14.0.2 (20251019.1705)
 -->
<!-- Title: RiskHeatmap Pages: 1 -->
<svg width="1040pt" height="408pt"
 viewBox="0.00 0.00 1040.00 408.00" xmlns="http://www.w3.org/2000/svg" xmlns:xlink="http://www.w3.org/1999/xlink">
<g id="graph0" class="graph" transform="scale(1 1) rotate(0) translate(4 404)">
<title>RiskHeatmap</title>
<polygon fill="white" stroke="none" points="-4,4 -4,-404 1035.88,-404 1035.88,4 -4,4"/>
<g id="clust1" class="cluster">
<title>cluster_matrix</title>
<polygon fill="#f5f5f5" stroke="black" points="273.75,-8 273.75,-126 1023.88,-126 1023.88,-8 273.75,-8"/>
<text xml:space="preserve" text-anchor="middle" x="648.81" y="-110.6" font-family="Times,serif" font-size="12.00">Risk Matrix: Likelihood × Impact</text>
</g>
<g id="clust2" class="cluster">
<title>cluster_vulns</title>
<polygon fill="#ffeeee" stroke="black" points="37.62,-134 37.62,-212 1001.38,-212 1001.38,-134 37.62,-134"/>
<text xml:space="preserve" text-anchor="middle" x="519.5" y="-196.6" font-family="Times,serif" font-size="12.00">Common Critical Vulnerabilities</text>
</g>
<g id="clust3" class="cluster">
<title>cluster_assign</title>
<polygon fill="#e8f4f8" stroke="black" points="8,-220 8,-392 463.62,-392 463.62,-220 8,-220"/>
<text xml:space="preserve" text-anchor="middle" x="235.81" y="-376.6" font-family="Times,serif" font-size="12.00">Mitigation Assignments</text>
</g>
<!-- title -->
<g id="node1" class="node">
<title>title</title>
<path fill="lightgrey" stroke="none" d="M206.38,-78.75C206.38,-78.75 26.88,-78.75 26.88,-78.75 20.88,-78.75 14.88,-72.75 14.88,-66.75 14.88,-66.75 14.88,-45.25 14.88,-45.25 14.88,-39.25 20.88,-33.25 26.88,-33.25 26.88,-33.25 206.38,-33.25 206.38,-33.25 212.38,-33.25 218.38,-39.25 218.38,-45.25 218.38,-45.25 218.38,-66.75 218.38,-66.75 218.38,-72.75 212.38,-78.75 206.38,-78.75"/>
<text xml:space="preserve" text-anchor="middle" x="116.62" y="-59.55" font-family="Arial" font-size="16.00" fill="#000000">Attack Tree Risk Heatmap</text>
<text xml:space="preserve" text-anchor="middle" x="116.62" y="-40.8" font-family="Arial" font-size="16.00" fill="#000000">Golf Score Tracker</text>
</g>
<!-- quad_hh -->
<g id="node2" class="node">
<title>quad_hh</title>
<path fill="#ff6b6b" stroke="black" stroke-width="3" d="M416.25,-95.62C416.25,-95.62 293.75,-95.62 293.75,-95.62 287.75,-95.62 281.75,-89.62 281.75,-83.62 281.75,-83.62 281.75,-28.38 281.75,-28.38 281.75,-22.38 287.75,-16.38 293.75,-16.38 293.75,-16.38 416.25,-16.38 416.25,-16.38 422.25,-16.38 428.25,-22.38 428.25,-28.38 428.25,-28.38 428.25,-83.62 428.25,-83.62 428.25,-89.62 422.25,-95.62 416.25,-95.62"/>
<text xml:space="preserve" text-anchor="middle" x="355" y="-82.12" font-family="Arial" font-size="10.00" fill="white">HIGH LIKELIHOOD</text>
<text xml:space="preserve" text-anchor="middle" x="355" y="-70.12" font-family="Arial" font-size="10.00" fill="white">HIGH IMPACT</text>
<text xml:space="preserve" text-anchor="middle" x="355" y="-58.12" font-family="Arial" font-size="10.00" fill="white">━━━━━━━━━━━━━</text>
<text xml:space="preserve" text-anchor="middle" x="355" y="-46.88" font-family="Arial" font-size="10.00" fill="white">Tree 2: Handicap Inflation</text>
<text xml:space="preserve" text-anchor="middle" x="355" y="-34.88" font-family="Arial" font-size="10.00" fill="white">Tree 3: IDOR Data Extraction</text>
<text xml:space="preserve" text-anchor="middle" x="355" y="-22.88" font-family="Arial" font-size="10.00" fill="white">Tree 6: Competitive Intel</text>
</g>
<!-- title&#45;&gt;quad_hh -->
<!-- quad_mc -->
<g id="node3" class="node">
<title>quad_mc</title>
<path fill="#ffa500" stroke="black" stroke-width="2" d="M634.38,-95.62C634.38,-95.62 515.62,-95.62 515.62,-95.62 509.62,-95.62 503.62,-89.62 503.62,-83.62 503.62,-83.62 503.62,-28.38 503.62,-28.38 503.62,-22.38 509.62,-16.38 515.62,-16.38 515.62,-16.38 634.38,-16.38 634.38,-16.38 640.38,-16.38 646.38,-22.38 646.38,-28.38 646.38,-28.38 646.38,-83.62 646.38,-83.62 646.38,-89.62 640.38,-95.62 634.38,-95.62"/>
<text xml:space="preserve" text-anchor="middle" x="575" y="-82.12" font-family="Arial" font-size="10.00" fill="white">MEDIUM LIKELIHOOD</text>
<text xml:space="preserve" text-anchor="middle" x="575" y="-70.12" font-family="Arial" font-size="10.00" fill="white">CRITICAL IMPACT</text>
<text xml:space="preserve" text-anchor="middle" x="575" y="-58.12" font-family="Arial" font-size="10.00" fill="white">━━━━━━━━━━━━━</text>
<text xml:space="preserve" text-anchor="middle" x="575" y="-46.88" font-family="Arial" font-size="10.00" fill="white">Tree 1: Admin Compromise</text>
<text xml:space="preserve" text-anchor="middle" x="575" y="-34.88" font-family="Arial" font-size="10.00" fill="white">Tree 4: Insider Fraud</text>
<text xml:space="preserve" text-anchor="middle" x="575" y="-22.88" font-family="Arial" font-size="10.00" fill="white">Tree 7: SQL Injection Dump</text>
</g>
<!-- quad_hh&#45;&gt;quad_mc -->
<!-- quad_mm -->
<g id="node4" class="node">
<title>quad_mm</title>
<path fill="#ffd93d" stroke="black" stroke-width="2" d="M825.12,-83.62C825.12,-83.62 706.38,-83.62 706.38,-83.62 700.38,-83.62 694.38,-77.62 694.38,-71.62 694.38,-71.62 694.38,-40.38 694.38,-40.38 694.38,-34.38 700.38,-28.38 706.38,-28.38 706.38,-28.38 825.12,-28.38 825.12,-28.38 831.12,-28.38 837.12,-34.38 837.12,-40.38 837.12,-40.38 837.12,-71.62 837.12,-71.62 837.12,-77.62 831.12,-83.62 825.12,-83.62"/>
<text xml:space="preserve" text-anchor="middle" x="765.75" y="-70.12" font-family="Arial" font-size="10.00">MEDIUM LIKELIHOOD</text>
<text xml:space="preserve" text-anchor="middle" x="765.75" y="-58.12" font-family="Arial" font-size="10.00">MEDIUM&#45;HIGH IMPACT</text>
<text xml:space="preserve" text-anchor="middle" x="765.75" y="-46.12" font-family="Arial" font-size="10.00">━━━━━━━━━━━━━</text>
<text xml:space="preserve" text-anchor="middle" x="765.75" y="-34.88" font-family="Arial" font-size="10.00">Tree 5: Defacement/DoS</text>
</g>
<!-- quad_mc&#45;&gt;quad_mm -->
<!-- quad_lh -->
<g id="node5" class="node">
<title>quad_lh</title>
<path fill="#90ee90" stroke="black" d="M1003.88,-83.62C1003.88,-83.62 885.12,-83.62 885.12,-83.62 879.12,-83.62 873.12,-77.62 873.12,-71.62 873.12,-71.62 873.12,-40.38 873.12,-40.38 873.12,-34.38 879.12,-28.38 885.12,-28.38 885.12,-28.38 1003.88,-28.38 1003.88,-28.38 1009.88,-28.38 1015.88,-34.38 1015.88,-40.38 1015.88,-40.38 1015.88,-71.62 1015.88,-71.62 1015.88,-77.62 1009.88,-83.62 1003.88,-83.62"/>
<text xml:space="preserve" text-anchor="middle" x="944.5" y="-70.12" font-family="Arial" font-size="10.00">LOW LIKELIHOOD</text>
<text xml:space="preserve" text-anchor="middle" x="944.5" y="-58.12" font-family="Arial" font-size="10.00">HIGH IMPACT</text>
<text xml:space="preserve" text-anchor="middle" x="944.5" y="-46.12" font-family="Arial" font-size="10.00">━━━━━━━━━━━━━</text>
<text xml:space="preserve" text-anchor="middle" x="944.5" y="-34.88" font-family="Arial" font-size="10.00">(No trees in this category)</text>
</g>
<!-- quad_mm&#45;&gt;quad_lh -->
<!-- vuln1 -->
<g id="node6" class="node">
<title>vuln1</title>
<path fill="#ff6b6b" stroke="black" d="M175.62,-181.75C175.62,-181.75 57.62,-181.75 57.62,-181.75 51.62,-181.75 45.62,-175.75 45.62,-169.75 45.62,-169.75 45.62,-154.25 45.62,-154.25 45.62,-148.25 51.62,-142.25 57.62,-142.25 57.62,-142.25 175.62,-142.25 175.62,-142.25 181.62,-142.25 187.62,-148.25 187.62,-154.25 187.62,-154.25 187.62,-169.75 187.62,-169.75 187.62,-175.75 181.62,-181.75 175.62,-181.75"/>
<text xml:space="preserve" text-anchor="middle" x="116.62" y="-164.45" font-family="Arial" font-size="14.00" fill="white">No Score Verification</text>
<text xml:space="preserve" text-anchor="middle" x="116.62" y="-148.7" font-family="Arial" font-size="14.00" fill="white">(HMAC/Signatures)</text>
</g>
<!-- vuln2 -->
<g id="node7" class="node">
<title>vuln2</title>
<path fill="#ff6b6b" stroke="black" d="M417.75,-180C417.75,-180 292.25,-180 292.25,-180 286.25,-180 280.25,-174 280.25,-168 280.25,-168 280.25,-156 280.25,-156 280.25,-150 286.25,-144 292.25,-144 292.25,-144 417.75,-144 417.75,-144 423.75,-144 429.75,-150 429.75,-156 429.75,-156 429.75,-168 429.75,-168 429.75,-174 423.75,-180 417.75,-180"/>
<text xml:space="preserve" text-anchor="middle" x="355" y="-156.57" font-family="Arial" font-size="14.00" fill="white">IDOR at /api/handicap</text>
</g>
<!-- vuln1&#45;&gt;vuln2 -->
<!-- vuln3 -->
<g id="node8" class="node">
<title>vuln3</title>
<path fill="#ffa500" stroke="black" d="M646.38,-181.75C646.38,-181.75 503.62,-181.75 503.62,-181.75 497.62,-181.75 491.62,-175.75 491.62,-169.75 491.62,-169.75 491.62,-154.25 491.62,-154.25 491.62,-148.25 497.62,-142.25 503.62,-142.25 503.62,-142.25 646.38,-142.25 646.38,-142.25 652.38,-142.25 658.38,-148.25 658.38,-154.25 658.38,-154.25 658.38,-169.75 658.38,-169.75 658.38,-175.75 652.38,-181.75 646.38,-181.75"/>
<text xml:space="preserve" text-anchor="middle" x="575" y="-164.45" font-family="Arial" font-size="14.00" fill="white">Weak Password Hashing</text>
<text xml:space="preserve" text-anchor="middle" x="575" y="-148.7" font-family="Arial" font-size="14.00" fill="white">(SHA256)</text>
</g>
<!-- vuln2&#45;&gt;vuln3 -->
<!-- vuln4 -->
<g id="node9" class="node">
<title>vuln4</title>
<path fill="#ffa500" stroke="black" d="M812,-180C812,-180 719.5,-180 719.5,-180 713.5,-180 707.5,-174 707.5,-168 707.5,-168 707.5,-156 707.5,-156 707.5,-150 713.5,-144 719.5,-144 719.5,-144 812,-144 812,-144 818,-144 824,-150 824,-156 824,-156 824,-168 824,-168 824,-174 818,-180 812,-180"/>
<text xml:space="preserve" text-anchor="middle" x="765.75" y="-156.57" font-family="Arial" font-size="14.00" fill="white">No Rate Limiting</text>
</g>
<!-- vuln3&#45;&gt;vuln4 -->
<!-- vuln5 -->
<g id="node10" class="node">
<title>vuln5</title>
<path fill="#ffa500" stroke="black" d="M981.38,-180C981.38,-180 907.62,-180 907.62,-180 901.62,-180 895.62,-174 895.62,-168 895.62,-168 895.62,-156 895.62,-156 895.62,-150 901.62,-144 907.62,-144 907.62,-144 981.38,-144 981.38,-144 987.38,-144 993.38,-150 993.38,-156 993.38,-156 993.38,-168 993.38,-168 993.38,-174 987.38,-180 981.38,-180"/>
<text xml:space="preserve" text-anchor="middle" x="944.5" y="-156.57" font-family="Arial" font-size="14.00" fill="white">SQL Injection</text>
</g>
<!-- vuln4&#45;&gt;vuln5 -->
<!-- assign3 -->
<g id="node11" class="node">
<title>assign3</title>
<path fill="#4a90e2" stroke="black" d="M205.25,-345.88C205.25,-345.88 28,-345.88 28,-345.88 22,-345.88 16,-339.88 16,-333.88 16,-333.88 16,-256.12 16,-256.12 16,-250.12 22,-244.12 28,-244.12 28,-244.12 205.25,-244.12 205.25,-244.12 211.25,-244.12 217.25,-250.12 217.25,-256.12 217.25,-256.12 217.25,-333.88 217.25,-333.88 217.25,-339.88 211.25,-345.88 205.25,-345.88"/>
<text xml:space="preserve" text-anchor="middle" x="116.62" y="-328.57" font-family="Arial" font-size="14.00" fill="white">Assignment 3:</text>
<text xml:space="preserve" text-anchor="middle" x="116.62" y="-312.82" font-family="Arial" font-size="14.00" fill="white">Cryptographic APIs</text>
<text xml:space="preserve" text-anchor="middle" x="116.62" y="-297.07" font-family="Arial" font-size="14.00" fill="white">━━━━━━━━━━━━━</text>
<text xml:space="preserve" text-anchor="middle" x="116.62" y="-282.07" font-family="Arial" font-size="14.00" fill="white">• Bcrypt password hashing</text>
<text xml:space="preserve" text-anchor="middle" x="116.62" y="-266.32" font-family="Arial" font-size="14.00" fill="white">• HMAC score signatures</text>
<text xml:space="preserve" text-anchor="middle" x="116.62" y="-250.57" font-family="Arial" font-size="14.00" fill="white">• PII encryption</text>
</g>
<!-- assign4 -->
<g id="node12" class="node">
<title>assign4</title>
<path fill="#50c878" stroke="black" d="M443.62,-361.62C443.62,-361.62 266.38,-361.62 266.38,-361.62 260.38,-361.62 254.38,-355.62 254.38,-349.62 254.38,-349.62 254.38,-240.38 254.38,-240.38 254.38,-234.38 260.38,-228.38 266.38,-228.38 266.38,-228.38 443.62,-228.38 443.62,-228.38 449.62,-228.38 455.62,-234.38 455.62,-240.38 455.62,-240.38 455.62,-349.62 455.62,-349.62 455.62,-355.62 449.62,-361.62 443.62,-361.62"/>
<text xml:space="preserve" text-anchor="middle" x="355" y="-344.32" font-family="Arial" font-size="14.00" fill="white">Assignment 4:</text>
<text xml:space="preserve" text-anchor="middle" x="355" y="-328.57" font-family="Arial" font-size="14.00" fill="white">DAST &amp; Vulnerability Fixes</text>
<text xml:space="preserve" text-anchor="middle" x="355" y="-312.82" font-family="Arial" font-size="14.00" fill="white">━━━━━━━━━━━━━</text>
<text xml:space="preserve" text-anchor="middle" x="355" y="-297.82" font-family="Arial" font-size="14.00" fill="white">• Fix IDOR (authorization)</text>
<text xml:space="preserve" text-anchor="middle" x="355" y="-282.07" font-family="Arial" font-size="14.00" fill="white">• Rate limiting</text>
<text xml:space="preserve" text-anchor="middle" x="355" y="-266.32" font-family="Arial" font-size="14.00" fill="white">• CSRF tokens</text>
<text xml:space="preserve" text-anchor="middle" x="355" y="-250.57" font-family="Arial" font-size="14.00" fill="white">• SQL injection fixes</text>
<text xml:space="preserve" text-anchor="middle" x="355" y="-234.82" font-family="Arial" font-size="14.00" fill="white">• Session regeneration</text>
</g>
<!-- assign3&#45;&gt;assign4 -->
</g>
</svg>
